<?xml version="1.0" encoding="UTF-8"?>
<svg width="1426px" height="474px" viewBox="0 0 1426 474" version="1.1" xmlns="http://www.w3.org/2000/svg" xmlns:xlink="http://www.w3.org/1999/xlink" style="background: #FFFFFF;">
    <!-- Generator: Sketch 45.2 (43514) - http://www.bohemiancoding.com/sketch -->
    <title>Artboard</title>
    <desc>Created with Sketch.</desc>
    <defs></defs>
    <g id="Page-1" stroke="none" stroke-width="1" fill="none" fill-rule="evenodd">
        <g id="Artboard">
            <rect id="Rectangle-4" fill="#707E6B" x="1276" y="205" width="103" height="150"></rect>
            <rect id="Rectangle-3" fill="#7E6B73" x="941" y="205" width="335" height="150"></rect>
            <rect id="Rectangle-2" fill="#6B7E6C" x="687" y="205" width="254" height="150"></rect>
            <rect id="Path" fill="#6B747E" x="557" y="205" width="130" height="150"></rect>
            <path d="M89.4902344,95.9316406 L89.9824219,99.3066406 L90.703125,96.265625 L95.765625,78.40625 L98.6132812,78.40625 L103.552734,96.265625 L104.255859,99.359375 L104.800781,95.9140625 L108.773438,78.40625 L112.166016,78.40625 L105.960938,104 L102.884766,104 L97.6113281,85.3496094 L97.2070312,83.3984375 L96.8027344,85.3496094 L91.3359375,104 L88.2597656,104 L82.0722656,78.40625 L85.4472656,78.40625 L89.4902344,95.9316406 Z M118.652344,87.2832031 C120.093757,85.513663 121.968738,84.6289062 124.277344,84.6289062 C128.296895,84.6289062 130.324219,86.8964617 130.359375,91.4316406 L130.359375,104 L127.107422,104 L127.107422,91.4140625 C127.095703,90.0429619 126.78223,89.0293002 126.166992,88.3730469 C125.551755,87.7167936 124.593757,87.3886719 123.292969,87.3886719 C122.238276,87.3886719 121.312504,87.6699191 120.515625,88.2324219 C119.718746,88.7949247 119.097658,89.5331986 118.652344,90.4472656 L118.652344,104 L115.400391,104 L115.400391,77 L118.652344,77 L118.652344,87.2832031 Z M146.970703,104 C146.783202,103.624998 146.63086,102.957036 146.513672,101.996094 C145.001946,103.566414 143.197276,104.351562 141.099609,104.351562 C139.2246,104.351562 137.686529,103.821294 136.485352,102.760742 C135.284174,101.70019 134.683594,100.355477 134.683594,98.7265625 C134.683594,96.7460838 135.436516,95.2080133 136.942383,94.1123047 C138.44825,93.0165961 140.566393,92.46875 143.296875,92.46875 L146.460938,92.46875 L146.460938,90.9746094 C146.460938,89.8378849 146.121097,88.9326206 145.441406,88.2587891 C144.761715,87.5849576 143.759772,87.2480469 142.435547,87.2480469 C141.275385,87.2480469 140.302738,87.5410127 139.517578,88.1269531 C138.732418,88.7128936 138.339844,89.4218708 138.339844,90.2539062 L135.070312,90.2539062 C135.070312,89.3046828 135.407223,88.3876997 136.081055,87.5029297 C136.754886,86.6181596 137.66894,85.9179713 138.823242,85.4023438 C139.977545,84.8867162 141.246087,84.6289062 142.628906,84.6289062 C144.820323,84.6289062 146.537103,85.1767523 147.779297,86.2724609 C149.021491,87.3681695 149.666015,88.8769435 149.712891,90.7988281 L149.712891,99.5527344 C149.712891,101.298837 149.935545,102.687495 150.380859,103.71875 L150.380859,104 L146.970703,104 Z M141.574219,101.521484 C142.593755,101.521484 143.560542,101.257815 144.474609,100.730469 C145.388676,100.203122 146.050779,99.5175823 146.460938,98.6738281 L146.460938,94.7714844 L143.912109,94.7714844 C139.927714,94.7714844 137.935547,95.9374883 137.935547,98.2695312 C137.935547,99.2890676 138.275387,100.085935 138.955078,100.660156 C139.634769,101.234378 140.507807,101.521484 141.574219,101.521484 Z M159.222656,80.375 L159.222656,84.9804688 L162.773438,84.9804688 L162.773438,87.4941406 L159.222656,87.4941406 L159.222656,99.2890625 C159.222656,100.050785 159.380858,100.622068 159.697266,101.00293 C160.013673,101.383791 160.552731,101.574219 161.314453,101.574219 C161.689455,101.574219 162.205075,101.503907 162.861328,101.363281 L162.861328,104 C162.005855,104.234376 161.173832,104.351562 160.365234,104.351562 C158.912102,104.351562 157.81641,103.912114 157.078125,103.033203 C156.33984,102.154292 155.970703,100.906258 155.970703,99.2890625 L155.970703,87.4941406 L152.507812,87.4941406 L152.507812,84.9804688 L155.970703,84.9804688 L155.970703,80.375 L159.222656,80.375 Z M174.691406,94.3320312 C174.691406,91.4140479 175.382806,89.0673917 176.765625,87.2919922 C178.148444,85.5165927 179.958973,84.6289062 182.197266,84.6289062 C184.423839,84.6289062 186.187493,85.3906174 187.488281,86.9140625 L187.488281,77 L190.740234,77 L190.740234,104 L187.751953,104 L187.59375,101.960938 C186.292962,103.554695 184.482433,104.351562 182.162109,104.351562 C179.958973,104.351562 178.163093,103.449228 176.774414,101.644531 C175.385735,99.8398347 174.691406,97.4843895 174.691406,94.578125 L174.691406,94.3320312 Z M177.943359,94.7011719 C177.943359,96.8574327 178.388667,98.5449158 179.279297,99.7636719 C180.169926,100.982428 181.400383,101.591797 182.970703,101.591797 C185.033213,101.591797 186.539058,100.666025 187.488281,98.8144531 L187.488281,90.078125 C186.51562,88.2851473 185.021494,87.3886719 183.005859,87.3886719 C181.412101,87.3886719 180.169926,88.0039001 179.279297,89.234375 C178.388667,90.4648499 177.943359,92.2870973 177.943359,94.7011719 Z M194.923828,94.3144531 C194.923828,92.4511626 195.290035,90.7753981 196.022461,89.2871094 C196.754886,87.7988207 197.774408,86.6503947 199.081055,85.8417969 C200.387702,85.0331991 201.878898,84.6289062 203.554688,84.6289062 C206.144544,84.6289062 208.23925,85.5253817 209.838867,87.3183594 C211.438485,89.1113371 212.238281,91.4960789 212.238281,94.4726562 L212.238281,94.7011719 C212.238281,96.5527436 211.883793,98.2138598 211.174805,99.6845703 C210.465817,101.155281 209.452155,102.300777 208.133789,103.121094 C206.815423,103.94141 205.30079,104.351562 203.589844,104.351562 C201.011706,104.351562 198.92286,103.455087 197.323242,101.662109 C195.723625,99.8691317 194.923828,97.4961085 194.923828,94.5429688 L194.923828,94.3144531 Z M198.193359,94.7011719 C198.193359,96.8105574 198.682612,98.5038999 199.661133,99.78125 C200.639653,101.0586 201.949211,101.697266 203.589844,101.697266 C205.242196,101.697266 206.554683,101.049811 207.527344,99.7548828 C208.500005,98.4599545 208.986328,96.646496 208.986328,94.3144531 C208.986328,92.2285052 208.491216,90.5380924 207.500977,89.2431641 C206.510737,87.9482357 205.195321,87.3007812 203.554688,87.3007812 C201.949211,87.3007812 200.654302,87.9394467 199.669922,89.2167969 C198.685542,90.494147 198.193359,92.3222537 198.193359,94.7011719 Z M231.451172,99.2363281 L235.880859,84.9804688 L239.361328,84.9804688 L231.714844,106.935547 C230.531244,110.099625 228.650404,111.681641 226.072266,111.681641 L225.457031,111.628906 L224.244141,111.400391 L224.244141,108.763672 L225.123047,108.833984 C226.224615,108.833984 227.083005,108.61133 227.698242,108.166016 C228.31348,107.720701 228.820311,106.906256 229.21875,105.722656 L229.939453,103.789062 L223.154297,84.9804688 L226.705078,84.9804688 L231.451172,99.2363281 Z M241.136719,94.3144531 C241.136719,92.4511626 241.502926,90.7753981 242.235352,89.2871094 C242.967777,87.7988207 243.987298,86.6503947 245.293945,85.8417969 C246.600592,85.0331991 248.091788,84.6289062 249.767578,84.6289062 C252.357435,84.6289062 254.45214,85.5253817 256.051758,87.3183594 C257.651375,89.1113371 258.451172,91.4960789 258.451172,94.4726562 L258.451172,94.7011719 C258.451172,96.5527436 258.096683,98.2138598 257.387695,99.6845703 C256.678707,101.155281 255.665046,102.300777 254.34668,103.121094 C253.028314,103.94141 251.51368,104.351562 249.802734,104.351562 C247.224596,104.351562 245.13575,103.455087 243.536133,101.662109 C241.936515,99.8691317 241.136719,97.4961085 241.136719,94.5429688 L241.136719,94.3144531 Z M244.40625,94.7011719 C244.40625,96.8105574 244.895503,98.5038999 245.874023,99.78125 C246.852544,101.0586 248.162101,101.697266 249.802734,101.697266 C251.455086,101.697266 252.767573,101.049811 253.740234,99.7548828 C254.712895,98.4599545 255.199219,96.646496 255.199219,94.3144531 C255.199219,92.2285052 254.704107,90.5380924 253.713867,89.2431641 C252.723628,87.9482357 251.408211,87.3007812 249.767578,87.3007812 C248.162101,87.3007812 246.867192,87.9394467 245.882812,89.2167969 C244.898433,90.494147 244.40625,92.3222537 244.40625,94.7011719 Z M274.271484,102.119141 C273.005853,103.607429 271.14845,104.351562 268.699219,104.351562 C266.671865,104.351562 265.127935,103.762701 264.067383,102.584961 C263.006831,101.407221 262.470703,99.664074 262.458984,97.3554688 L262.458984,84.9804688 L265.710938,84.9804688 L265.710938,97.2675781 C265.710938,100.150405 266.882801,101.591797 269.226562,101.591797 C271.71095,101.591797 273.363277,100.666025 274.183594,98.8144531 L274.183594,84.9804688 L277.435547,84.9804688 L277.435547,104 L274.341797,104 L274.271484,102.119141 Z M294.820312,104 L291.568359,104 L291.568359,77 L294.820312,77 L294.820312,104 Z M299.162109,94.3144531 C299.162109,92.4511626 299.528317,90.7753981 300.260742,89.2871094 C300.993168,87.7988207 302.012689,86.6503947 303.319336,85.8417969 C304.625983,85.0331991 306.117179,84.6289062 307.792969,84.6289062 C310.382825,84.6289062 312.477531,85.5253817 314.077148,87.3183594 C315.676766,89.1113371 316.476562,91.4960789 316.476562,94.4726562 L316.476562,94.7011719 C316.476562,96.5527436 316.122074,98.2138598 315.413086,99.6845703 C314.704098,101.155281 313.690436,102.300777 312.37207,103.121094 C311.053704,103.94141 309.539071,104.351562 307.828125,104.351562 C305.249987,104.351562 303.161141,103.455087 301.561523,101.662109 C299.961906,99.8691317 299.162109,97.4961085 299.162109,94.5429688 L299.162109,94.3144531 Z M302.431641,94.7011719 C302.431641,96.8105574 302.920894,98.5038999 303.899414,99.78125 C304.877935,101.0586 306.187492,101.697266 307.828125,101.697266 C309.480477,101.697266 310.792964,101.049811 311.765625,99.7548828 C312.738286,98.4599545 313.224609,96.646496 313.224609,94.3144531 C313.224609,92.2285052 312.729497,90.5380924 311.739258,89.2431641 C310.749018,87.9482357 309.433602,87.3007812 307.792969,87.3007812 C306.187492,87.3007812 304.892583,87.9394467 303.908203,89.2167969 C302.923823,90.494147 302.431641,92.3222537 302.431641,94.7011719 Z M319.693359,94.3144531 C319.693359,92.4511626 320.059567,90.7753981 320.791992,89.2871094 C321.524418,87.7988207 322.543939,86.6503947 323.850586,85.8417969 C325.157233,85.0331991 326.648429,84.6289062 328.324219,84.6289062 C330.914075,84.6289062 333.008781,85.5253817 334.608398,87.3183594 C336.208016,89.1113371 337.007812,91.4960789 337.007812,94.4726562 L337.007812,94.7011719 C337.007812,96.5527436 336.653324,98.2138598 335.944336,99.6845703 C335.235348,101.155281 334.221686,102.300777 332.90332,103.121094 C331.584954,103.94141 330.070321,104.351562 328.359375,104.351562 C325.781237,104.351562 323.692391,103.455087 322.092773,101.662109 C320.493156,99.8691317 319.693359,97.4961085 319.693359,94.5429688 L319.693359,94.3144531 Z M322.962891,94.7011719 C322.962891,96.8105574 323.452144,98.5038999 324.430664,99.78125 C325.409185,101.0586 326.718742,101.697266 328.359375,101.697266 C330.011727,101.697266 331.324214,101.049811 332.296875,99.7548828 C333.269536,98.4599545 333.755859,96.646496 333.755859,94.3144531 C333.755859,92.2285052 333.260747,90.5380924 332.270508,89.2431641 C331.280268,87.9482357 329.964852,87.3007812 328.324219,87.3007812 C326.718742,87.3007812 325.423833,87.9394467 324.439453,89.2167969 C323.455073,90.494147 322.962891,92.3222537 322.962891,94.7011719 Z M346.394531,95.1933594 L344.355469,97.3203125 L344.355469,104 L341.103516,104 L341.103516,77 L344.355469,77 L344.355469,93.3300781 L346.095703,91.2382812 L352.019531,84.9804688 L355.974609,84.9804688 L348.574219,92.9257812 L356.835938,104 L353.021484,104 L346.394531,95.1933594 Z M369.84375,104 L369.84375,87.4941406 L366.837891,87.4941406 L366.837891,84.9804688 L369.84375,84.9804688 L369.84375,83.0292969 C369.84375,80.9902242 370.388666,79.4140681 371.478516,78.3007812 C372.568365,77.1874944 374.109365,76.6308594 376.101562,76.6308594 C376.851566,76.6308594 377.595699,76.7304678 378.333984,76.9296875 L378.158203,79.5664062 C377.607419,79.460937 377.021487,79.4082031 376.400391,79.4082031 C375.345698,79.4082031 374.531253,79.7158172 373.957031,80.3310547 C373.38281,80.9462921 373.095703,81.8281193 373.095703,82.9765625 L373.095703,84.9804688 L377.15625,84.9804688 L377.15625,87.4941406 L373.095703,87.4941406 L373.095703,104 L369.84375,104 Z M379.880859,94.3144531 C379.880859,92.4511626 380.247067,90.7753981 380.979492,89.2871094 C381.711918,87.7988207 382.731439,86.6503947 384.038086,85.8417969 C385.344733,85.0331991 386.835929,84.6289062 388.511719,84.6289062 C391.101575,84.6289062 393.196281,85.5253817 394.795898,87.3183594 C396.395516,89.1113371 397.195312,91.4960789 397.195312,94.4726562 L397.195312,94.7011719 C397.195312,96.5527436 396.840824,98.2138598 396.131836,99.6845703 C395.422848,101.155281 394.409186,102.300777 393.09082,103.121094 C391.772454,103.94141 390.257821,104.351562 388.546875,104.351562 C385.968737,104.351562 383.879891,103.455087 382.280273,101.662109 C380.680656,99.8691317 379.880859,97.4961085 379.880859,94.5429688 L379.880859,94.3144531 Z M383.150391,94.7011719 C383.150391,96.8105574 383.639644,98.5038999 384.618164,99.78125 C385.596685,101.0586 386.906242,101.697266 388.546875,101.697266 C390.199227,101.697266 391.511714,101.049811 392.484375,99.7548828 C393.457036,98.4599545 393.943359,96.646496 393.943359,94.3144531 C393.943359,92.2285052 393.448247,90.5380924 392.458008,89.2431641 C391.467768,87.9482357 390.152352,87.3007812 388.511719,87.3007812 C386.906242,87.3007812 385.611333,87.9394467 384.626953,89.2167969 C383.642573,90.494147 383.150391,92.3222537 383.150391,94.7011719 Z M410.466797,87.8984375 C409.974607,87.8164058 409.441409,87.7753906 408.867188,87.7753906 C406.734364,87.7753906 405.287113,88.6835847 404.525391,90.5 L404.525391,104 L401.273438,104 L401.273438,84.9804688 L404.4375,84.9804688 L404.490234,87.1777344 C405.556646,85.4785071 407.06835,84.6289062 409.025391,84.6289062 C409.658206,84.6289062 410.13867,84.7109367 410.466797,84.875 L410.466797,87.8984375 Z M439.207031,99.5175781 L442.863281,84.9804688 L446.115234,84.9804688 L440.578125,104 L437.941406,104 L433.318359,89.5859375 L428.818359,104 L426.181641,104 L420.662109,84.9804688 L423.896484,84.9804688 L427.640625,99.21875 L432.070312,84.9804688 L434.689453,84.9804688 L439.207031,99.5175781 Z M452.671875,87.2832031 C454.113288,85.513663 455.98827,84.6289062 458.296875,84.6289062 C462.316426,84.6289062 464.34375,86.8964617 464.378906,91.4316406 L464.378906,104 L461.126953,104 L461.126953,91.4140625 C461.115234,90.0429619 460.801761,89.0293002 460.186523,88.3730469 C459.571286,87.7167936 458.613288,87.3886719 457.3125,87.3886719 C456.257807,87.3886719 455.332035,87.6699191 454.535156,88.2324219 C453.738277,88.7949247 453.11719,89.5331986 452.671875,90.4472656 L452.671875,104 L449.419922,104 L449.419922,77 L452.671875,77 L452.671875,87.2832031 Z M477.140625,104.351562 C474.562487,104.351562 472.464852,103.504891 470.847656,101.811523 C469.230461,100.118156 468.421875,97.8535298 468.421875,95.0175781 L468.421875,94.4199219 C468.421875,92.5331937 468.782223,90.8486402 469.50293,89.3662109 C470.223636,87.8837817 471.231439,86.723637 472.526367,85.8857422 C473.821296,85.0478474 475.224602,84.6289062 476.736328,84.6289062 C479.208997,84.6289062 481.130853,85.4433512 482.501953,87.0722656 C483.873054,88.70118 484.558594,91.0331879 484.558594,94.0683594 L484.558594,95.421875 L471.673828,95.421875 C471.720703,97.2968844 472.268549,98.8115177 473.317383,99.9658203 C474.366216,101.120123 475.699211,101.697266 477.316406,101.697266 C478.464849,101.697266 479.437496,101.462893 480.234375,100.994141 C481.031254,100.525388 481.728513,99.9043007 482.326172,99.1308594 L484.3125,100.677734 C482.718742,103.126965 480.328141,104.351562 477.140625,104.351562 Z M476.736328,87.3007812 C475.423822,87.3007812 474.32227,87.7783155 473.431641,88.7333984 C472.541011,89.6884813 471.990235,91.0273351 471.779297,92.75 L481.306641,92.75 L481.306641,92.5039062 C481.21289,90.8515542 480.767582,89.5712936 479.970703,88.6630859 C479.173824,87.7548783 478.09571,87.3007812 476.736328,87.3007812 Z M491.396484,84.9804688 L491.501953,87.3710938 C492.955085,85.5429596 494.853504,84.6289062 497.197266,84.6289062 C501.216817,84.6289062 503.24414,86.8964617 503.279297,91.4316406 L503.279297,104 L500.027344,104 L500.027344,91.4140625 C500.015625,90.0429619 499.702152,89.0293002 499.086914,88.3730469 C498.471677,87.7167936 497.513678,87.3886719 496.212891,87.3886719 C495.158198,87.3886719 494.232426,87.6699191 493.435547,88.2324219 C492.638668,88.7949247 492.01758,89.5331986 491.572266,90.4472656 L491.572266,104 L488.320312,104 L488.320312,84.9804688 L491.396484,84.9804688 Z M533.197266,94.7011719 C533.197266,97.6074364 532.529304,99.942374 531.193359,101.706055 C529.857415,103.469735 528.064464,104.351562 525.814453,104.351562 C523.412097,104.351562 521.554694,103.501962 520.242188,101.802734 L520.083984,104 L517.095703,104 L517.095703,77 L520.347656,77 L520.347656,87.0722656 C521.660163,85.4433512 523.470692,84.6289062 525.779297,84.6289062 C528.087902,84.6289062 529.901361,85.5019444 531.219727,87.2480469 C532.538093,88.9941494 533.197266,91.3847504 533.197266,94.4199219 L533.197266,94.7011719 Z M529.945312,94.3320312 C529.945312,92.1171764 529.517582,90.406256 528.662109,89.1992188 C527.806636,87.9921815 526.57618,87.3886719 524.970703,87.3886719 C522.826161,87.3886719 521.285161,88.3847557 520.347656,90.3769531 L520.347656,98.6035156 C521.343755,100.595713 522.896474,101.591797 525.005859,101.591797 C526.564461,101.591797 527.777339,100.988287 528.644531,99.78125 C529.511723,98.5742127 529.945312,96.7578246 529.945312,94.3320312 Z M546.486328,87.8984375 C545.994138,87.8164058 545.46094,87.7753906 544.886719,87.7753906 C542.753896,87.7753906 541.306644,88.6835847 540.544922,90.5 L540.544922,104 L537.292969,104 L537.292969,84.9804688 L540.457031,84.9804688 L540.509766,87.1777344 C541.576177,85.4785071 543.087881,84.6289062 545.044922,84.6289062 C545.677738,84.6289062 546.158201,84.7109367 546.486328,84.875 L546.486328,87.8984375 Z M548.261719,94.3144531 C548.261719,92.4511626 548.627926,90.7753981 549.360352,89.2871094 C550.092777,87.7988207 551.112298,86.6503947 552.418945,85.8417969 C553.725592,85.0331991 555.216788,84.6289062 556.892578,84.6289062 C559.482435,84.6289062 561.57714,85.5253817 563.176758,87.3183594 C564.776375,89.1113371 565.576172,91.4960789 565.576172,94.4726562 L565.576172,94.7011719 C565.576172,96.5527436 565.221683,98.2138598 564.512695,99.6845703 C563.803707,101.155281 562.790046,102.300777 561.47168,103.121094 C560.153314,103.94141 558.63868,104.351562 556.927734,104.351562 C554.349596,104.351562 552.26075,103.455087 550.661133,101.662109 C549.061515,99.8691317 548.261719,97.4961085 548.261719,94.5429688 L548.261719,94.3144531 Z M551.53125,94.7011719 C551.53125,96.8105574 552.020503,98.5038999 552.999023,99.78125 C553.977544,101.0586 555.287101,101.697266 556.927734,101.697266 C558.580086,101.697266 559.892573,101.049811 560.865234,99.7548828 C561.837895,98.4599545 562.324219,96.646496 562.324219,94.3144531 C562.324219,92.2285052 561.829107,90.5380924 560.838867,89.2431641 C559.848628,87.9482357 558.533211,87.3007812 556.892578,87.3007812 C555.287101,87.3007812 553.992192,87.9394467 553.007812,89.2167969 C552.023433,90.494147 551.53125,92.3222537 551.53125,94.7011719 Z M586.494141,99.5175781 L590.150391,84.9804688 L593.402344,84.9804688 L587.865234,104 L585.228516,104 L580.605469,89.5859375 L576.105469,104 L573.46875,104 L567.949219,84.9804688 L571.183594,84.9804688 L574.927734,99.21875 L579.357422,84.9804688 L581.976562,84.9804688 L586.494141,99.5175781 Z M607.78125,98.9550781 C607.78125,98.0761675 607.450199,97.3935571 606.788086,96.9072266 C606.125973,96.420896 604.971688,96.0019549 603.325195,95.6503906 C601.678703,95.2988264 600.372075,94.8769556 599.405273,94.3847656 C598.438472,93.8925757 597.723635,93.306644 597.260742,92.6269531 C596.797849,91.9472622 596.566406,91.1386766 596.566406,90.2011719 C596.566406,88.6425703 597.225579,87.3242241 598.543945,86.2460938 C599.862311,85.1679634 601.546865,84.6289062 603.597656,84.6289062 C605.753917,84.6289062 607.502923,85.1855413 608.844727,86.2988281 C610.18653,87.4121149 610.857422,88.8359288 610.857422,90.5703125 L607.587891,90.5703125 C607.587891,89.679683 607.209965,88.9121126 606.454102,88.2675781 C605.698238,87.6230437 604.746099,87.3007812 603.597656,87.3007812 C602.414057,87.3007812 601.488285,87.5585912 600.820312,88.0742188 C600.15234,88.5898463 599.818359,89.2636677 599.818359,90.0957031 C599.818359,90.8808633 600.128903,91.4726543 600.75,91.8710938 C601.371097,92.2695332 602.493156,92.6503888 604.116211,93.0136719 C605.739266,93.3769549 607.054682,93.8105444 608.0625,94.3144531 C609.070318,94.8183619 609.81738,95.4248011 610.303711,96.1337891 C610.790041,96.842777 611.033203,97.7070262 611.033203,98.7265625 C611.033203,100.42579 610.353522,101.788081 608.994141,102.813477 C607.634759,103.838872 605.871105,104.351562 603.703125,104.351562 C602.17968,104.351562 600.832037,104.082034 599.660156,103.542969 C598.488275,103.003904 597.571292,102.250981 596.90918,101.28418 C596.247067,100.317378 595.916016,99.27149 595.916016,98.1464844 L599.167969,98.1464844 C599.226563,99.2363336 599.663082,100.100583 600.477539,100.739258 C601.291996,101.377933 602.367181,101.697266 603.703125,101.697266 C604.9336,101.697266 605.920895,101.448245 606.665039,100.950195 C607.409183,100.452146 607.78125,99.7871135 607.78125,98.9550781 Z M618.802734,104 L615.550781,104 L615.550781,84.9804688 L618.802734,84.9804688 L618.802734,104 Z M615.287109,79.9355469 C615.287109,79.4082005 615.448241,78.9628924 615.770508,78.5996094 C616.092775,78.2363263 616.570309,78.0546875 617.203125,78.0546875 C617.835941,78.0546875 618.316405,78.2363263 618.644531,78.5996094 C618.972658,78.9628924 619.136719,79.4082005 619.136719,79.9355469 C619.136719,80.4628933 618.972658,80.902342 618.644531,81.2539062 C618.316405,81.6054705 617.835941,81.78125 617.203125,81.78125 C616.570309,81.78125 616.092775,81.6054705 615.770508,81.2539062 C615.448241,80.902342 615.287109,80.4628933 615.287109,79.9355469 Z M627.082031,84.9804688 L627.1875,87.3710938 C628.640632,85.5429596 630.539051,84.6289062 632.882812,84.6289062 C636.902364,84.6289062 638.929687,86.8964617 638.964844,91.4316406 L638.964844,104 L635.712891,104 L635.712891,91.4140625 C635.701172,90.0429619 635.387698,89.0293002 634.772461,88.3730469 C634.157223,87.7167936 633.199225,87.3886719 631.898438,87.3886719 C630.843745,87.3886719 629.917973,87.6699191 629.121094,88.2324219 C628.324215,88.7949247 627.703127,89.5331986 627.257812,90.4472656 L627.257812,104 L624.005859,104 L624.005859,84.9804688 L627.082031,84.9804688 Z M643.095703,94.3320312 C643.095703,91.3671727 643.781243,89.0087978 645.152344,87.2568359 C646.523444,85.5048741 648.339832,84.6289062 650.601562,84.6289062 C652.921887,84.6289062 654.732415,85.4492105 656.033203,87.0898438 L656.191406,84.9804688 L659.162109,84.9804688 L659.162109,103.542969 C659.162109,106.003919 658.432624,107.943352 656.973633,109.361328 C655.514641,110.779304 653.5547,111.488281 651.09375,111.488281 C649.722649,111.488281 648.380866,111.195315 647.068359,110.609375 C645.755853,110.023435 644.75391,109.220708 644.0625,108.201172 L645.75,106.25 C647.144538,107.972665 648.849599,108.833984 650.865234,108.833984 C652.447274,108.833984 653.68066,108.388676 654.56543,107.498047 C655.4502,106.607417 655.892578,105.353524 655.892578,103.736328 L655.892578,102.101562 C654.59179,103.60157 652.816417,104.351562 650.566406,104.351562 C648.339833,104.351562 646.538093,103.455087 645.161133,101.662109 C643.784173,99.8691317 643.095703,97.4257967 643.095703,94.3320312 Z M646.365234,94.7011719 C646.365234,96.8457138 646.804683,98.5302673 647.683594,99.7548828 C648.562504,100.979498 649.792961,101.591797 651.375,101.591797 C653.425792,101.591797 654.931636,100.660166 655.892578,98.796875 L655.892578,90.1132812 C654.896479,88.2968659 653.402354,87.3886719 651.410156,87.3886719 C649.828117,87.3886719 648.591801,88.0039001 647.701172,89.234375 C646.810542,90.4648499 646.365234,92.2870973 646.365234,94.7011719 Z M674.578125,104 L674.578125,87.4941406 L671.572266,87.4941406 L671.572266,84.9804688 L674.578125,84.9804688 L674.578125,83.0292969 C674.578125,80.9902242 675.123041,79.4140681 676.212891,78.3007812 C677.30274,77.1874944 678.84374,76.6308594 680.835938,76.6308594 C681.585941,76.6308594 682.330074,76.7304678 683.068359,76.9296875 L682.892578,79.5664062 C682.341794,79.460937 681.755862,79.4082031 681.134766,79.4082031 C680.080073,79.4082031 679.265628,79.7158172 678.691406,80.3310547 C678.117185,80.9462921 677.830078,81.8281193 677.830078,82.9765625 L677.830078,84.9804688 L681.890625,84.9804688 L681.890625,87.4941406 L677.830078,87.4941406 L677.830078,104 L674.578125,104 Z M684.615234,94.3144531 C684.615234,92.4511626 684.981442,90.7753981 685.713867,89.2871094 C686.446293,87.7988207 687.465814,86.6503947 688.772461,85.8417969 C690.079108,85.0331991 691.570304,84.6289062 693.246094,84.6289062 C695.83595,84.6289062 697.930656,85.5253817 699.530273,87.3183594 C701.129891,89.1113371 701.929688,91.4960789 701.929688,94.4726562 L701.929688,94.7011719 C701.929688,96.5527436 701.575199,98.2138598 700.866211,99.6845703 C700.157223,101.155281 699.143561,102.300777 697.825195,103.121094 C696.506829,103.94141 694.992196,104.351562 693.28125,104.351562 C690.703112,104.351562 688.614266,103.455087 687.014648,101.662109 C685.415031,99.8691317 684.615234,97.4961085 684.615234,94.5429688 L684.615234,94.3144531 Z M687.884766,94.7011719 C687.884766,96.8105574 688.374019,98.5038999 689.352539,99.78125 C690.33106,101.0586 691.640617,101.697266 693.28125,101.697266 C694.933602,101.697266 696.246089,101.049811 697.21875,99.7548828 C698.191411,98.4599545 698.677734,96.646496 698.677734,94.3144531 C698.677734,92.2285052 698.182622,90.5380924 697.192383,89.2431641 C696.202143,87.9482357 694.886727,87.3007812 693.246094,87.3007812 C691.640617,87.3007812 690.345708,87.9394467 689.361328,89.2167969 C688.376948,90.494147 687.884766,92.3222537 687.884766,94.7011719 Z M715.201172,87.8984375 C714.708982,87.8164058 714.175784,87.7753906 713.601562,87.7753906 C711.468739,87.7753906 710.021488,88.6835847 709.259766,90.5 L709.259766,104 L706.007812,104 L706.007812,84.9804688 L709.171875,84.9804688 L709.224609,87.1777344 C710.291021,85.4785071 711.802725,84.6289062 713.759766,84.6289062 C714.392581,84.6289062 714.873045,84.7109367 715.201172,84.875 L715.201172,87.8984375 Z M730.634766,104 L727.382812,104 L727.382812,84.9804688 L730.634766,84.9804688 L730.634766,104 Z M727.119141,79.9355469 C727.119141,79.4082005 727.280272,78.9628924 727.602539,78.5996094 C727.924806,78.2363263 728.402341,78.0546875 729.035156,78.0546875 C729.667972,78.0546875 730.148436,78.2363263 730.476562,78.5996094 C730.804689,78.9628924 730.96875,79.4082005 730.96875,79.9355469 C730.96875,80.4628933 730.804689,80.902342 730.476562,81.2539062 C730.148436,81.6054705 729.667972,81.78125 729.035156,81.78125 C728.402341,81.78125 727.924806,81.6054705 727.602539,81.2539062 C727.280272,80.902342 727.119141,80.4628933 727.119141,79.9355469 Z M740.25,80.375 L740.25,84.9804688 L743.800781,84.9804688 L743.800781,87.4941406 L740.25,87.4941406 L740.25,99.2890625 C740.25,100.050785 740.408202,100.622068 740.724609,101.00293 C741.041017,101.383791 741.580074,101.574219 742.341797,101.574219 C742.716799,101.574219 743.232419,101.503907 743.888672,101.363281 L743.888672,104 C743.033199,104.234376 742.201176,104.351562 741.392578,104.351562 C739.939446,104.351562 738.843754,103.912114 738.105469,103.033203 C737.367184,102.154292 736.998047,100.906258 736.998047,99.2890625 L736.998047,87.4941406 L733.535156,87.4941406 L733.535156,84.9804688 L736.998047,84.9804688 L736.998047,80.375 L740.25,80.375 Z M755.490234,104.351562 C752.912096,104.351562 750.814461,103.504891 749.197266,101.811523 C747.58007,100.118156 746.771484,97.8535298 746.771484,95.0175781 L746.771484,94.4199219 C746.771484,92.5331937 747.131832,90.8486402 747.852539,89.3662109 C748.573246,87.8837817 749.581048,86.723637 750.875977,85.8857422 C752.170905,85.0478474 753.574211,84.6289062 755.085938,84.6289062 C757.558606,84.6289062 759.480462,85.4433512 760.851562,87.0722656 C762.222663,88.70118 762.908203,91.0331879 762.908203,94.0683594 L762.908203,95.421875 L750.023438,95.421875 C750.070313,97.2968844 750.618159,98.8115177 751.666992,99.9658203 C752.715826,101.120123 754.04882,101.697266 755.666016,101.697266 C756.814459,101.697266 757.787105,101.462893 758.583984,100.994141 C759.380863,100.525388 760.078122,99.9043007 760.675781,99.1308594 L762.662109,100.677734 C761.068351,103.126965 758.67775,104.351562 755.490234,104.351562 Z M755.085938,87.3007812 C753.773431,87.3007812 752.671879,87.7783155 751.78125,88.7333984 C750.890621,89.6884813 750.339845,91.0273351 750.128906,92.75 L759.65625,92.75 L759.65625,92.5039062 C759.5625,90.8515542 759.117191,89.5712936 758.320312,88.6630859 C757.523434,87.7548783 756.445319,87.3007812 755.085938,87.3007812 Z M769.728516,84.9804688 L769.816406,87.0898438 C771.210944,85.4492105 773.091785,84.6289062 775.458984,84.6289062 C778.119154,84.6289062 779.929683,85.6484273 780.890625,87.6875 C781.523441,86.7734329 782.346675,86.0351591 783.360352,85.4726562 C784.374029,84.9101534 785.572259,84.6289062 786.955078,84.6289062 C791.126974,84.6289062 793.248047,86.8378685 793.318359,91.2558594 L793.318359,104 L790.066406,104 L790.066406,91.4492188 C790.066406,90.089837 789.755862,89.0732456 789.134766,88.3994141 C788.513669,87.7255826 787.47071,87.3886719 786.005859,87.3886719 C784.798822,87.3886719 783.796879,87.7490198 783,88.4697266 C782.203121,89.1904333 781.740235,90.1601502 781.611328,91.3789062 L781.611328,104 L778.341797,104 L778.341797,91.5371094 C778.341797,88.7714705 776.988295,87.3886719 774.28125,87.3886719 C772.148427,87.3886719 770.689457,88.2968659 769.904297,90.1132812 L769.904297,104 L766.652344,104 L766.652344,84.9804688 L769.728516,84.9804688 Z M809.296875,98.9550781 C809.296875,98.0761675 808.965824,97.3935571 808.303711,96.9072266 C807.641598,96.420896 806.487313,96.0019549 804.84082,95.6503906 C803.194328,95.2988264 801.8877,94.8769556 800.920898,94.3847656 C799.954097,93.8925757 799.23926,93.306644 798.776367,92.6269531 C798.313474,91.9472622 798.082031,91.1386766 798.082031,90.2011719 C798.082031,88.6425703 798.741204,87.3242241 800.05957,86.2460938 C801.377936,85.1679634 803.06249,84.6289062 805.113281,84.6289062 C807.269542,84.6289062 809.018548,85.1855413 810.360352,86.2988281 C811.702155,87.4121149 812.373047,88.8359288 812.373047,90.5703125 L809.103516,90.5703125 C809.103516,89.679683 808.72559,88.9121126 807.969727,88.2675781 C807.213863,87.6230437 806.261724,87.3007812 805.113281,87.3007812 C803.929682,87.3007812 803.00391,87.5585912 802.335938,88.0742188 C801.667965,88.5898463 801.333984,89.2636677 801.333984,90.0957031 C801.333984,90.8808633 801.644528,91.4726543 802.265625,91.8710938 C802.886722,92.2695332 804.008781,92.6503888 805.631836,93.0136719 C807.254891,93.3769549 808.570307,93.8105444 809.578125,94.3144531 C810.585943,94.8183619 811.333005,95.4248011 811.819336,96.1337891 C812.305666,96.842777 812.548828,97.7070262 812.548828,98.7265625 C812.548828,100.42579 811.869147,101.788081 810.509766,102.813477 C809.150384,103.838872 807.38673,104.351562 805.21875,104.351562 C803.695305,104.351562 802.347662,104.082034 801.175781,103.542969 C800.0039,103.003904 799.086917,102.250981 798.424805,101.28418 C797.762692,100.317378 797.431641,99.27149 797.431641,98.1464844 L800.683594,98.1464844 C800.742188,99.2363336 801.178707,100.100583 801.993164,100.739258 C802.807621,101.377933 803.882806,101.697266 805.21875,101.697266 C806.449225,101.697266 807.43652,101.448245 808.180664,100.950195 C808.924808,100.452146 809.296875,99.7871135 809.296875,98.9550781 Z M820.599609,96.7929688 C820.623047,95.3984305 820.781249,94.296879 821.074219,93.4882812 C821.367189,92.6796835 821.964839,91.783208 822.867188,90.7988281 L825.169922,88.4257812 C826.154302,87.3124944 826.646484,86.1171939 826.646484,84.8398438 C826.646484,83.6093688 826.324222,82.6455113 825.679688,81.9482422 C825.035153,81.2509731 824.097662,80.9023438 822.867188,80.9023438 C821.671869,80.9023438 820.710941,81.2187468 819.984375,81.8515625 C819.257809,82.4843782 818.894531,83.333979 818.894531,84.4003906 L815.642578,84.4003906 C815.666016,82.5019436 816.342767,80.9697324 817.672852,79.8037109 C819.002936,78.6376895 820.734364,78.0546875 822.867188,78.0546875 C825.082042,78.0546875 826.807611,78.6494081 828.043945,79.8388672 C829.28028,81.0283263 829.898438,82.6601459 829.898438,84.734375 C829.898438,86.7851665 828.949228,88.8066307 827.050781,90.7988281 L825.134766,92.6972656 C824.279293,93.6464891 823.851562,95.0117098 823.851562,96.7929688 L820.599609,96.7929688 Z M820.458984,102.365234 C820.458984,101.837888 820.620116,101.39551 820.942383,101.038086 C821.26465,100.680662 821.742184,100.501953 822.375,100.501953 C823.007816,100.501953 823.48828,100.680662 823.816406,101.038086 C824.144533,101.39551 824.308594,101.837888 824.308594,102.365234 C824.308594,102.892581 824.144533,103.3291 823.816406,103.674805 C823.48828,104.02051 823.007816,104.193359 822.375,104.193359 C821.742184,104.193359 821.26465,104.02051 820.942383,103.674805 C820.620116,103.3291 820.458984,102.892581 820.458984,102.365234 Z" id="What-do-you-look-for" fill="#000000"></path>
            <rect id="Rectangle" fill="#393E43" x="57" y="205" width="500" height="150"></rect>
            <path d="M288.589818,256.621094 L290.576146,256.621094 C291.853496,256.621094 292.837862,256.22852 293.529271,255.443359 C294.220681,254.658199 294.566381,253.585944 294.566381,252.226562 C294.566381,249.226547 293.406236,247.726562 291.085912,247.726562 C289.972625,247.726562 289.099587,248.130855 288.466771,248.939453 C287.833956,249.748051 287.517553,250.808587 287.517553,252.121094 L284.423803,252.121094 C284.423803,250.070302 285.04782,248.379889 286.295873,247.049805 C287.543926,245.71972 289.14059,245.054688 291.085912,245.054688 C293.101547,245.054688 294.70114,245.684564 295.88474,246.944336 C297.06834,248.204108 297.660131,249.98827 297.660131,252.296875 C297.660131,253.480475 297.352517,254.584956 296.737279,255.610352 C296.122042,256.635747 295.322245,257.388669 294.337865,257.869141 C296.75194,258.75977 297.958959,260.757797 297.958959,263.863281 C297.958959,266.148449 297.323223,267.967767 296.051732,269.321289 C294.780241,270.674811 293.119125,271.351562 291.068334,271.351562 C289.04098,271.351562 287.403301,270.709967 286.155248,269.426758 C284.907195,268.143548 284.283178,266.41798 284.283178,264.25 L287.394506,264.25 C287.394506,265.609382 287.722627,266.690426 288.378881,267.493164 C289.035134,268.295902 289.931609,268.697266 291.068334,268.697266 C292.228496,268.697266 293.151338,268.304691 293.836888,267.519531 C294.522439,266.734371 294.865209,265.539071 294.865209,263.933594 C294.865209,260.828109 293.39452,259.275391 290.453099,259.275391 L288.589818,259.275391 L288.589818,256.621094 Z M315.554662,252.085938 C315.554662,253.363288 315.270485,254.499995 314.702123,255.496094 C314.133761,256.492192 313.36912,257.271482 312.408178,257.833984 C313.544902,258.419925 314.435518,259.260737 315.080053,260.356445 C315.724587,261.452154 316.046849,262.697259 316.046849,264.091797 C316.046849,266.294933 315.422832,268.055657 314.174779,269.374023 C312.926726,270.692389 311.271469,271.351562 309.208959,271.351562 C307.146448,271.351562 305.491192,270.692389 304.243138,269.374023 C302.995085,268.055657 302.371068,266.294933 302.371068,264.091797 C302.371068,262.68554 302.690401,261.428716 303.329076,260.321289 C303.967751,259.213862 304.83786,258.378909 305.939428,257.816406 C304.978485,257.253903 304.222633,256.477544 303.671849,255.487305 C303.121065,254.497065 302.845678,253.363288 302.845678,252.085938 C302.845678,249.929677 303.42868,248.218756 304.594701,246.953125 C305.760722,245.687494 307.298793,245.054688 309.208959,245.054688 C311.107406,245.054688 312.639617,245.681634 313.805638,246.935547 C314.97166,248.189459 315.554662,249.906239 315.554662,252.085938 Z M312.935521,264.021484 C312.935521,262.556633 312.589822,261.38184 311.898412,260.49707 C311.207002,259.6123 310.298808,259.169922 309.173803,259.169922 C308.025359,259.169922 307.120095,259.61523 306.457982,260.505859 C305.79587,261.396489 305.464818,262.568352 305.464818,264.021484 C305.464818,265.498054 305.79001,266.64648 306.440404,267.466797 C307.090798,268.287113 308.01364,268.697266 309.208959,268.697266 C310.404277,268.697266 311.32419,268.287113 311.968724,267.466797 C312.613259,266.64648 312.935521,265.498054 312.935521,264.021484 Z M312.460912,252.138672 C312.460912,250.837884 312.156227,249.777348 311.546849,248.957031 C310.937471,248.136715 310.158182,247.726562 309.208959,247.726562 C308.21286,247.726562 307.421852,248.130855 306.835912,248.939453 C306.249971,249.748051 305.957006,250.814447 305.957006,252.138672 C305.957006,253.474616 306.255831,254.535152 306.85349,255.320312 C307.451149,256.105473 308.236298,256.498047 309.208959,256.498047 C310.205058,256.498047 310.996065,256.099613 311.582006,255.302734 C312.167946,254.505855 312.460912,253.451178 312.460912,252.138672 Z M319.984349,250.328125 C319.984349,248.80468 320.397431,247.541997 321.223607,246.540039 C322.049783,245.538081 323.124968,245.037109 324.449193,245.037109 C325.7617,245.037109 326.836884,245.529292 327.674779,246.513672 C328.512674,247.498052 328.931615,248.792961 328.931615,250.398438 L328.931615,251.681641 C328.931615,253.216805 328.518533,254.476558 327.692357,255.460938 C326.866181,256.445317 325.796856,256.9375 324.484349,256.9375 C323.171843,256.9375 322.093729,256.445317 321.249974,255.460938 C320.40622,254.476558 319.984349,253.181649 319.984349,251.576172 L319.984349,250.328125 Z M322.251928,251.681641 C322.251928,252.619145 322.457004,253.377927 322.867162,253.958008 C323.27732,254.538089 323.816377,254.828125 324.484349,254.828125 C325.128884,254.828125 325.653293,254.543948 326.057592,253.975586 C326.46189,253.407224 326.664037,252.619146 326.664037,251.611328 L326.664037,250.328125 C326.664037,249.378902 326.458961,248.614261 326.048803,248.03418 C325.638644,247.454099 325.105446,247.164062 324.449193,247.164062 C323.781221,247.164062 323.248023,247.457028 322.849584,248.042969 C322.451144,248.628909 322.251928,249.408198 322.251928,250.380859 L322.251928,251.681641 Z M330.320287,264.724609 C330.320287,263.189445 330.736298,261.926763 331.568334,260.936523 C332.400369,259.946284 333.472624,259.451172 334.785131,259.451172 C336.097637,259.451172 337.175751,259.943354 338.019506,260.927734 C338.86326,261.912114 339.285131,263.218742 339.285131,264.847656 L339.285131,266.095703 C339.285131,267.642586 338.86326,268.908198 338.019506,269.892578 C337.175751,270.876958 336.109356,271.369141 334.820287,271.369141 C333.50778,271.369141 332.429666,270.876958 331.585912,269.892578 C330.742158,268.908198 330.320287,267.613289 330.320287,266.007812 L330.320287,264.724609 Z M332.587865,266.095703 C332.587865,267.044927 332.792941,267.809567 333.203099,268.389648 C333.613258,268.969729 334.152315,269.259766 334.820287,269.259766 C335.47654,269.259766 336.003879,268.9668 336.402318,268.380859 C336.800758,267.794919 336.999974,267.01563 336.999974,266.042969 L336.999974,264.724609 C336.999974,263.775386 336.794898,263.013675 336.38474,262.439453 C335.974582,261.865232 335.441384,261.578125 334.785131,261.578125 C334.140596,261.578125 333.613258,261.862302 333.203099,262.430664 C332.792941,262.999026 332.587865,263.781245 332.587865,264.777344 L332.587865,266.095703 Z M325.117162,269.066406 L323.412084,267.90625 L333.906224,247.902344 L335.628881,249.0625 L325.117162,269.066406 Z M253.442357,310.240234 L263.479467,310.240234 L263.479467,313 L250.207982,313 L250.207982,287.40625 L253.442357,287.40625 L253.442357,310.240234 Z M266.221654,302.611328 C266.221654,299.845689 266.892546,297.657235 268.234349,296.045898 C269.576153,294.434562 271.348596,293.628906 273.551732,293.628906 C275.754868,293.628906 277.527311,294.414055 278.869115,295.984375 C280.210919,297.554695 280.899388,299.693346 280.934545,302.400391 L280.934545,304.404297 C280.934545,307.158217 280.266583,309.337883 278.930638,310.943359 C277.594694,312.548836 275.813462,313.351562 273.586888,313.351562 C271.383752,313.351562 269.617169,312.572273 268.287084,311.013672 C266.956999,309.45507 266.268529,307.345716 266.221654,304.685547 L266.221654,302.611328 Z M269.332982,304.404297 C269.332982,306.361338 269.716767,307.899408 270.484349,309.018555 C271.251931,310.137701 272.286101,310.697266 273.586888,310.697266 C276.32909,310.697266 277.741185,308.716817 277.823217,304.755859 L277.823217,302.611328 C277.823217,300.666006 277.436502,299.127935 276.66306,297.99707 C275.889619,296.866205 274.85252,296.300781 273.551732,296.300781 C272.274382,296.300781 271.251931,296.866205 270.484349,297.99707 C269.716767,299.127935 269.332982,300.660147 269.332982,302.59375 L269.332982,304.404297 Z M299.127904,307.533203 L302.010717,293.980469 L305.086888,293.980469 L300.428685,313 L297.95017,313 L294.241185,299.394531 L290.620092,313 L288.123998,313 L283.500951,293.980469 L286.559545,293.980469 L289.51267,307.199219 L293.045873,293.980469 L295.50681,293.980469 L299.127904,307.533203 Z M323.192357,310.697266 C324.223612,310.697266 325.049776,310.377933 325.670873,309.739258 C326.29197,309.100583 326.63181,308.189459 326.690404,307.005859 L329.625951,307.005859 C329.555638,308.833994 328.908184,310.348627 327.683568,311.549805 C326.458953,312.750983 324.961897,313.351562 323.192357,313.351562 C320.836877,313.351562 319.040996,312.610359 317.804662,311.12793 C316.568328,309.6455 315.95017,307.439468 315.95017,304.509766 L315.95017,302.417969 C315.95017,299.546861 316.565398,297.364265 317.795873,295.870117 C319.026348,294.375969 320.819299,293.628906 323.174779,293.628906 C325.120101,293.628906 326.664031,294.244134 327.806615,295.474609 C328.949199,296.705084 329.555638,298.386708 329.625951,300.519531 L326.690404,300.519531 C326.620091,299.113274 326.283181,298.058597 325.679662,297.355469 C325.076143,296.65234 324.241191,296.300781 323.174779,296.300781 C321.79196,296.300781 320.766579,296.754878 320.098607,297.663086 C319.430635,298.571294 319.084935,300.06249 319.061498,302.136719 L319.061498,304.5625 C319.061498,306.800792 319.392549,308.382808 320.054662,309.308594 C320.716775,310.23438 321.762663,310.697266 323.192357,310.697266 Z M332.561498,302.611328 C332.561498,299.845689 333.23239,297.657235 334.574193,296.045898 C335.915997,294.434562 337.68844,293.628906 339.891576,293.628906 C342.094712,293.628906 343.867155,294.414055 345.208959,295.984375 C346.550762,297.554695 347.239232,299.693346 347.274388,302.400391 L347.274388,304.404297 C347.274388,307.158217 346.606426,309.337883 345.270482,310.943359 C343.934538,312.548836 342.153306,313.351562 339.926732,313.351562 C337.723596,313.351562 335.957012,312.572273 334.626928,311.013672 C333.296843,309.45507 332.608373,307.345716 332.561498,304.685547 L332.561498,302.611328 Z M335.672826,304.404297 C335.672826,306.361338 336.056611,307.899408 336.824193,309.018555 C337.591775,310.137701 338.625944,310.697266 339.926732,310.697266 C342.668933,310.697266 344.081029,308.716817 344.16306,304.755859 L344.16306,302.611328 C344.16306,300.666006 343.776345,299.127935 343.002904,297.99707 C342.229463,296.866205 341.192364,296.300781 339.891576,296.300781 C338.614226,296.300781 337.591775,296.866205 336.824193,297.99707 C336.056611,299.127935 335.672826,300.660147 335.672826,302.59375 L335.672826,304.404297 Z M360.528295,308.130859 C360.528295,307.462887 360.276344,306.888674 359.772435,306.408203 C359.268527,305.927732 358.29588,305.365238 356.854467,304.720703 C355.178677,304.029293 353.998025,303.437502 353.312474,302.945312 C352.626924,302.453123 352.114234,301.893558 351.774388,301.266602 C351.434543,300.639645 351.264623,299.892582 351.264623,299.025391 C351.264623,297.478508 351.830047,296.192388 352.960912,295.166992 C354.091777,294.141596 355.536098,293.628906 357.29392,293.628906 C359.145491,293.628906 360.633758,294.167963 361.758763,295.246094 C362.883769,296.324224 363.446263,297.707023 363.446263,299.394531 L360.352513,299.394531 C360.352513,298.539058 360.065407,297.809573 359.491185,297.206055 C358.916964,296.602536 358.184549,296.300781 357.29392,296.300781 C356.379853,296.300781 355.662086,296.538084 355.140599,297.012695 C354.619112,297.487307 354.358373,298.123043 354.358373,298.919922 C354.358373,299.552738 354.548801,300.062498 354.929662,300.449219 C355.310523,300.835939 356.227506,301.3457 357.680638,301.978516 C359.989244,302.880864 361.559541,303.762691 362.391576,304.624023 C363.223611,305.485356 363.639623,306.578118 363.639623,307.902344 C363.639623,309.554696 363.071269,310.875972 361.934545,311.866211 C360.79782,312.85645 359.274398,313.351562 357.364232,313.351562 C355.383754,313.351562 353.778301,312.783209 352.547826,311.646484 C351.317351,310.50976 350.702123,309.068368 350.702123,307.322266 L353.831029,307.322266 C353.866186,308.376958 354.188448,309.203122 354.797826,309.800781 C355.407204,310.39844 356.262664,310.697266 357.364232,310.697266 C358.395487,310.697266 359.180636,310.465823 359.719701,310.00293 C360.258766,309.540037 360.528295,308.91602 360.528295,308.130859 Z M371.760717,289.375 L371.760717,293.980469 L374.625951,293.980469 L374.625951,296.494141 L371.760717,296.494141 L371.760717,308.289062 C371.760717,309.039066 371.883762,309.60742 372.129857,309.994141 C372.375952,310.380861 372.797823,310.574219 373.395482,310.574219 C373.805641,310.574219 374.221652,310.503907 374.643529,310.363281 L374.608373,313 C373.905244,313.234376 373.184548,313.351562 372.446263,313.351562 C371.215789,313.351562 370.278298,312.912114 369.633763,312.033203 C368.989229,311.154292 368.666967,309.912117 368.666967,308.306641 L368.666967,296.494141 L365.766576,296.494141 L365.766576,293.980469 L368.666967,293.980469 L368.666967,289.375 L371.760717,289.375 Z" id="38%-Low-cost" fill="#FFFFFF"></path>
            <path d="M604.880834,271 L601.751928,271 L601.751928,249.326172 L596.373021,251.734375 L596.373021,248.78125 L604.388646,245.283203 L604.880834,245.283203 L604.880834,271 Z M627.064428,260.083984 C627.064428,263.857441 626.513652,266.678702 625.412084,268.547852 C624.310516,270.417002 622.582017,271.351562 620.226537,271.351562 C617.941369,271.351562 616.236308,270.455087 615.111303,268.662109 C613.986297,266.869132 613.400365,264.173846 613.35349,260.576172 L613.35349,256.181641 C613.35349,252.443341 613.907195,249.654306 615.014623,247.814453 C616.12205,245.9746 617.847619,245.054688 620.191381,245.054688 C622.499986,245.054688 624.207977,245.927726 625.315404,247.673828 C626.422832,249.419931 627.005833,252.062482 627.064428,255.601562 L627.064428,260.083984 Z M623.953099,255.636719 C623.953099,252.929674 623.654274,250.934577 623.056615,249.651367 C622.458956,248.368158 621.503887,247.726562 620.191381,247.726562 C618.914031,247.726562 617.97654,248.356439 617.378881,249.616211 C616.781221,250.875983 616.470678,252.777331 616.44724,255.320312 L616.44724,260.59375 C616.44724,263.289076 616.757784,265.31347 617.378881,266.666992 C617.999978,268.020515 618.949187,268.697266 620.226537,268.697266 C621.492168,268.697266 622.4238,268.0586 623.021459,266.78125 C623.619118,265.5039 623.929662,263.552748 623.953099,260.927734 L623.953099,255.636719 Z M630.984349,250.328125 C630.984349,248.80468 631.397431,247.541997 632.223607,246.540039 C633.049783,245.538081 634.124968,245.037109 635.449193,245.037109 C636.7617,245.037109 637.836884,245.529292 638.674779,246.513672 C639.512674,247.498052 639.931615,248.792961 639.931615,250.398438 L639.931615,251.681641 C639.931615,253.216805 639.518533,254.476558 638.692357,255.460938 C637.866181,256.445317 636.796856,256.9375 635.484349,256.9375 C634.171843,256.9375 633.093729,256.445317 632.249974,255.460938 C631.40622,254.476558 630.984349,253.181649 630.984349,251.576172 L630.984349,250.328125 Z M633.251928,251.681641 C633.251928,252.619145 633.457004,253.377927 633.867162,253.958008 C634.27732,254.538089 634.816377,254.828125 635.484349,254.828125 C636.128884,254.828125 636.653293,254.543948 637.057592,253.975586 C637.46189,253.407224 637.664037,252.619146 637.664037,251.611328 L637.664037,250.328125 C637.664037,249.378902 637.458961,248.614261 637.048803,248.03418 C636.638644,247.454099 636.105446,247.164062 635.449193,247.164062 C634.781221,247.164062 634.248023,247.457028 633.849584,248.042969 C633.451144,248.628909 633.251928,249.408198 633.251928,250.380859 L633.251928,251.681641 Z M641.320287,264.724609 C641.320287,263.189445 641.736298,261.926763 642.568334,260.936523 C643.400369,259.946284 644.472624,259.451172 645.785131,259.451172 C647.097637,259.451172 648.175751,259.943354 649.019506,260.927734 C649.86326,261.912114 650.285131,263.218742 650.285131,264.847656 L650.285131,266.095703 C650.285131,267.642586 649.86326,268.908198 649.019506,269.892578 C648.175751,270.876958 647.109356,271.369141 645.820287,271.369141 C644.50778,271.369141 643.429666,270.876958 642.585912,269.892578 C641.742158,268.908198 641.320287,267.613289 641.320287,266.007812 L641.320287,264.724609 Z M643.587865,266.095703 C643.587865,267.044927 643.792941,267.809567 644.203099,268.389648 C644.613258,268.969729 645.152315,269.259766 645.820287,269.259766 C646.47654,269.259766 647.003879,268.9668 647.402318,268.380859 C647.800758,267.794919 647.999974,267.01563 647.999974,266.042969 L647.999974,264.724609 C647.999974,263.775386 647.794898,263.013675 647.38474,262.439453 C646.974582,261.865232 646.441384,261.578125 645.785131,261.578125 C645.140596,261.578125 644.613258,261.862302 644.203099,262.430664 C643.792941,262.999026 643.587865,263.781245 643.587865,264.777344 L643.587865,266.095703 Z M636.117162,269.066406 L634.412084,267.90625 L644.906224,247.902344 L646.628881,249.0625 L636.117162,269.066406 Z M567.008763,310.240234 L577.045873,310.240234 L577.045873,313 L563.774388,313 L563.774388,287.40625 L567.008763,287.40625 L567.008763,310.240234 Z M579.78806,302.611328 C579.78806,299.845689 580.458952,297.657235 581.800756,296.045898 C583.142559,294.434562 584.915002,293.628906 587.118138,293.628906 C589.321274,293.628906 591.093718,294.414055 592.435521,295.984375 C593.777325,297.554695 594.465795,299.693346 594.500951,302.400391 L594.500951,304.404297 C594.500951,307.158217 593.832989,309.337883 592.497045,310.943359 C591.161101,312.548836 589.379868,313.351562 587.153295,313.351562 C584.950159,313.351562 583.183575,312.572273 581.85349,311.013672 C580.523405,309.45507 579.834936,307.345716 579.78806,304.685547 L579.78806,302.611328 Z M582.899388,304.404297 C582.899388,306.361338 583.283174,307.899408 584.050756,309.018555 C584.818338,310.137701 585.852507,310.697266 587.153295,310.697266 C589.895496,310.697266 591.307591,308.716817 591.389623,304.755859 L591.389623,302.611328 C591.389623,300.666006 591.002908,299.127935 590.229467,297.99707 C589.456025,296.866205 588.418926,296.300781 587.118138,296.300781 C585.840788,296.300781 584.818338,296.866205 584.050756,297.99707 C583.283174,299.127935 582.899388,300.660147 582.899388,302.59375 L582.899388,304.404297 Z M605.118138,310.697266 C606.149394,310.697266 606.975557,310.377933 607.596654,309.739258 C608.217751,309.100583 608.557591,308.189459 608.616185,307.005859 L611.551732,307.005859 C611.481419,308.833994 610.833965,310.348627 609.609349,311.549805 C608.384734,312.750983 606.887679,313.351562 605.118138,313.351562 C602.762658,313.351562 600.966777,312.610359 599.730443,311.12793 C598.494109,309.6455 597.875951,307.439468 597.875951,304.509766 L597.875951,302.417969 C597.875951,299.546861 598.491179,297.364265 599.721654,295.870117 C600.952129,294.375969 602.74508,293.628906 605.10056,293.628906 C607.045883,293.628906 608.589812,294.244134 609.732396,295.474609 C610.87498,296.705084 611.481419,298.386708 611.551732,300.519531 L608.616185,300.519531 C608.545873,299.113274 608.208962,298.058597 607.605443,297.355469 C607.001925,296.65234 606.166972,296.300781 605.10056,296.300781 C603.717741,296.300781 602.692361,296.754878 602.024388,297.663086 C601.356416,298.571294 601.010717,300.06249 600.987279,302.136719 L600.987279,304.5625 C600.987279,306.800792 601.31833,308.382808 601.980443,309.308594 C602.642556,310.23438 603.688444,310.697266 605.118138,310.697266 Z M624.928685,313 C624.741184,312.589842 624.60642,311.898442 624.524388,310.925781 C623.42282,312.542977 622.016585,313.351562 620.305638,313.351562 C618.582974,313.351562 617.23826,312.868169 616.271459,311.901367 C615.304657,310.934565 614.821263,309.572274 614.821263,307.814453 C614.821263,305.88085 615.477507,304.345709 616.790013,303.208984 C618.10252,302.07226 619.90133,301.492188 622.186498,301.46875 L624.471654,301.46875 L624.471654,299.447266 C624.471654,298.310541 624.219703,297.501956 623.715795,297.021484 C623.211886,296.541013 622.444316,296.300781 621.41306,296.300781 C620.475556,296.300781 619.713845,296.579099 619.127904,297.135742 C618.541964,297.692386 618.248998,298.398433 618.248998,299.253906 L615.13767,299.253906 C615.13767,298.281245 615.424776,297.352543 615.998998,296.467773 C616.573219,295.583003 617.346649,294.888674 618.31931,294.384766 C619.291971,293.880857 620.375945,293.628906 621.571263,293.628906 C623.516586,293.628906 624.996063,294.1123 626.00974,295.079102 C627.023417,296.045903 627.541966,297.455069 627.565404,299.306641 L627.565404,308.904297 C627.577123,310.369148 627.77634,311.64062 628.16306,312.71875 L628.16306,313 L624.928685,313 Z M620.780248,310.521484 C621.54197,310.521484 622.268526,310.310549 622.959935,309.888672 C623.651345,309.466795 624.155246,308.939456 624.471654,308.306641 L624.471654,303.771484 L622.713842,303.771484 C621.237272,303.794922 620.071268,304.125973 619.215795,304.764648 C618.360322,305.403324 617.932592,306.296869 617.932592,307.445312 C617.932592,308.523443 618.149386,309.305662 618.582982,309.791992 C619.016578,310.278323 619.748993,310.521484 620.780248,310.521484 Z M636.459935,289.375 L636.459935,293.980469 L639.32517,293.980469 L639.32517,296.494141 L636.459935,296.494141 L636.459935,308.289062 C636.459935,309.039066 636.582981,309.60742 636.829076,309.994141 C637.075171,310.380861 637.497042,310.574219 638.094701,310.574219 C638.504859,310.574219 638.920871,310.503907 639.342748,310.363281 L639.307592,313 C638.604463,313.234376 637.883767,313.351562 637.145482,313.351562 C635.915007,313.351562 634.977517,312.912114 634.332982,312.033203 C633.688448,311.154292 633.366185,309.912117 633.366185,308.306641 L633.366185,296.494141 L630.465795,296.494141 L630.465795,293.980469 L633.366185,293.980469 L633.366185,289.375 L636.459935,289.375 Z M646.373998,313 L643.26267,313 L643.26267,293.980469 L646.373998,293.980469 L646.373998,313 Z M646.620092,288.935547 C646.620092,289.462893 646.473609,289.902342 646.180638,290.253906 C645.887668,290.605471 645.44236,290.78125 644.844701,290.78125 C644.258761,290.78125 643.819312,290.605471 643.526342,290.253906 C643.233371,289.902342 643.086888,289.462893 643.086888,288.935547 C643.086888,288.4082 643.233371,287.962892 643.526342,287.599609 C643.819312,287.236326 644.258761,287.054688 644.844701,287.054688 C645.430641,287.054688 645.87302,287.239256 646.171849,287.608398 C646.470679,287.977541 646.620092,288.419919 646.620092,288.935547 Z M650.610326,302.611328 C650.610326,299.845689 651.281218,297.657235 652.623021,296.045898 C653.964825,294.434562 655.737268,293.628906 657.940404,293.628906 C660.14354,293.628906 661.915983,294.414055 663.257787,295.984375 C664.59959,297.554695 665.28806,299.693346 665.323217,302.400391 L665.323217,304.404297 C665.323217,307.158217 664.655255,309.337883 663.31931,310.943359 C661.983366,312.548836 660.202134,313.351562 657.97556,313.351562 C655.772424,313.351562 654.00584,312.572273 652.675756,311.013672 C651.345671,309.45507 650.657201,307.345716 650.610326,304.685547 L650.610326,302.611328 Z M653.721654,304.404297 C653.721654,306.361338 654.105439,307.899408 654.873021,309.018555 C655.640603,310.137701 656.674773,310.697266 657.97556,310.697266 C660.717762,310.697266 662.129857,308.716817 662.211888,304.755859 L662.211888,302.611328 C662.211888,300.666006 661.825174,299.127935 661.051732,297.99707 C660.278291,296.866205 659.241192,296.300781 657.940404,296.300781 C656.663054,296.300781 655.640603,296.866205 654.873021,297.99707 C654.105439,299.127935 653.721654,300.660147 653.721654,302.59375 L653.721654,304.404297 Z M672.266576,293.980469 L672.354467,296.037109 C673.561504,294.431633 675.102504,293.628906 676.977513,293.628906 C680.340812,293.628906 682.045873,295.873024 682.092748,300.361328 L682.092748,313 L678.998998,313 L678.998998,300.501953 C678.998998,299.013664 678.749977,297.956058 678.251928,297.329102 C677.753878,296.702145 677.006815,296.388672 676.010717,296.388672 C675.237275,296.388672 674.542946,296.646482 673.927709,297.162109 C673.312471,297.677737 672.817359,298.351558 672.442357,299.183594 L672.442357,313 L669.331029,313 L669.331029,293.980469 L672.266576,293.980469 Z" id="10%-Location" fill="#FFFFFF"></path>
            <path d="M796.880834,271 L793.751928,271 L793.751928,249.326172 L788.373021,251.734375 L788.373021,248.78125 L796.388646,245.283203 L796.880834,245.283203 L796.880834,271 Z M815.619115,260.066406 C814.376921,261.648445 812.923811,262.439453 811.25974,262.439453 C809.396449,262.439453 807.914042,261.654305 806.812474,260.083984 C805.710906,258.513664 805.160131,256.457044 805.160131,253.914062 C805.160131,251.242174 805.760711,249.097664 806.961888,247.480469 C808.163066,245.863273 809.800745,245.054688 811.874974,245.054688 C814.031235,245.054688 815.715789,245.989248 816.928685,247.858398 C818.141582,249.727548 818.748021,252.314437 818.748021,255.619141 L818.748021,256.585938 C818.748021,259.421889 818.534156,261.718741 818.10642,263.476562 C817.678683,265.234384 817.048807,266.652338 816.216771,267.730469 C815.384736,268.808599 814.3242,269.625974 813.035131,270.182617 C811.746062,270.739261 810.13475,271.017578 808.201146,271.017578 L808.201146,268.275391 L808.746068,268.275391 C810.949204,268.228515 812.622039,267.557624 813.764623,266.262695 C814.907207,264.967767 815.525365,262.902358 815.619115,260.066406 Z M811.787084,259.75 C812.537088,259.75 813.269502,259.436527 813.984349,258.80957 C814.699197,258.182614 815.255832,257.35938 815.654271,256.339844 L815.654271,254.96875 C815.654271,252.847646 815.285134,251.116218 814.546849,249.774414 C813.808564,248.43261 812.917948,247.761719 811.874974,247.761719 C810.749969,247.761719 809.856423,248.315424 809.19431,249.422852 C808.532198,250.530279 808.201146,251.968741 808.201146,253.738281 C808.201146,255.507821 808.523409,256.952143 809.167943,258.071289 C809.812478,259.190435 810.685516,259.75 811.787084,259.75 Z M822.984349,250.328125 C822.984349,248.80468 823.397431,247.541997 824.223607,246.540039 C825.049783,245.538081 826.124968,245.037109 827.449193,245.037109 C828.7617,245.037109 829.836884,245.529292 830.674779,246.513672 C831.512674,247.498052 831.931615,248.792961 831.931615,250.398438 L831.931615,251.681641 C831.931615,253.216805 831.518533,254.476558 830.692357,255.460938 C829.866181,256.445317 828.796856,256.9375 827.484349,256.9375 C826.171843,256.9375 825.093729,256.445317 824.249974,255.460938 C823.40622,254.476558 822.984349,253.181649 822.984349,251.576172 L822.984349,250.328125 Z M825.251928,251.681641 C825.251928,252.619145 825.457004,253.377927 825.867162,253.958008 C826.27732,254.538089 826.816377,254.828125 827.484349,254.828125 C828.128884,254.828125 828.653293,254.543948 829.057592,253.975586 C829.46189,253.407224 829.664037,252.619146 829.664037,251.611328 L829.664037,250.328125 C829.664037,249.378902 829.458961,248.614261 829.048803,248.03418 C828.638644,247.454099 828.105446,247.164062 827.449193,247.164062 C826.781221,247.164062 826.248023,247.457028 825.849584,248.042969 C825.451144,248.628909 825.251928,249.408198 825.251928,250.380859 L825.251928,251.681641 Z M833.320287,264.724609 C833.320287,263.189445 833.736298,261.926763 834.568334,260.936523 C835.400369,259.946284 836.472624,259.451172 837.785131,259.451172 C839.097637,259.451172 840.175751,259.943354 841.019506,260.927734 C841.86326,261.912114 842.285131,263.218742 842.285131,264.847656 L842.285131,266.095703 C842.285131,267.642586 841.86326,268.908198 841.019506,269.892578 C840.175751,270.876958 839.109356,271.369141 837.820287,271.369141 C836.50778,271.369141 835.429666,270.876958 834.585912,269.892578 C833.742158,268.908198 833.320287,267.613289 833.320287,266.007812 L833.320287,264.724609 Z M835.587865,266.095703 C835.587865,267.044927 835.792941,267.809567 836.203099,268.389648 C836.613258,268.969729 837.152315,269.259766 837.820287,269.259766 C838.47654,269.259766 839.003879,268.9668 839.402318,268.380859 C839.800758,267.794919 839.999974,267.01563 839.999974,266.042969 L839.999974,264.724609 C839.999974,263.775386 839.794898,263.013675 839.38474,262.439453 C838.974582,261.865232 838.441384,261.578125 837.785131,261.578125 C837.140596,261.578125 836.613258,261.862302 836.203099,262.430664 C835.792941,262.999026 835.587865,263.781245 835.587865,264.777344 L835.587865,266.095703 Z M828.117162,269.066406 L826.412084,267.90625 L836.906224,247.902344 L838.628881,249.0625 L828.117162,269.066406 Z M725.85642,313 L725.85642,287.40625 L731.956029,287.40625 C734.944325,287.40625 737.264615,288.340811 738.916967,290.209961 C740.569319,292.079111 741.395482,294.707014 741.395482,298.09375 L741.395482,302.382812 C741.395482,305.769548 740.5576,308.385733 738.88181,310.231445 C737.206021,312.077158 734.774404,313 731.586888,313 L725.85642,313 Z M729.073217,290.183594 L729.073217,310.240234 L731.657201,310.240234 C733.918931,310.240234 735.571258,309.59278 736.614232,308.297852 C737.657206,307.002923 738.190404,305.083997 738.213842,302.541016 L738.213842,298.005859 C738.213842,295.310533 737.695292,293.333014 736.658178,292.073242 C735.621063,290.81347 734.053696,290.183594 731.956029,290.183594 L729.073217,290.183594 Z M752.768529,313.351562 C750.40133,313.351562 748.584942,312.645515 747.31931,311.233398 C746.053679,309.821282 745.409154,307.750014 745.385717,305.019531 L745.385717,302.716797 C745.385717,299.880845 746.003874,297.657235 747.240209,296.045898 C748.476543,294.434562 750.202112,293.628906 752.416967,293.628906 C754.64354,293.628906 756.307586,294.337884 757.409154,295.755859 C758.510722,297.173835 759.073216,299.382797 759.096654,302.382812 L759.096654,304.421875 L748.479467,304.421875 L748.479467,304.861328 C748.479467,306.900401 748.863252,308.382808 749.630834,309.308594 C750.398416,310.23438 751.502897,310.697266 752.94431,310.697266 C753.858377,310.697266 754.664033,310.524416 755.361303,310.178711 C756.058572,309.833006 756.711885,309.28516 757.321263,308.535156 L758.938451,310.503906 C757.590788,312.402353 755.534168,313.351562 752.768529,313.351562 Z M752.416967,296.300781 C751.127898,296.300781 750.172829,296.74316 749.551732,297.62793 C748.930635,298.5127 748.579076,299.886709 748.497045,301.75 L755.985326,301.75 L755.985326,301.328125 C755.903294,299.523428 755.578102,298.234379 755.00974,297.460938 C754.441378,296.687496 753.577129,296.300781 752.416967,296.300781 Z M766.180638,313 L763.06931,313 L763.06931,286 L766.180638,286 L766.180638,313 Z M774.424779,313 L771.313451,313 L771.313451,293.980469 L774.424779,293.980469 L774.424779,313 Z M774.670873,288.935547 C774.670873,289.462893 774.52439,289.902342 774.23142,290.253906 C773.93845,290.605471 773.493141,290.78125 772.895482,290.78125 C772.309542,290.78125 771.870093,290.605471 771.577123,290.253906 C771.284153,289.902342 771.13767,289.462893 771.13767,288.935547 C771.13767,288.4082 771.284153,287.962892 771.577123,287.599609 C771.870093,287.236326 772.309542,287.054688 772.895482,287.054688 C773.481423,287.054688 773.923801,287.239256 774.222631,287.608398 C774.52146,287.977541 774.670873,288.419919 774.670873,288.935547 Z M784.707982,308.271484 L788.311498,293.980469 L791.47556,293.980469 L785.832982,313 L783.51267,313 L777.799779,293.980469 L780.963842,293.980469 L784.707982,308.271484 Z M801.284154,313.351562 C798.916955,313.351562 797.100567,312.645515 795.834935,311.233398 C794.569304,309.821282 793.924779,307.750014 793.901342,305.019531 L793.901342,302.716797 C793.901342,299.880845 794.519499,297.657235 795.755834,296.045898 C796.992168,294.434562 798.717737,293.628906 800.932592,293.628906 C803.159165,293.628906 804.823211,294.337884 805.924779,295.755859 C807.026347,297.173835 807.588841,299.382797 807.612279,302.382812 L807.612279,304.421875 L796.995092,304.421875 L796.995092,304.861328 C796.995092,306.900401 797.378877,308.382808 798.146459,309.308594 C798.914041,310.23438 800.018522,310.697266 801.459935,310.697266 C802.374002,310.697266 803.179658,310.524416 803.876928,310.178711 C804.574197,309.833006 805.22751,309.28516 805.836888,308.535156 L807.454076,310.503906 C806.106413,312.402353 804.049793,313.351562 801.284154,313.351562 Z M800.932592,296.300781 C799.643523,296.300781 798.688454,296.74316 798.067357,297.62793 C797.44626,298.5127 797.094701,299.886709 797.01267,301.75 L804.500951,301.75 L804.500951,301.328125 C804.418919,299.523428 804.093727,298.234379 803.525365,297.460938 C802.957003,296.687496 802.092754,296.300781 800.932592,296.300781 Z M819.196263,296.898438 C818.762668,296.816406 818.293922,296.775391 817.790013,296.775391 C816.196256,296.775391 815.082985,297.648429 814.45017,299.394531 L814.45017,313 L811.338842,313 L811.338842,293.980469 L814.362279,293.980469 L814.415013,295.914062 C815.247049,294.390617 816.424771,293.628906 817.948217,293.628906 C818.440407,293.628906 818.850559,293.710937 819.178685,293.875 L819.196263,296.898438 Z M827.809545,307.832031 L831.272435,293.980469 L834.577123,293.980469 L828.354467,315.689453 C827.885714,317.318368 827.223612,318.557613 826.368138,319.407227 C825.512665,320.25684 824.540019,320.681641 823.45017,320.681641 C823.028293,320.681641 822.489236,320.587892 821.832982,320.400391 L821.832982,317.763672 L822.518529,317.833984 C823.420877,317.833984 824.126925,317.620119 824.636693,317.192383 C825.146461,316.764646 825.559543,316.023443 825.875951,314.96875 L826.491185,312.841797 L820.901342,293.980469 L824.29392,293.980469 L827.809545,307.832031 Z M849.922826,289.375 L849.922826,293.980469 L852.78806,293.980469 L852.78806,296.494141 L849.922826,296.494141 L849.922826,308.289062 C849.922826,309.039066 850.045872,309.60742 850.291967,309.994141 C850.538062,310.380861 850.959932,310.574219 851.557592,310.574219 C851.96775,310.574219 852.383761,310.503907 852.805638,310.363281 L852.770482,313 C852.067354,313.234376 851.346658,313.351562 850.608373,313.351562 C849.377898,313.351562 848.440407,312.912114 847.795873,312.033203 C847.151338,311.154292 846.829076,309.912117 846.829076,308.306641 L846.829076,296.494141 L843.928685,296.494141 L843.928685,293.980469 L846.829076,293.980469 L846.829076,289.375 L849.922826,289.375 Z M859.836888,313 L856.72556,313 L856.72556,293.980469 L859.836888,293.980469 L859.836888,313 Z M860.082982,288.935547 C860.082982,289.462893 859.936499,289.902342 859.643529,290.253906 C859.350559,290.605471 858.905251,290.78125 858.307592,290.78125 C857.721651,290.78125 857.282202,290.605471 856.989232,290.253906 C856.696262,289.902342 856.549779,289.462893 856.549779,288.935547 C856.549779,288.4082 856.696262,287.962892 856.989232,287.599609 C857.282202,287.236326 857.721651,287.054688 858.307592,287.054688 C858.893532,287.054688 859.33591,287.239256 859.63474,287.608398 C859.93357,287.977541 860.082982,288.419919 860.082982,288.935547 Z M867.659154,293.980469 L867.729467,295.738281 C868.889629,294.332024 870.41891,293.628906 872.317357,293.628906 C874.438462,293.628906 875.920869,294.548819 876.764623,296.388672 C877.959941,294.548819 879.623987,293.628906 881.75681,293.628906 C885.260734,293.628906 887.053685,295.814431 887.135717,300.185547 L887.135717,313 L884.041967,313 L884.041967,300.484375 C884.041967,299.101556 883.795875,298.073246 883.303685,297.399414 C882.811495,296.725583 881.979472,296.388672 880.807592,296.388672 C879.870087,296.388672 879.108376,296.751949 878.522435,297.478516 C877.936495,298.205082 877.596655,299.130854 877.502904,300.255859 L877.502904,313 L874.373998,313 L874.373998,300.34375 C874.338841,297.707018 873.266587,296.388672 871.157201,296.388672 C869.586881,296.388672 868.47947,297.17382 867.834935,298.744141 L867.834935,313 L864.741185,313 L864.741185,293.980469 L867.659154,293.980469 Z M898.614232,313.351562 C896.247033,313.351562 894.430645,312.645515 893.165013,311.233398 C891.899382,309.821282 891.254857,307.750014 891.23142,305.019531 L891.23142,302.716797 C891.23142,299.880845 891.849578,297.657235 893.085912,296.045898 C894.322246,294.434562 896.047815,293.628906 898.26267,293.628906 C900.489243,293.628906 902.153289,294.337884 903.254857,295.755859 C904.356425,297.173835 904.91892,299.382797 904.942357,302.382812 L904.942357,304.421875 L894.32517,304.421875 L894.32517,304.861328 C894.32517,306.900401 894.708955,308.382808 895.476537,309.308594 C896.244119,310.23438 897.3486,310.697266 898.790013,310.697266 C899.704081,310.697266 900.509737,310.524416 901.207006,310.178711 C901.904275,309.833006 902.557589,309.28516 903.166967,308.535156 L904.784154,310.503906 C903.436491,312.402353 901.379871,313.351562 898.614232,313.351562 Z M898.26267,296.300781 C896.973601,296.300781 896.018532,296.74316 895.397435,297.62793 C894.776338,298.5127 894.42478,299.886709 894.342748,301.75 L901.831029,301.75 L901.831029,301.328125 C901.748997,299.523428 901.423805,298.234379 900.855443,297.460938 C900.287081,296.687496 899.422832,296.300781 898.26267,296.300781 Z" id="19%-Delivery-time" fill="#FFFFFF"></path>
            <path d="M1094.92576,271 L1080.61716,271 L1080.61716,268.662109 L1087.91208,258.994141 C1089.01365,257.505852 1089.77829,256.284184 1090.20603,255.329102 C1090.63377,254.374019 1090.84763,253.363287 1090.84763,252.296875 C1090.84763,250.937493 1090.53123,249.835942 1089.89841,248.992188 C1089.2656,248.148433 1088.43357,247.726562 1087.40232,247.726562 C1086.10153,247.726562 1085.09666,248.1748 1084.38767,249.071289 C1083.67868,249.967778 1083.32419,251.259757 1083.32419,252.947266 L1080.21287,252.947266 C1080.21287,250.591785 1080.85739,248.687507 1082.14646,247.234375 C1083.43553,245.781243 1085.18746,245.054688 1087.40232,245.054688 C1089.44139,245.054688 1091.04684,245.678705 1092.21872,246.926758 C1093.39061,248.174811 1093.97654,249.835927 1093.97654,251.910156 C1093.97654,254.441419 1092.65819,257.43553 1090.02146,260.892578 L1084.32615,268.345703 L1094.92576,268.345703 L1094.92576,271 Z M1109.21677,245.388672 L1109.21677,248.148438 L1108.70701,248.148438 C1106.63278,248.195313 1105.00975,248.895501 1103.83787,250.249023 C1102.66598,251.602546 1101.99216,253.638658 1101.81638,256.357422 C1102.95311,254.927727 1104.40622,254.212891 1106.17576,254.212891 C1108.06248,254.212891 1109.55954,254.98925 1110.66697,256.541992 C1111.77439,258.094734 1112.3281,260.130847 1112.3281,262.650391 C1112.3281,265.333998 1111.7158,267.45507 1110.49119,269.013672 C1109.26657,270.572273 1107.62303,271.351562 1105.56052,271.351562 C1103.48629,271.351562 1101.81639,270.43165 1100.55076,268.591797 C1099.28512,266.751944 1098.65232,264.308609 1098.65232,261.261719 L1098.65232,260.013672 C1098.65232,256.498029 1099.03317,253.697276 1099.7949,251.611328 C1100.55662,249.52538 1101.67868,247.975591 1103.16111,246.961914 C1104.64354,245.948237 1106.48629,245.423828 1108.68943,245.388672 L1109.21677,245.388672 Z M1105.64841,256.919922 C1104.80466,256.919922 1104.02537,257.242184 1103.31052,257.886719 C1102.59567,258.531253 1102.08005,259.351558 1101.76365,260.347656 L1101.76365,261.630859 C1101.76365,263.705088 1102.12985,265.395501 1102.86228,266.702148 C1103.5947,268.008796 1104.49411,268.662109 1105.56052,268.662109 C1106.72068,268.662109 1107.62888,268.125982 1108.28513,267.053711 C1108.94138,265.98144 1109.26951,264.566415 1109.26951,262.808594 C1109.26951,261.07421 1108.94138,259.659185 1108.28513,258.563477 C1107.62888,257.467768 1106.74998,256.919922 1105.64841,256.919922 Z M1115.98435,250.328125 C1115.98435,248.80468 1116.39743,247.541997 1117.22361,246.540039 C1118.04978,245.538081 1119.12497,245.037109 1120.44919,245.037109 C1121.7617,245.037109 1122.83688,245.529292 1123.67478,246.513672 C1124.51267,247.498052 1124.93162,248.792961 1124.93162,250.398438 L1124.93162,251.681641 C1124.93162,253.216805 1124.51853,254.476558 1123.69236,255.460938 C1122.86618,256.445317 1121.79686,256.9375 1120.48435,256.9375 C1119.17184,256.9375 1118.09373,256.445317 1117.24997,255.460938 C1116.40622,254.476558 1115.98435,253.181649 1115.98435,251.576172 L1115.98435,250.328125 Z M1118.25193,251.681641 C1118.25193,252.619145 1118.457,253.377927 1118.86716,253.958008 C1119.27732,254.538089 1119.81638,254.828125 1120.48435,254.828125 C1121.12888,254.828125 1121.65329,254.543948 1122.05759,253.975586 C1122.46189,253.407224 1122.66404,252.619146 1122.66404,251.611328 L1122.66404,250.328125 C1122.66404,249.378902 1122.45896,248.614261 1122.0488,248.03418 C1121.63864,247.454099 1121.10545,247.164062 1120.44919,247.164062 C1119.78122,247.164062 1119.24802,247.457028 1118.84958,248.042969 C1118.45114,248.628909 1118.25193,249.408198 1118.25193,250.380859 L1118.25193,251.681641 Z M1126.32029,264.724609 C1126.32029,263.189445 1126.7363,261.926763 1127.56833,260.936523 C1128.40037,259.946284 1129.47262,259.451172 1130.78513,259.451172 C1132.09764,259.451172 1133.17575,259.943354 1134.01951,260.927734 C1134.86326,261.912114 1135.28513,263.218742 1135.28513,264.847656 L1135.28513,266.095703 C1135.28513,267.642586 1134.86326,268.908198 1134.01951,269.892578 C1133.17575,270.876958 1132.10936,271.369141 1130.82029,271.369141 C1129.50778,271.369141 1128.42967,270.876958 1127.58591,269.892578 C1126.74216,268.908198 1126.32029,267.613289 1126.32029,266.007812 L1126.32029,264.724609 Z M1128.58787,266.095703 C1128.58787,267.044927 1128.79294,267.809567 1129.2031,268.389648 C1129.61326,268.969729 1130.15231,269.259766 1130.82029,269.259766 C1131.47654,269.259766 1132.00388,268.9668 1132.40232,268.380859 C1132.80076,267.794919 1132.99997,267.01563 1132.99997,266.042969 L1132.99997,264.724609 C1132.99997,263.775386 1132.7949,263.013675 1132.38474,262.439453 C1131.97458,261.865232 1131.44138,261.578125 1130.78513,261.578125 C1130.1406,261.578125 1129.61326,261.862302 1129.2031,262.430664 C1128.79294,262.999026 1128.58787,263.781245 1128.58787,264.777344 L1128.58787,266.095703 Z M1121.11716,269.066406 L1119.41208,267.90625 L1129.90622,247.902344 L1131.62888,249.0625 L1121.11716,269.066406 Z M985.721654,302.646484 L981.221654,302.646484 L981.221654,313 L977.987279,313 L977.987279,287.40625 L985.159154,287.40625 C987.666979,287.40625 989.565398,288.059564 990.854467,289.366211 C992.143536,290.672858 992.78806,292.585925 992.78806,295.105469 C992.78806,296.687508 992.439431,298.067377 991.742162,299.245117 C991.044893,300.422857 990.057598,301.310544 988.780248,301.908203 L993.737279,312.789062 L993.737279,313 L990.274388,313 L985.721654,302.646484 Z M981.221654,299.886719 L985.123998,299.886719 C986.471661,299.886719 987.546845,299.453129 988.349584,298.585938 C989.152322,297.718746 989.553685,296.558601 989.553685,295.105469 C989.553685,291.824202 988.065419,290.183594 985.088842,290.183594 L981.221654,290.183594 L981.221654,299.886719 Z M1003.45798,313.351562 C1001.09078,313.351562 999.274395,312.645515 998.008763,311.233398 C996.743132,309.821282 996.098607,307.750014 996.07517,305.019531 L996.07517,302.716797 C996.07517,299.880845 996.693328,297.657235 997.929662,296.045898 C999.165996,294.434562 1000.89156,293.628906 1003.10642,293.628906 C1005.33299,293.628906 1006.99704,294.337884 1008.09861,295.755859 C1009.20018,297.173835 1009.76267,299.382797 1009.78611,302.382812 L1009.78611,304.421875 L999.16892,304.421875 L999.16892,304.861328 C999.16892,306.900401 999.552705,308.382808 1000.32029,309.308594 C1001.08787,310.23438 1002.19235,310.697266 1003.63376,310.697266 C1004.54783,310.697266 1005.35349,310.524416 1006.05076,310.178711 C1006.74802,309.833006 1007.40134,309.28516 1008.01072,308.535156 L1009.6279,310.503906 C1008.28024,312.402353 1006.22362,313.351562 1003.45798,313.351562 Z M1003.10642,296.300781 C1001.81735,296.300781 1000.86228,296.74316 1000.24119,297.62793 C999.620088,298.5127 999.26853,299.886709 999.186498,301.75 L1006.67478,301.75 L1006.67478,301.328125 C1006.59275,299.523428 1006.26756,298.234379 1005.69919,297.460938 C1005.13083,296.687496 1004.26658,296.300781 1003.10642,296.300781 Z M1020.12204,310.697266 C1021.1533,310.697266 1021.97946,310.377933 1022.60056,309.739258 C1023.22166,309.100583 1023.5615,308.189459 1023.62009,307.005859 L1026.55564,307.005859 C1026.48533,308.833994 1025.83787,310.348627 1024.61326,311.549805 C1023.38864,312.750983 1021.89158,313.351562 1020.12204,313.351562 C1017.76656,313.351562 1015.97068,312.610359 1014.73435,311.12793 C1013.49802,309.6455 1012.87986,307.439468 1012.87986,304.509766 L1012.87986,302.417969 C1012.87986,299.546861 1013.49509,297.364265 1014.72556,295.870117 C1015.95604,294.375969 1017.74899,293.628906 1020.10447,293.628906 C1022.04979,293.628906 1023.59372,294.244134 1024.7363,295.474609 C1025.87889,296.705084 1026.48533,298.386708 1026.55564,300.519531 L1023.62009,300.519531 C1023.54978,299.113274 1023.21287,298.058597 1022.60935,297.355469 C1022.00583,296.65234 1021.17088,296.300781 1020.10447,296.300781 C1018.72165,296.300781 1017.69627,296.754878 1017.02829,297.663086 C1016.36032,298.571294 1016.01462,300.06249 1015.99119,302.136719 L1015.99119,304.5625 C1015.99119,306.800792 1016.32224,308.382808 1016.98435,309.308594 C1017.64646,310.23438 1018.69235,310.697266 1020.12204,310.697266 Z M1029.49119,302.611328 C1029.49119,299.845689 1030.16208,297.657235 1031.50388,296.045898 C1032.84568,294.434562 1034.61813,293.628906 1036.82126,293.628906 C1039.0244,293.628906 1040.79684,294.414055 1042.13865,295.984375 C1043.48045,297.554695 1044.16892,299.693346 1044.20408,302.400391 L1044.20408,304.404297 C1044.20408,307.158217 1043.53611,309.337883 1042.20017,310.943359 C1040.86423,312.548836 1039.08299,313.351562 1036.85642,313.351562 C1034.65328,313.351562 1032.8867,312.572273 1031.55662,311.013672 C1030.22653,309.45507 1029.53806,307.345716 1029.49119,304.685547 L1029.49119,302.611328 Z M1032.60251,304.404297 C1032.60251,306.361338 1032.9863,307.899408 1033.75388,309.018555 C1034.52146,310.137701 1035.55563,310.697266 1036.85642,310.697266 C1039.59862,310.697266 1041.01072,308.716817 1041.09275,304.755859 L1041.09275,302.611328 C1041.09275,300.666006 1040.70603,299.127935 1039.93259,297.99707 C1039.15915,296.866205 1038.12205,296.300781 1036.82126,296.300781 C1035.54391,296.300781 1034.52146,296.866205 1033.75388,297.99707 C1032.9863,299.127935 1032.60251,300.660147 1032.60251,302.59375 L1032.60251,304.404297 Z M1051.14744,293.980469 L1051.21775,295.738281 C1052.37791,294.332024 1053.90719,293.628906 1055.80564,293.628906 C1057.92674,293.628906 1059.40915,294.548819 1060.2529,296.388672 C1061.44822,294.548819 1063.11227,293.628906 1065.24509,293.628906 C1068.74902,293.628906 1070.54197,295.814431 1070.624,300.185547 L1070.624,313 L1067.53025,313 L1067.53025,300.484375 C1067.53025,299.101556 1067.28416,298.073246 1066.79197,297.399414 C1066.29978,296.725583 1065.46775,296.388672 1064.29587,296.388672 C1063.35837,296.388672 1062.59666,296.751949 1062.01072,297.478516 C1061.42478,298.205082 1061.08494,299.130854 1060.99119,300.255859 L1060.99119,313 L1057.86228,313 L1057.86228,300.34375 C1057.82712,297.707018 1056.75487,296.388672 1054.64548,296.388672 C1053.07516,296.388672 1051.96775,297.17382 1051.32322,298.744141 L1051.32322,313 L1048.22947,313 L1048.22947,293.980469 L1051.14744,293.980469 Z M1078.23533,293.980469 L1078.30564,295.738281 C1079.4658,294.332024 1080.99508,293.628906 1082.89353,293.628906 C1085.01463,293.628906 1086.49704,294.548819 1087.34079,296.388672 C1088.53611,294.548819 1090.20016,293.628906 1092.33298,293.628906 C1095.83691,293.628906 1097.62986,295.814431 1097.71189,300.185547 L1097.71189,313 L1094.61814,313 L1094.61814,300.484375 C1094.61814,299.101556 1094.37205,298.073246 1093.87986,297.399414 C1093.38767,296.725583 1092.55564,296.388672 1091.38376,296.388672 C1090.44626,296.388672 1089.68455,296.751949 1089.09861,297.478516 C1088.51267,298.205082 1088.17283,299.130854 1088.07908,300.255859 L1088.07908,313 L1084.95017,313 L1084.95017,300.34375 C1084.91501,297.707018 1083.84276,296.388672 1081.73337,296.388672 C1080.16305,296.388672 1079.05564,297.17382 1078.41111,298.744141 L1078.41111,313 L1075.31736,313 L1075.31736,293.980469 L1078.23533,293.980469 Z M1109.1904,313.351562 C1106.8232,313.351562 1105.00682,312.645515 1103.74119,311.233398 C1102.47555,309.821282 1101.83103,307.750014 1101.80759,305.019531 L1101.80759,302.716797 C1101.80759,299.880845 1102.42575,297.657235 1103.66208,296.045898 C1104.89842,294.434562 1106.62399,293.628906 1108.83884,293.628906 C1111.06542,293.628906 1112.72946,294.337884 1113.83103,295.755859 C1114.9326,297.173835 1115.49509,299.382797 1115.51853,302.382812 L1115.51853,304.421875 L1104.90134,304.421875 L1104.90134,304.861328 C1104.90134,306.900401 1105.28513,308.382808 1106.05271,309.308594 C1106.82029,310.23438 1107.92477,310.697266 1109.36619,310.697266 C1110.28025,310.697266 1111.08591,310.524416 1111.78318,310.178711 C1112.48045,309.833006 1113.13376,309.28516 1113.74314,308.535156 L1115.36033,310.503906 C1114.01266,312.402353 1111.95604,313.351562 1109.1904,313.351562 Z M1108.83884,296.300781 C1107.54977,296.300781 1106.5947,296.74316 1105.97361,297.62793 C1105.35251,298.5127 1105.00095,299.886709 1104.91892,301.75 L1112.4072,301.75 L1112.4072,301.328125 C1112.32517,299.523428 1111.99998,298.234379 1111.43162,297.460938 C1110.86325,296.687496 1109.999,296.300781 1108.83884,296.300781 Z M1122.18064,293.980469 L1122.26853,296.037109 C1123.47557,294.431633 1125.01657,293.628906 1126.89158,293.628906 C1130.25487,293.628906 1131.95994,295.873024 1132.00681,300.361328 L1132.00681,313 L1128.91306,313 L1128.91306,300.501953 C1128.91306,299.013664 1128.66404,297.956058 1128.16599,297.329102 C1127.66794,296.702145 1126.92088,296.388672 1125.92478,296.388672 C1125.15134,296.388672 1124.45701,296.646482 1123.84177,297.162109 C1123.22653,297.677737 1122.73142,298.351558 1122.35642,299.183594 L1122.35642,313 L1119.24509,313 L1119.24509,293.980469 L1122.18064,293.980469 Z M1136.01462,302.628906 C1136.01462,299.699204 1136.56247,297.466805 1137.65818,295.931641 C1138.75389,294.396477 1140.32711,293.628906 1142.3779,293.628906 C1144.19432,293.628906 1145.61227,294.36718 1146.63181,295.84375 L1146.63181,286 L1149.74314,286 L1149.74314,313 L1146.89548,313 L1146.73728,310.960938 C1145.71774,312.554695 1144.25877,313.351562 1142.36033,313.351562 C1140.39157,313.351562 1138.84764,312.586922 1137.72849,311.057617 C1136.60934,309.528313 1136.03806,307.369155 1136.01462,304.580078 L1136.01462,302.628906 Z M1139.12595,304.404297 C1139.12595,306.53712 1139.44235,308.104487 1140.07517,309.106445 C1140.70799,310.108403 1141.73923,310.609375 1143.16892,310.609375 C1144.7158,310.609375 1145.87009,309.830086 1146.63181,308.271484 L1146.63181,298.673828 C1145.83493,297.150383 1144.68651,296.388672 1143.1865,296.388672 C1141.7568,296.388672 1140.72556,296.889643 1140.09275,297.891602 C1139.45993,298.89356 1139.13767,300.43163 1139.12595,302.505859 L1139.12595,304.404297 Z M1164.3154,313 C1164.1279,312.589842 1163.99314,311.898442 1163.91111,310.925781 C1162.80954,312.542977 1161.4033,313.351562 1159.69236,313.351562 C1157.96969,313.351562 1156.62498,312.868169 1155.65818,311.901367 C1154.69138,310.934565 1154.20798,309.572274 1154.20798,307.814453 C1154.20798,305.88085 1154.86423,304.345709 1156.17673,303.208984 C1157.48924,302.07226 1159.28805,301.492188 1161.57322,301.46875 L1163.85837,301.46875 L1163.85837,299.447266 C1163.85837,298.310541 1163.60642,297.501956 1163.10251,297.021484 C1162.5986,296.541013 1161.83103,296.300781 1160.79978,296.300781 C1159.86227,296.300781 1159.10056,296.579099 1158.51462,297.135742 C1157.92868,297.692386 1157.63572,298.398433 1157.63572,299.253906 L1154.52439,299.253906 C1154.52439,298.281245 1154.81149,297.352543 1155.38572,296.467773 C1155.95994,295.583003 1156.73337,294.888674 1157.70603,294.384766 C1158.67869,293.880857 1159.76266,293.628906 1160.95798,293.628906 C1162.9033,293.628906 1164.38278,294.1123 1165.39646,295.079102 C1166.41014,296.045903 1166.92869,297.455069 1166.95212,299.306641 L1166.95212,308.904297 C1166.96384,310.369148 1167.16306,311.64062 1167.54978,312.71875 L1167.54978,313 L1164.3154,313 Z M1160.16697,310.521484 C1160.92869,310.521484 1161.65524,310.310549 1162.34665,309.888672 C1163.03806,309.466795 1163.54197,308.939456 1163.85837,308.306641 L1163.85837,303.771484 L1162.10056,303.771484 C1160.62399,303.794922 1159.45799,304.125973 1158.60251,304.764648 C1157.74704,305.403324 1157.31931,306.296869 1157.31931,307.445312 C1157.31931,308.523443 1157.53611,309.305662 1157.9697,309.791992 C1158.4033,310.278323 1159.13571,310.521484 1160.16697,310.521484 Z M1175.84665,289.375 L1175.84665,293.980469 L1178.71189,293.980469 L1178.71189,296.494141 L1175.84665,296.494141 L1175.84665,308.289062 C1175.84665,309.039066 1175.9697,309.60742 1176.21579,309.994141 C1176.46189,310.380861 1176.88376,310.574219 1177.48142,310.574219 C1177.89158,310.574219 1178.30759,310.503907 1178.72947,310.363281 L1178.69431,313 C1177.99118,313.234376 1177.27049,313.351562 1176.5322,313.351562 C1175.30173,313.351562 1174.36424,312.912114 1173.7197,312.033203 C1173.07517,311.154292 1172.7529,309.912117 1172.7529,308.306641 L1172.7529,296.494141 L1169.85251,296.494141 L1169.85251,293.980469 L1172.7529,293.980469 L1172.7529,289.375 L1175.84665,289.375 Z M1185.76072,313 L1182.64939,313 L1182.64939,293.980469 L1185.76072,293.980469 L1185.76072,313 Z M1186.00681,288.935547 C1186.00681,289.462893 1185.86033,289.902342 1185.56736,290.253906 C1185.27439,290.605471 1184.82908,290.78125 1184.23142,290.78125 C1183.64548,290.78125 1183.20603,290.605471 1182.91306,290.253906 C1182.62009,289.902342 1182.47361,289.462893 1182.47361,288.935547 C1182.47361,288.4082 1182.62009,287.962892 1182.91306,287.599609 C1183.20603,287.236326 1183.64548,287.054688 1184.23142,287.054688 C1184.81736,287.054688 1185.25974,287.239256 1185.55857,287.608398 C1185.8574,287.977541 1186.00681,288.419919 1186.00681,288.935547 Z M1189.99704,302.611328 C1189.99704,299.845689 1190.66794,297.657235 1192.00974,296.045898 C1193.35154,294.434562 1195.12399,293.628906 1197.32712,293.628906 C1199.53026,293.628906 1201.3027,294.414055 1202.64451,295.984375 C1203.98631,297.554695 1204.67478,299.693346 1204.70994,302.400391 L1204.70994,304.404297 C1204.70994,307.158217 1204.04197,309.337883 1202.70603,310.943359 C1201.37008,312.548836 1199.58885,313.351562 1197.36228,313.351562 C1195.15914,313.351562 1193.39256,312.572273 1192.06247,311.013672 C1190.73239,309.45507 1190.04392,307.345716 1189.99704,304.685547 L1189.99704,302.611328 Z M1193.10837,304.404297 C1193.10837,306.361338 1193.49216,307.899408 1194.25974,309.018555 C1195.02732,310.137701 1196.06149,310.697266 1197.36228,310.697266 C1200.10448,310.697266 1201.51658,308.716817 1201.59861,304.755859 L1201.59861,302.611328 C1201.59861,300.666006 1201.21189,299.127935 1200.43845,297.99707 C1199.66501,296.866205 1198.62791,296.300781 1197.32712,296.300781 C1196.04977,296.300781 1195.02732,296.866205 1194.25974,297.99707 C1193.49216,299.127935 1193.10837,300.660147 1193.10837,302.59375 L1193.10837,304.404297 Z M1211.65329,293.980469 L1211.74119,296.037109 C1212.94822,294.431633 1214.48922,293.628906 1216.36423,293.628906 C1219.72753,293.628906 1221.43259,295.873024 1221.47947,300.361328 L1221.47947,313 L1218.38572,313 L1218.38572,300.501953 C1218.38572,299.013664 1218.1367,297.956058 1217.63865,297.329102 C1217.1406,296.702145 1216.39353,296.388672 1215.39744,296.388672 C1214.62399,296.388672 1213.92966,296.646482 1213.31443,297.162109 C1212.69919,297.677737 1212.20408,298.351558 1211.82908,299.183594 L1211.82908,313 L1208.71775,313 L1208.71775,293.980469 L1211.65329,293.980469 Z M1235.38376,308.130859 C1235.38376,307.462887 1235.13181,306.888674 1234.6279,306.408203 C1234.124,305.927732 1233.15135,305.365238 1231.70994,304.720703 C1230.03415,304.029293 1228.85349,303.437502 1228.16794,302.945312 C1227.48239,302.453123 1226.9697,301.893558 1226.62986,301.266602 C1226.29001,300.639645 1226.12009,299.892582 1226.12009,299.025391 C1226.12009,297.478508 1226.68552,296.192388 1227.81638,295.166992 C1228.94725,294.141596 1230.39157,293.628906 1232.14939,293.628906 C1234.00096,293.628906 1235.48923,294.167963 1236.61423,295.246094 C1237.73924,296.324224 1238.30173,297.707023 1238.30173,299.394531 L1235.20798,299.394531 C1235.20798,298.539058 1234.92088,297.809573 1234.34665,297.206055 C1233.77243,296.602536 1233.04002,296.300781 1232.14939,296.300781 C1231.23532,296.300781 1230.51756,296.538084 1229.99607,297.012695 C1229.47458,297.487307 1229.21384,298.123043 1229.21384,298.919922 C1229.21384,299.552738 1229.40427,300.062498 1229.78513,300.449219 C1230.16599,300.835939 1231.08297,301.3457 1232.53611,301.978516 C1234.84471,302.880864 1236.41501,303.762691 1237.24704,304.624023 C1238.07908,305.485356 1238.49509,306.578118 1238.49509,307.902344 C1238.49509,309.554696 1237.92674,310.875972 1236.79001,311.866211 C1235.65329,312.85645 1234.12987,313.351562 1232.2197,313.351562 C1230.23922,313.351562 1228.63377,312.783209 1227.40329,311.646484 C1226.17282,310.50976 1225.55759,309.068368 1225.55759,307.322266 L1228.6865,307.322266 C1228.72165,308.376958 1229.04392,309.203122 1229.65329,309.800781 C1230.26267,310.39844 1231.11813,310.697266 1232.2197,310.697266 C1233.25096,310.697266 1234.0361,310.465823 1234.57517,310.00293 C1235.11423,309.540037 1235.38376,308.91602 1235.38376,308.130859 Z" id="26%-Recommendations" fill="#FFFFFF"></path>
            <path d="M1323.61814,247.234375 L1314.8115,271 L1311.55954,271 L1320.34861,248.078125 L1308.9404,248.078125 L1308.9404,245.40625 L1323.61814,245.40625 L1323.61814,247.234375 Z M1327.09861,250.328125 C1327.09861,248.80468 1327.51169,247.541997 1328.33787,246.540039 C1329.16404,245.538081 1330.23923,245.037109 1331.56345,245.037109 C1332.87596,245.037109 1333.95114,245.529292 1334.78904,246.513672 C1335.62693,247.498052 1336.04587,248.792961 1336.04587,250.398438 L1336.04587,251.681641 C1336.04587,253.216805 1335.63279,254.476558 1334.80662,255.460938 C1333.98044,256.445317 1332.91111,256.9375 1331.59861,256.9375 C1330.2861,256.9375 1329.20799,256.445317 1328.36423,255.460938 C1327.52048,254.476558 1327.09861,253.181649 1327.09861,251.576172 L1327.09861,250.328125 Z M1329.36619,251.681641 C1329.36619,252.619145 1329.57126,253.377927 1329.98142,253.958008 C1330.39158,254.538089 1330.93064,254.828125 1331.59861,254.828125 C1332.24314,254.828125 1332.76755,254.543948 1333.17185,253.975586 C1333.57615,253.407224 1333.77829,252.619146 1333.77829,251.611328 L1333.77829,250.328125 C1333.77829,249.378902 1333.57322,248.614261 1333.16306,248.03418 C1332.7529,247.454099 1332.2197,247.164062 1331.56345,247.164062 C1330.89548,247.164062 1330.36228,247.457028 1329.96384,248.042969 C1329.5654,248.628909 1329.36619,249.408198 1329.36619,250.380859 L1329.36619,251.681641 Z M1337.43454,264.724609 C1337.43454,263.189445 1337.85056,261.926763 1338.68259,260.936523 C1339.51463,259.946284 1340.58688,259.451172 1341.89939,259.451172 C1343.2119,259.451172 1344.29001,259.943354 1345.13376,260.927734 C1345.97752,261.912114 1346.39939,263.218742 1346.39939,264.847656 L1346.39939,266.095703 C1346.39939,267.642586 1345.97752,268.908198 1345.13376,269.892578 C1344.29001,270.876958 1343.22361,271.369141 1341.93454,271.369141 C1340.62204,271.369141 1339.54392,270.876958 1338.70017,269.892578 C1337.85642,268.908198 1337.43454,267.613289 1337.43454,266.007812 L1337.43454,264.724609 Z M1339.70212,266.095703 C1339.70212,267.044927 1339.9072,267.809567 1340.31736,268.389648 C1340.72752,268.969729 1341.26657,269.259766 1341.93454,269.259766 C1342.5908,269.259766 1343.11814,268.9668 1343.51658,268.380859 C1343.91502,267.794919 1344.11423,267.01563 1344.11423,266.042969 L1344.11423,264.724609 C1344.11423,263.775386 1343.90916,263.013675 1343.499,262.439453 C1343.08884,261.865232 1342.55564,261.578125 1341.89939,261.578125 C1341.25485,261.578125 1340.72752,261.862302 1340.31736,262.430664 C1339.9072,262.999026 1339.70212,263.781245 1339.70212,264.777344 L1339.70212,266.095703 Z M1332.23142,269.066406 L1330.52634,267.90625 L1341.02048,247.902344 L1342.74314,249.0625 L1332.23142,269.066406 Z M1308.40427,302.453125 C1308.40427,305.94533 1307.66014,308.634756 1306.17185,310.521484 C1304.68356,312.408213 1302.56835,313.351562 1299.82615,313.351562 C1297.18941,313.351562 1295.10643,312.434579 1293.57712,310.600586 C1292.04782,308.766592 1291.25388,306.173845 1291.19529,302.822266 L1291.19529,298.005859 C1291.19529,294.583967 1291.95114,291.90333 1293.46287,289.963867 C1294.97459,288.024404 1297.08395,287.054688 1299.79099,287.054688 C1302.48632,287.054688 1304.58688,287.983389 1306.09275,289.84082 C1307.59861,291.698251 1308.36911,294.349592 1308.40427,297.794922 L1308.40427,302.453125 Z M1305.18747,297.970703 C1305.18747,295.263658 1304.7451,293.250983 1303.86033,291.932617 C1302.97556,290.614251 1301.61912,289.955078 1299.79099,289.955078 C1298.02145,289.955078 1296.6826,290.62304 1295.77439,291.958984 C1294.86618,293.294929 1294.40622,295.263659 1294.39451,297.865234 L1294.39451,302.453125 C1294.39451,305.066419 1294.8486,307.058587 1295.75681,308.429688 C1296.66502,309.800788 1298.02145,310.486328 1299.82615,310.486328 C1301.63084,310.486328 1302.96677,309.853522 1303.83396,308.587891 C1304.70115,307.322259 1305.15232,305.382826 1305.18747,302.769531 L1305.18747,297.970703 Z M1317.01755,289.375 L1317.01755,293.980469 L1319.88279,293.980469 L1319.88279,296.494141 L1317.01755,296.494141 L1317.01755,308.289062 C1317.01755,309.039066 1317.1406,309.60742 1317.38669,309.994141 C1317.63279,310.380861 1318.05466,310.574219 1318.65232,310.574219 C1319.06248,310.574219 1319.47849,310.503907 1319.90037,310.363281 L1319.86521,313 C1319.16208,313.234376 1318.44138,313.351562 1317.7031,313.351562 C1316.47262,313.351562 1315.53513,312.912114 1314.8906,312.033203 C1314.24606,311.154292 1313.9238,309.912117 1313.9238,308.306641 L1313.9238,296.494141 L1311.02341,296.494141 L1311.02341,293.980469 L1313.9238,293.980469 L1313.9238,289.375 L1317.01755,289.375 Z M1326.68552,295.931641 C1327.86912,294.396477 1329.38082,293.628906 1331.22068,293.628906 C1334.58398,293.628906 1336.28904,295.873024 1336.33591,300.361328 L1336.33591,313 L1333.24216,313 L1333.24216,300.501953 C1333.24216,299.013664 1332.99314,297.956058 1332.49509,297.329102 C1331.99704,296.702145 1331.24998,296.388672 1330.25388,296.388672 C1329.48044,296.388672 1328.78611,296.646482 1328.17087,297.162109 C1327.55564,297.677737 1327.06052,298.351558 1326.68552,299.183594 L1326.68552,313 L1323.57419,313 L1323.57419,286 L1326.68552,286 L1326.68552,295.931641 Z M1347.76169,313.351562 C1345.39449,313.351562 1343.57811,312.645515 1342.31247,311.233398 C1341.04684,309.821282 1340.40232,307.750014 1340.37888,305.019531 L1340.37888,302.716797 C1340.37888,299.880845 1340.99704,297.657235 1342.23337,296.045898 C1343.46971,294.434562 1345.19528,293.628906 1347.41013,293.628906 C1349.6367,293.628906 1351.30075,294.337884 1352.40232,295.755859 C1353.50389,297.173835 1354.06638,299.382797 1354.08982,302.382812 L1354.08982,304.421875 L1343.47263,304.421875 L1343.47263,304.861328 C1343.47263,306.900401 1343.85642,308.382808 1344.624,309.308594 C1345.39158,310.23438 1346.49606,310.697266 1347.93747,310.697266 C1348.85154,310.697266 1349.6572,310.524416 1350.35447,310.178711 C1351.05174,309.833006 1351.70505,309.28516 1352.31443,308.535156 L1353.93162,310.503906 C1352.58395,312.402353 1350.52733,313.351562 1347.76169,313.351562 Z M1347.41013,296.300781 C1346.12106,296.300781 1345.16599,296.74316 1344.5449,297.62793 C1343.9238,298.5127 1343.57224,299.886709 1343.49021,301.75 L1350.97849,301.75 L1350.97849,301.328125 C1350.89646,299.523428 1350.57127,298.234379 1350.0029,297.460938 C1349.43454,296.687496 1348.57029,296.300781 1347.41013,296.300781 Z M1365.6738,296.898438 C1365.24021,296.816406 1364.77146,296.775391 1364.26755,296.775391 C1362.67379,296.775391 1361.56052,297.648429 1360.92771,299.394531 L1360.92771,313 L1357.81638,313 L1357.81638,293.980469 L1360.83982,293.980469 L1360.89255,295.914062 C1361.72459,294.390617 1362.90231,293.628906 1364.42576,293.628906 C1364.91795,293.628906 1365.3281,293.710937 1365.65622,293.875 L1365.6738,296.898438 Z" id="7%-Other" fill="#FFFFFF"></path>
        </g>
    </g>
</svg>