<?xml version="1.0" encoding="UTF-8"?>
<svg width="1426px" height="611px" viewBox="0 0 1426 611" version="1.1" xmlns="http://www.w3.org/2000/svg" xmlns:xlink="http://www.w3.org/1999/xlink">
    <!-- Generator: Sketch 43.2 (39069) - http://www.bohemiancoding.com/sketch -->
    <title>Artboard</title>
    <desc>Created with Sketch.</desc>
    <defs></defs>
    <g id="Page-1" stroke="none" stroke-width="1" fill="none" fill-rule="evenodd">
        <g id="Artboard">
            <path d="M68.5,501.5 L1368.5,501.5" id="Line" stroke="#000000" stroke-linecap="square"></path>
            <path d="M86.7324219,532.083984 C86.7324219,535.857441 86.1816461,538.678702 85.0800781,540.547852 C83.9785101,542.417002 82.2500118,543.351562 79.8945312,543.351562 C77.6093636,543.351562 75.9043025,542.455087 74.7792969,540.662109 C73.6542912,538.869132 73.0683596,536.173846 73.0214844,532.576172 L73.0214844,528.181641 C73.0214844,524.443341 73.5751898,521.654306 74.6826172,519.814453 C75.7900446,517.9746 77.5156133,517.054688 79.859375,517.054688 C82.1679803,517.054688 83.875971,517.927726 84.9833984,519.673828 C86.0908258,521.419931 86.6738278,524.062482 86.7324219,527.601562 L86.7324219,532.083984 Z M83.6210938,527.636719 C83.6210938,524.929674 83.3222686,522.934577 82.7246094,521.651367 C82.1269501,520.368158 81.1718816,519.726562 79.859375,519.726562 C78.5820249,519.726562 77.6445342,520.356439 77.046875,521.616211 C76.4492158,522.875983 76.138672,524.777331 76.1152344,527.320312 L76.1152344,532.59375 C76.1152344,535.289076 76.4257781,537.31347 77.046875,538.666992 C77.6679719,540.020515 78.6171811,540.697266 79.8945312,540.697266 C81.1601626,540.697266 82.0917939,540.0586 82.6894531,538.78125 C83.2871124,537.5039 83.5976561,535.552747 83.6210938,532.927734 L83.6210938,527.636719 Z" id="0" fill="#000000"></path>
            <path d="M280.320312,543 L277.191406,543 L277.191406,521.326172 L271.8125,523.734375 L271.8125,520.78125 L279.828125,517.283203 L280.320312,517.283203 L280.320312,543 Z M302.503906,532.083984 C302.503906,535.857441 301.953131,538.678702 300.851562,540.547852 C299.749994,542.417002 298.021496,543.351562 295.666016,543.351562 C293.380848,543.351562 291.675787,542.455087 290.550781,540.662109 C289.425776,538.869132 288.839844,536.173846 288.792969,532.576172 L288.792969,528.181641 C288.792969,524.443341 289.346674,521.654306 290.454102,519.814453 C291.561529,517.9746 293.287098,517.054688 295.630859,517.054688 C297.939465,517.054688 299.647455,517.927726 300.754883,519.673828 C301.86231,521.419931 302.445312,524.062482 302.503906,527.601562 L302.503906,532.083984 Z M299.392578,527.636719 C299.392578,524.929674 299.093753,522.934577 298.496094,521.651367 C297.898435,520.368158 296.943366,519.726562 295.630859,519.726562 C294.353509,519.726562 293.416019,520.356439 292.818359,521.616211 C292.2207,522.875983 291.910156,524.777331 291.886719,527.320312 L291.886719,532.59375 C291.886719,535.289076 292.197263,537.31347 292.818359,538.666992 C293.439456,540.020515 294.388665,540.697266 295.666016,540.697266 C296.931647,540.697266 297.863278,540.0586 298.460938,538.78125 C299.058597,537.5039 299.369141,535.552747 299.392578,532.927734 L299.392578,527.636719 Z" id="10" fill="#000000"></path>
            <path d="M488.365234,543 L474.056641,543 L474.056641,540.662109 L481.351562,530.994141 C482.453131,529.505852 483.217771,528.284184 483.645508,527.329102 C484.073244,526.374019 484.287109,525.363287 484.287109,524.296875 C484.287109,522.937493 483.970706,521.835942 483.337891,520.992188 C482.705075,520.148433 481.873052,519.726562 480.841797,519.726562 C479.541009,519.726562 478.536136,520.1748 477.827148,521.071289 C477.118161,521.967778 476.763672,523.259757 476.763672,524.947266 L473.652344,524.947266 C473.652344,522.591785 474.296869,520.687507 475.585938,519.234375 C476.875006,517.781243 478.626942,517.054688 480.841797,517.054688 C482.88087,517.054688 484.486322,517.678705 485.658203,518.926758 C486.830084,520.174811 487.416016,521.835927 487.416016,523.910156 C487.416016,526.441419 486.097669,529.43553 483.460938,532.892578 L477.765625,540.345703 L488.365234,540.345703 L488.365234,543 Z M505.503906,532.083984 C505.503906,535.857441 504.953131,538.678702 503.851562,540.547852 C502.749994,542.417002 501.021496,543.351562 498.666016,543.351562 C496.380848,543.351562 494.675787,542.455087 493.550781,540.662109 C492.425776,538.869132 491.839844,536.173846 491.792969,532.576172 L491.792969,528.181641 C491.792969,524.443341 492.346674,521.654306 493.454102,519.814453 C494.561529,517.9746 496.287098,517.054688 498.630859,517.054688 C500.939465,517.054688 502.647455,517.927726 503.754883,519.673828 C504.86231,521.419931 505.445312,524.062482 505.503906,527.601562 L505.503906,532.083984 Z M502.392578,527.636719 C502.392578,524.929674 502.093753,522.934577 501.496094,521.651367 C500.898435,520.368158 499.943366,519.726562 498.630859,519.726562 C497.353509,519.726562 496.416019,520.356439 495.818359,521.616211 C495.2207,522.875983 494.910156,524.777331 494.886719,527.320312 L494.886719,532.59375 C494.886719,535.289076 495.197263,537.31347 495.818359,538.666992 C496.439456,540.020515 497.388665,540.697266 498.666016,540.697266 C499.931647,540.697266 500.863278,540.0586 501.460938,538.78125 C502.058597,537.5039 502.369141,535.552747 502.392578,532.927734 L502.392578,527.636719 Z" id="20" fill="#000000"></path>
            <path d="M678.029297,528.621094 L680.015625,528.621094 C681.292975,528.621094 682.27734,528.22852 682.96875,527.443359 C683.66016,526.658199 684.005859,525.585944 684.005859,524.226562 C684.005859,521.226547 682.845715,519.726562 680.525391,519.726562 C679.412104,519.726562 678.539066,520.130855 677.90625,520.939453 C677.273434,521.748051 676.957031,522.808587 676.957031,524.121094 L673.863281,524.121094 C673.863281,522.070302 674.487298,520.379889 675.735352,519.049805 C676.983405,517.71972 678.580068,517.054688 680.525391,517.054688 C682.541026,517.054688 684.140619,517.684564 685.324219,518.944336 C686.507818,520.204108 687.099609,521.98827 687.099609,524.296875 C687.099609,525.480475 686.791995,526.584956 686.176758,527.610352 C685.56152,528.635747 684.761724,529.388669 683.777344,529.869141 C686.191418,530.75977 687.398438,532.757797 687.398438,535.863281 C687.398438,538.148449 686.762702,539.967767 685.491211,541.321289 C684.21972,542.674811 682.558604,543.351562 680.507812,543.351562 C678.480459,543.351562 676.84278,542.709967 675.594727,541.426758 C674.346673,540.143548 673.722656,538.41798 673.722656,536.25 L676.833984,536.25 C676.833984,537.609382 677.162106,538.690426 677.818359,539.493164 C678.474613,540.295902 679.371088,540.697266 680.507812,540.697266 C681.667975,540.697266 682.590817,540.304691 683.276367,539.519531 C683.961917,538.734371 684.304688,537.539071 684.304688,535.933594 C684.304688,532.828109 682.833999,531.275391 679.892578,531.275391 L678.029297,531.275391 L678.029297,528.621094 Z M705.503906,532.083984 C705.503906,535.857441 704.953131,538.678702 703.851562,540.547852 C702.749994,542.417002 701.021496,543.351562 698.666016,543.351562 C696.380848,543.351562 694.675787,542.455087 693.550781,540.662109 C692.425776,538.869132 691.839844,536.173846 691.792969,532.576172 L691.792969,528.181641 C691.792969,524.443341 692.346674,521.654306 693.454102,519.814453 C694.561529,517.9746 696.287098,517.054688 698.630859,517.054688 C700.939465,517.054688 702.647455,517.927726 703.754883,519.673828 C704.86231,521.419931 705.445312,524.062482 705.503906,527.601562 L705.503906,532.083984 Z M702.392578,527.636719 C702.392578,524.929674 702.093753,522.934577 701.496094,521.651367 C700.898435,520.368158 699.943366,519.726562 698.630859,519.726562 C697.353509,519.726562 696.416019,520.356439 695.818359,521.616211 C695.2207,522.875983 694.910156,524.777331 694.886719,527.320312 L694.886719,532.59375 C694.886719,535.289076 695.197263,537.31347 695.818359,538.666992 C696.439456,540.020515 697.388665,540.697266 698.666016,540.697266 C699.931647,540.697266 700.863278,540.0586 701.460938,538.78125 C702.058597,537.5039 702.369141,535.552747 702.392578,532.927734 L702.392578,527.636719 Z" id="30" fill="#000000"></path>
            <path d="M887.833984,534.404297 L890.681641,534.404297 L890.681641,537.058594 L887.833984,537.058594 L887.833984,543 L884.722656,543 L884.722656,537.058594 L875.054688,537.058594 L875.054688,535.142578 L884.564453,517.40625 L887.833984,517.40625 L887.833984,534.404297 Z M878.5,534.404297 L884.722656,534.404297 L884.722656,522.240234 L878.5,534.404297 Z M907.503906,532.083984 C907.503906,535.857441 906.953131,538.678702 905.851562,540.547852 C904.749994,542.417002 903.021496,543.351562 900.666016,543.351562 C898.380848,543.351562 896.675787,542.455087 895.550781,540.662109 C894.425776,538.869132 893.839844,536.173846 893.792969,532.576172 L893.792969,528.181641 C893.792969,524.443341 894.346674,521.654306 895.454102,519.814453 C896.561529,517.9746 898.287098,517.054688 900.630859,517.054688 C902.939465,517.054688 904.647455,517.927726 905.754883,519.673828 C906.86231,521.419931 907.445312,524.062482 907.503906,527.601562 L907.503906,532.083984 Z M904.392578,527.636719 C904.392578,524.929674 904.093753,522.934577 903.496094,521.651367 C902.898435,520.368158 901.943366,519.726562 900.630859,519.726562 C899.353509,519.726562 898.416019,520.356439 897.818359,521.616211 C897.2207,522.875983 896.910156,524.777331 896.886719,527.320312 L896.886719,532.59375 C896.886719,535.289076 897.197263,537.31347 897.818359,538.666992 C898.439456,540.020515 899.388665,540.697266 900.666016,540.697266 C901.931647,540.697266 902.863278,540.0586 903.460938,538.78125 C904.058597,537.5039 904.369141,535.552747 904.392578,532.927734 L904.392578,527.636719 Z" id="40" fill="#000000"></path>
            <path d="M1075.32227,530.167969 L1076.42969,517.40625 L1087.55664,517.40625 L1087.55664,520.412109 L1079.04883,520.412109 L1078.45117,527.390625 C1079.50586,526.65234 1080.64257,526.283203 1081.86133,526.283203 C1083.85353,526.283203 1085.41796,527.056633 1086.55469,528.603516 C1087.69141,530.150398 1088.25977,532.230456 1088.25977,534.84375 C1088.25977,537.492201 1087.64161,539.572258 1086.40527,541.083984 C1085.16894,542.595711 1083.47267,543.351562 1081.31641,543.351562 C1079.39452,543.351562 1077.83008,542.724616 1076.62305,541.470703 C1075.41601,540.216791 1074.72461,538.482433 1074.54883,536.267578 L1077.4668,536.267578 C1077.64258,537.732429 1078.06152,538.83691 1078.72363,539.581055 C1079.38575,540.325199 1080.24999,540.697266 1081.31641,540.697266 C1082.52344,540.697266 1083.46679,540.172857 1084.14648,539.124023 C1084.82618,538.07519 1085.16602,536.660165 1085.16602,534.878906 C1085.16602,533.203117 1084.79981,531.837896 1084.06738,530.783203 C1083.33496,529.72851 1082.34766,529.201172 1081.10547,529.201172 C1080.07421,529.201172 1079.24805,529.4707 1078.62695,530.009766 L1077.80078,530.835938 L1075.32227,530.167969 Z M1105.50391,532.083984 C1105.50391,535.857441 1104.95313,538.678702 1103.85156,540.547852 C1102.74999,542.417002 1101.0215,543.351562 1098.66602,543.351562 C1096.38085,543.351562 1094.67579,542.455087 1093.55078,540.662109 C1092.42578,538.869132 1091.83984,536.173846 1091.79297,532.576172 L1091.79297,528.181641 C1091.79297,524.443341 1092.34667,521.654306 1093.4541,519.814453 C1094.56153,517.9746 1096.2871,517.054688 1098.63086,517.054688 C1100.93946,517.054688 1102.64746,517.927726 1103.75488,519.673828 C1104.86231,521.419931 1105.44531,524.062482 1105.50391,527.601562 L1105.50391,532.083984 Z M1102.39258,527.636719 C1102.39258,524.929674 1102.09375,522.934577 1101.49609,521.651367 C1100.89843,520.368158 1099.94337,519.726562 1098.63086,519.726562 C1097.35351,519.726562 1096.41602,520.356439 1095.81836,521.616211 C1095.2207,522.875983 1094.91016,524.777331 1094.88672,527.320312 L1094.88672,532.59375 C1094.88672,535.289076 1095.19726,537.31347 1095.81836,538.666992 C1096.43946,540.020515 1097.38867,540.697266 1098.66602,540.697266 C1099.93165,540.697266 1100.86328,540.0586 1101.46094,538.78125 C1102.0586,537.5039 1102.36914,535.552747 1102.39258,532.927734 L1102.39258,527.636719 Z" id="50" fill="#000000"></path>
            <path d="M1284.88477,517.388672 L1284.88477,520.148438 L1284.375,520.148438 C1282.30077,520.195313 1280.67774,520.895501 1279.50586,522.249023 C1278.33398,523.602546 1277.66016,525.638658 1277.48438,528.357422 C1278.6211,526.927727 1280.07421,526.212891 1281.84375,526.212891 C1283.73048,526.212891 1285.22753,526.98925 1286.33496,528.541992 C1287.44239,530.094734 1287.99609,532.130847 1287.99609,534.650391 C1287.99609,537.333998 1287.3838,539.45507 1286.15918,541.013672 C1284.93456,542.572273 1283.29103,543.351562 1281.22852,543.351562 C1279.15429,543.351562 1277.48438,542.43165 1276.21875,540.591797 C1274.95312,538.751944 1274.32031,536.308609 1274.32031,533.261719 L1274.32031,532.013672 C1274.32031,528.498029 1274.70117,525.697276 1275.46289,523.611328 C1276.22461,521.52538 1277.34667,519.975591 1278.8291,518.961914 C1280.31153,517.948237 1282.15429,517.423828 1284.35742,517.388672 L1284.88477,517.388672 Z M1281.31641,528.919922 C1280.47265,528.919922 1279.69336,529.242184 1278.97852,529.886719 C1278.26367,530.531253 1277.74805,531.351558 1277.43164,532.347656 L1277.43164,533.630859 C1277.43164,535.705088 1277.79785,537.395501 1278.53027,538.702148 C1279.2627,540.008796 1280.1621,540.662109 1281.22852,540.662109 C1282.38868,540.662109 1283.29687,540.125982 1283.95312,539.053711 C1284.60938,537.98144 1284.9375,536.566415 1284.9375,534.808594 C1284.9375,533.07421 1284.60938,531.659185 1283.95312,530.563477 C1283.29687,529.467768 1282.41797,528.919922 1281.31641,528.919922 Z M1305.50391,532.083984 C1305.50391,535.857441 1304.95313,538.678702 1303.85156,540.547852 C1302.74999,542.417002 1301.0215,543.351562 1298.66602,543.351562 C1296.38085,543.351562 1294.67579,542.455087 1293.55078,540.662109 C1292.42578,538.869132 1291.83984,536.173846 1291.79297,532.576172 L1291.79297,528.181641 C1291.79297,524.443341 1292.34667,521.654306 1293.4541,519.814453 C1294.56153,517.9746 1296.2871,517.054688 1298.63086,517.054688 C1300.93946,517.054688 1302.64746,517.927726 1303.75488,519.673828 C1304.86231,521.419931 1305.44531,524.062482 1305.50391,527.601562 L1305.50391,532.083984 Z M1302.39258,527.636719 C1302.39258,524.929674 1302.09375,522.934577 1301.49609,521.651367 C1300.89843,520.368158 1299.94337,519.726562 1298.63086,519.726562 C1297.35351,519.726562 1296.41602,520.356439 1295.81836,521.616211 C1295.2207,522.875983 1294.91016,524.777331 1294.88672,527.320312 L1294.88672,532.59375 C1294.88672,535.289076 1295.19726,537.31347 1295.81836,538.666992 C1296.43946,540.020515 1297.38867,540.697266 1298.66602,540.697266 C1299.93165,540.697266 1300.86328,540.0586 1301.46094,538.78125 C1302.0586,537.5039 1302.36914,535.552747 1302.39258,532.927734 L1302.39258,527.636719 Z" id="60" fill="#000000"></path>
            <g id="2-3-times-a-week" transform="translate(70.000000, 130.000000)">
                <rect id="Rectangle" fill="#393E43" x="0" y="0" width="308" height="50"></rect>
                <path d="M42.3652344,38 L28.0566406,38 L28.0566406,35.6621094 L35.3515625,25.9941406 C36.4531305,24.5058519 37.2177713,23.2841845 37.6455078,22.3291016 C38.0732443,21.3740187 38.2871094,20.3632866 38.2871094,19.296875 C38.2871094,17.9374932 37.9707063,16.8359417 37.3378906,15.9921875 C36.705075,15.1484333 35.873052,14.7265625 34.8417969,14.7265625 C33.5410091,14.7265625 32.5361364,15.1748002 31.8271484,16.0712891 C31.1181605,16.9677779 30.7636719,18.2597572 30.7636719,19.9472656 L27.6523438,19.9472656 C27.6523438,17.5917851 28.2968686,15.6875073 29.5859375,14.234375 C30.8750064,12.7812427 32.6269421,12.0546875 34.8417969,12.0546875 C36.8808696,12.0546875 38.4863223,12.6787047 39.6582031,13.9267578 C40.830084,15.1748109 41.4160156,16.8359271 41.4160156,18.9101562 C41.4160156,21.4414189 40.0976694,24.4355296 37.4609375,27.8925781 L31.765625,35.3457031 L42.3652344,35.3457031 L42.3652344,38 Z M51.8574219,28.4550781 L44.5976562,28.4550781 L44.5976562,25.8007812 L51.8574219,25.8007812 L51.8574219,28.4550781 Z M58.7304688,23.6210938 L60.7167969,23.6210938 C61.994147,23.6210938 62.9785122,23.2285196 63.6699219,22.4433594 C64.3613316,21.6581992 64.7070312,20.5859443 64.7070312,19.2265625 C64.7070312,16.2265475 63.5468866,14.7265625 61.2265625,14.7265625 C60.1132757,14.7265625 59.2402375,15.1308553 58.6074219,15.9394531 C57.9746062,16.7480509 57.6582031,17.8085872 57.6582031,19.1210938 L54.5644531,19.1210938 C54.5644531,17.0703022 55.1884703,15.3798895 56.4365234,14.0498047 C57.6845766,12.7197199 59.2812403,12.0546875 61.2265625,12.0546875 C63.2421976,12.0546875 64.841791,12.684564 66.0253906,13.9443359 C67.2089903,15.2041079 67.8007812,16.9882697 67.8007812,19.296875 C67.8007812,20.4804747 67.4931671,21.5849558 66.8779297,22.6103516 C66.2626922,23.6357473 65.4628955,24.3886695 64.4785156,24.8691406 C66.8925902,25.7597701 68.0996094,27.757797 68.0996094,30.8632812 C68.0996094,33.1484489 67.4638735,34.9677667 66.1923828,36.3212891 C64.9208921,37.6748115 63.2597759,38.3515625 61.2089844,38.3515625 C59.1816305,38.3515625 57.5439516,37.7099674 56.2958984,36.4267578 C55.0478453,35.1435483 54.4238281,33.4179796 54.4238281,31.25 L57.5351563,31.25 C57.5351563,32.6093818 57.863278,33.6904257 58.5195313,34.4931641 C59.1757845,35.2959025 60.0722599,35.6972656 61.2089844,35.6972656 C62.3691464,35.6972656 63.2919888,35.3046914 63.9775391,34.5195312 C64.6630894,33.7343711 65.0058594,32.5390705 65.0058594,30.9335938 C65.0058594,27.8281095 63.535171,26.2753906 60.59375,26.2753906 L58.7304688,26.2753906 L58.7304688,23.6210938 Z M85.1152344,14.375 L85.1152344,18.9804688 L87.9804688,18.9804688 L87.9804688,21.4941406 L85.1152344,21.4941406 L85.1152344,33.2890625 C85.1152344,34.0390662 85.23828,34.6074199 85.484375,34.9941406 C85.73047,35.3808613 86.1523408,35.5742188 86.75,35.5742188 C87.1601583,35.5742188 87.5761698,35.503907 87.9980469,35.3632812 L87.9628906,38 C87.2597621,38.2343762 86.5390662,38.3515625 85.8007812,38.3515625 C84.5703063,38.3515625 83.6328157,37.9121138 82.9882812,37.0332031 C82.3437468,36.1542925 82.0214844,34.9121174 82.0214844,33.3066406 L82.0214844,21.4941406 L79.1210938,21.4941406 L79.1210938,18.9804688 L82.0214844,18.9804688 L82.0214844,14.375 L85.1152344,14.375 Z M95.0292969,38 L91.9179688,38 L91.9179688,18.9804688 L95.0292969,18.9804688 L95.0292969,38 Z M95.2753906,13.9355469 C95.2753906,14.4628933 95.1289077,14.902342 94.8359375,15.2539062 C94.5429673,15.6054705 94.0976592,15.78125 93.5,15.78125 C92.9140596,15.78125 92.4746108,15.6054705 92.1816406,15.2539062 C91.8886704,14.902342 91.7421875,14.4628933 91.7421875,13.9355469 C91.7421875,13.4082005 91.8886704,12.9628924 92.1816406,12.5996094 C92.4746108,12.2363263 92.9140596,12.0546875 93.5,12.0546875 C94.0859404,12.0546875 94.5283188,12.239256 94.8271484,12.6083984 C95.1259781,12.9775409 95.2753906,13.4199193 95.2753906,13.9355469 Z M102.851563,18.9804688 L102.921875,20.7382812 C104.082037,19.3320242 105.611319,18.6289062 107.509766,18.6289062 C109.63087,18.6289062 111.113277,19.5488189 111.957031,21.3886719 C113.15235,19.5488189 114.816396,18.6289062 116.949219,18.6289062 C120.453143,18.6289062 122.246093,20.8144313 122.328125,25.1855469 L122.328125,38 L119.234375,38 L119.234375,25.484375 C119.234375,24.1015556 118.988284,23.0732456 118.496094,22.3994141 C118.003904,21.7255826 117.171881,21.3886719 116,21.3886719 C115.062495,21.3886719 114.300784,21.7519495 113.714844,22.4785156 C113.128903,23.2050818 112.789063,24.1308537 112.695313,25.2558594 L112.695313,38 L109.566406,38 L109.566406,25.34375 C109.53125,22.7070181 108.458995,21.3886719 106.349609,21.3886719 C104.779289,21.3886719 103.671878,22.1738203 103.027344,23.7441406 L103.027344,38 L99.9335938,38 L99.9335938,18.9804688 L102.851563,18.9804688 Z M133.806641,38.3515625 C131.439441,38.3515625 129.623053,37.6455149 128.357422,36.2333984 C127.091791,34.821282 126.447266,32.7500137 126.423828,30.0195312 L126.423828,27.7167969 C126.423828,24.8808452 127.041986,22.6572346 128.27832,21.0458984 C129.514655,19.4345623 131.240223,18.6289062 133.455078,18.6289062 C135.681652,18.6289062 137.345698,19.3378835 138.447266,20.7558594 C139.548834,22.1738352 140.111328,24.3827975 140.134766,27.3828125 L140.134766,29.421875 L129.517578,29.421875 L129.517578,29.8613281 C129.517578,31.9004008 129.901363,33.3828079 130.668945,34.3085938 C131.436527,35.2343796 132.541008,35.6972656 133.982422,35.6972656 C134.896489,35.6972656 135.702145,35.5244158 136.399414,35.1787109 C137.096683,34.8330061 137.749997,34.28516 138.359375,33.5351562 L139.976562,35.5039062 C138.6289,37.4023532 136.572279,38.3515625 133.806641,38.3515625 Z M133.455078,21.3007812 C132.166009,21.3007812 131.210941,21.7431596 130.589844,22.6279297 C129.968747,23.5126997 129.617188,24.8867094 129.535156,26.75 L137.023438,26.75 L137.023438,26.328125 C136.941406,24.5234285 136.616214,23.2343789 136.047852,22.4609375 C135.479489,21.6874961 134.61524,21.3007812 133.455078,21.3007812 Z M153.107422,33.1308594 C153.107422,32.4628873 152.855471,31.8886743 152.351562,31.4082031 C151.847654,30.927732 150.875007,30.3652376 149.433594,29.7207031 C147.757804,29.0292934 146.577152,28.4375025 145.891602,27.9453125 C145.206051,27.4531225 144.693361,26.8935578 144.353516,26.2666016 C144.01367,25.6396453 143.84375,24.8925825 143.84375,24.0253906 C143.84375,22.4785079 144.409174,21.1923879 145.540039,20.1669922 C146.670904,19.1415964 148.115226,18.6289062 149.873047,18.6289062 C151.724619,18.6289062 153.212885,19.1679634 154.337891,20.2460938 C155.462896,21.3242241 156.025391,22.7070228 156.025391,24.3945312 L152.931641,24.3945312 C152.931641,23.5390582 152.644534,22.8095733 152.070312,22.2060547 C151.496091,21.602536 150.763676,21.3007812 149.873047,21.3007812 C148.95898,21.3007812 148.241214,21.5380836 147.719727,22.0126953 C147.19824,22.4873071 146.9375,23.1230429 146.9375,23.9199219 C146.9375,24.5527375 147.127928,25.0624981 147.508789,25.4492188 C147.88965,25.8359394 148.806633,26.3457 150.259766,26.9785156 C152.568371,27.8808639 154.138668,28.762691 154.970703,29.6240234 C155.802739,30.4853559 156.21875,31.5781184 156.21875,32.9023438 C156.21875,34.5546958 155.650396,35.8759716 154.513672,36.8662109 C153.376947,37.8564503 151.853525,38.3515625 149.943359,38.3515625 C147.962881,38.3515625 146.357428,37.7832088 145.126953,36.6464844 C143.896478,35.5097599 143.28125,34.0683681 143.28125,32.3222656 L146.410156,32.3222656 C146.445313,33.3769584 146.767575,34.203122 147.376953,34.8007812 C147.986331,35.3984405 148.841791,35.6972656 149.943359,35.6972656 C150.974615,35.6972656 151.759763,35.4658226 152.298828,35.0029297 C152.837893,34.5400367 153.107422,33.9160196 153.107422,33.1308594 Z M178.296875,38 C178.109374,37.5898417 177.97461,36.8984424 177.892578,35.9257812 C176.79101,37.5429768 175.384774,38.3515625 173.673828,38.3515625 C171.951163,38.3515625 170.60645,37.8681689 169.639648,36.9013672 C168.672847,35.9345655 168.189453,34.5722744 168.189453,32.8144531 C168.189453,30.8808497 168.845697,29.3457088 170.158203,28.2089844 C171.47071,27.0722599 173.26952,26.4921876 175.554688,26.46875 L177.839844,26.46875 L177.839844,24.4472656 C177.839844,23.3105412 177.587893,22.5019555 177.083984,22.0214844 C176.580076,21.5410132 175.812505,21.3007812 174.78125,21.3007812 C173.843745,21.3007812 173.082034,21.5790988 172.496094,22.1357422 C171.910153,22.6923856 171.617188,23.3984332 171.617188,24.2539062 L168.505859,24.2539062 C168.505859,23.2812451 168.792966,22.3525435 169.367188,21.4677734 C169.941409,20.5830034 170.714839,19.8886744 171.6875,19.3847656 C172.660161,18.8808569 173.744135,18.6289062 174.939453,18.6289062 C176.884775,18.6289062 178.364253,19.1122999 179.37793,20.0791016 C180.391607,21.0459033 180.910156,22.4550689 180.933594,24.3066406 L180.933594,33.9042969 C180.945313,35.3691479 181.144529,36.6406196 181.53125,37.71875 L181.53125,38 L178.296875,38 Z M174.148438,35.5214844 C174.91016,35.5214844 175.636715,35.310549 176.328125,34.8886719 C177.019535,34.4667948 177.523436,33.9394563 177.839844,33.3066406 L177.839844,28.7714844 L176.082031,28.7714844 C174.605461,28.794922 173.439457,29.1259734 172.583984,29.7646484 C171.728511,30.4033235 171.300781,31.2968693 171.300781,32.4453125 C171.300781,33.5234429 171.517576,34.3056616 171.951172,34.7919922 C172.384768,35.2783227 173.117182,35.5214844 174.148438,35.5214844 Z M208.179688,32.5332031 L211.0625,18.9804688 L214.138672,18.9804688 L209.480469,38 L207.001953,38 L203.292969,24.3945312 L199.671875,38 L197.175781,38 L192.552734,18.9804688 L195.611328,18.9804688 L198.564453,32.1992188 L202.097656,18.9804688 L204.558594,18.9804688 L208.179688,32.5332031 Z M224.193359,38.3515625 C221.82616,38.3515625 220.009772,37.6455149 218.744141,36.2333984 C217.478509,34.821282 216.833984,32.7500137 216.810547,30.0195312 L216.810547,27.7167969 C216.810547,24.8808452 217.428705,22.6572346 218.665039,21.0458984 C219.901373,19.4345623 221.626942,18.6289062 223.841797,18.6289062 C226.068371,18.6289062 227.732416,19.3378835 228.833984,20.7558594 C229.935552,22.1738352 230.498047,24.3827975 230.521484,27.3828125 L230.521484,29.421875 L219.904297,29.421875 L219.904297,29.8613281 C219.904297,31.9004008 220.288082,33.3828079 221.055664,34.3085938 C221.823246,35.2343796 222.927727,35.6972656 224.369141,35.6972656 C225.283208,35.6972656 226.088864,35.5244158 226.786133,35.1787109 C227.483402,34.8330061 228.136716,34.28516 228.746094,33.5351562 L230.363281,35.5039062 C229.015618,37.4023532 226.958998,38.3515625 224.193359,38.3515625 Z M223.841797,21.3007812 C222.552728,21.3007812 221.597659,21.7431596 220.976563,22.6279297 C220.355466,23.5126997 220.003907,24.8867094 219.921875,26.75 L227.410156,26.75 L227.410156,26.328125 C227.328125,24.5234285 227.002933,23.2343789 226.43457,22.4609375 C225.866208,21.6874961 225.001959,21.3007812 223.841797,21.3007812 Z M241.050781,38.3515625 C238.683582,38.3515625 236.867194,37.6455149 235.601563,36.2333984 C234.335931,34.821282 233.691406,32.7500137 233.667969,30.0195312 L233.667969,27.7167969 C233.667969,24.8808452 234.286127,22.6572346 235.522461,21.0458984 C236.758795,19.4345623 238.484364,18.6289062 240.699219,18.6289062 C242.925792,18.6289062 244.589838,19.3378835 245.691406,20.7558594 C246.792974,22.1738352 247.355469,24.3827975 247.378906,27.3828125 L247.378906,29.421875 L236.761719,29.421875 L236.761719,29.8613281 C236.761719,31.9004008 237.145504,33.3828079 237.913086,34.3085938 C238.680668,35.2343796 239.785149,35.6972656 241.226563,35.6972656 C242.14063,35.6972656 242.946286,35.5244158 243.643555,35.1787109 C244.340824,34.8330061 244.994138,34.28516 245.603516,33.5351562 L247.220703,35.5039062 C245.87304,37.4023532 243.81642,38.3515625 241.050781,38.3515625 Z M240.699219,21.3007812 C239.41015,21.3007812 238.455081,21.7431596 237.833984,22.6279297 C237.212888,23.5126997 236.861329,24.8867094 236.779297,26.75 L244.267578,26.75 L244.267578,26.328125 C244.185546,24.5234285 243.860354,23.2343789 243.291992,22.4609375 C242.72363,21.6874961 241.859381,21.3007812 240.699219,21.3007812 Z M255.886719,29.2988281 L254.234375,31.1972656 L254.234375,38 L251.123047,38 L251.123047,11 L254.234375,11 L254.234375,27.1542969 L260.158203,18.9804688 L263.884766,18.9804688 L257.837891,26.9257812 L264.675781,38 L261.054688,38 L255.886719,29.2988281 Z" fill="#FFFFFF"></path>
            </g>
            <g id="Never" transform="translate(70.000000, 430.000000)">
                <rect id="Rectangle-2" fill="#393E43" x="0" y="0" width="340" height="50"></rect>
                <path d="M45.4765625,37 L42.2421875,37 L31.9941406,17.2773438 L31.9941406,37 L28.7597656,37 L28.7597656,11.40625 L31.9941406,11.40625 L42.2773438,31.2167969 L42.2773438,11.40625 L45.4765625,11.40625 L45.4765625,37 Z M57.4121094,37.3515625 C55.04491,37.3515625 53.228522,36.6455149 51.9628906,35.2333984 C50.6972593,33.821282 50.0527345,31.7500137 50.0292969,29.0195312 L50.0292969,26.7167969 C50.0292969,23.8808452 50.6474548,21.6572346 51.8837891,20.0458984 C53.1201234,18.4345623 54.8456921,17.6289062 57.0605469,17.6289062 C59.2871205,17.6289062 60.9511664,18.3378835 62.0527344,19.7558594 C63.1543024,21.1738352 63.7167968,23.3827975 63.7402344,26.3828125 L63.7402344,28.421875 L53.1230469,28.421875 L53.1230469,28.8613281 C53.1230469,30.9004008 53.5068321,32.3828079 54.2744141,33.3085938 C55.041996,34.2343796 56.1464772,34.6972656 57.5878906,34.6972656 C58.5019577,34.6972656 59.3076137,34.5244158 60.0048828,34.1787109 C60.7021519,33.8330061 61.3554657,33.28516 61.9648438,32.5351562 L63.5820312,34.5039062 C62.2343683,36.4023532 60.1777482,37.3515625 57.4121094,37.3515625 Z M57.0605469,20.3007812 C55.7714779,20.3007812 54.8164094,20.7431596 54.1953125,21.6279297 C53.5742156,22.5126997 53.2226567,23.8867094 53.140625,25.75 L60.6289062,25.75 L60.6289062,25.328125 C60.5468746,23.5234285 60.2216825,22.2343789 59.6533203,21.4609375 C59.0849581,20.6874961 58.2207089,20.3007812 57.0605469,20.3007812 Z M72.6347656,32.2714844 L76.2382812,17.9804688 L79.4023438,17.9804688 L73.7597656,37 L71.4394531,37 L65.7265625,17.9804688 L68.890625,17.9804688 L72.6347656,32.2714844 Z M89.2109375,37.3515625 C86.8437382,37.3515625 85.0273501,36.6455149 83.7617188,35.2333984 C82.4960874,33.821282 81.8515626,31.7500137 81.828125,29.0195312 L81.828125,26.7167969 C81.828125,23.8808452 82.4462829,21.6572346 83.6826172,20.0458984 C84.9189515,18.4345623 86.6445202,17.6289062 88.859375,17.6289062 C91.0859486,17.6289062 92.7499945,18.3378835 93.8515625,19.7558594 C94.9531305,21.1738352 95.5156249,23.3827975 95.5390625,26.3828125 L95.5390625,28.421875 L84.921875,28.421875 L84.921875,28.8613281 C84.921875,30.9004008 85.3056602,32.3828079 86.0732422,33.3085938 C86.8408242,34.2343796 87.9453053,34.6972656 89.3867188,34.6972656 C90.3007858,34.6972656 91.1064418,34.5244158 91.8037109,34.1787109 C92.50098,33.8330061 93.1542938,33.28516 93.7636719,32.5351562 L95.3808594,34.5039062 C94.0331964,36.4023532 91.9765763,37.3515625 89.2109375,37.3515625 Z M88.859375,20.3007812 C87.5703061,20.3007812 86.6152375,20.7431596 85.9941406,21.6279297 C85.3730438,22.5126997 85.0214848,23.8867094 84.9394531,25.75 L92.4277344,25.75 L92.4277344,25.328125 C92.3457027,23.5234285 92.0205107,22.2343789 91.4521484,21.4609375 C90.8837862,20.6874961 90.0195371,20.3007812 88.859375,20.3007812 Z M107.123047,20.8984375 C106.689451,20.8164058 106.220706,20.7753906 105.716797,20.7753906 C104.123039,20.7753906 103.009769,21.6484288 102.376953,23.3945312 L102.376953,37 L99.265625,37 L99.265625,17.9804688 L102.289062,17.9804688 L102.341797,19.9140625 C103.173832,18.3906174 104.351555,17.6289062 105.875,17.6289062 C106.36719,17.6289062 106.777342,17.7109367 107.105469,17.875 L107.123047,20.8984375 Z" fill="#FFFFFF"></path>
            </g>
            <g id="2-3-a-month" transform="translate(69.000000, 280.000000)">
                <rect id="Rectangle-3" fill="#393E43" x="0" y="0" width="640" height="50"></rect>
                <path d="M43.3652344,37 L29.0566406,37 L29.0566406,34.6621094 L36.3515625,24.9941406 C37.4531305,23.5058519 38.2177713,22.2841845 38.6455078,21.3291016 C39.0732443,20.3740187 39.2871094,19.3632866 39.2871094,18.296875 C39.2871094,16.9374932 38.9707063,15.8359417 38.3378906,14.9921875 C37.705075,14.1484333 36.873052,13.7265625 35.8417969,13.7265625 C34.5410091,13.7265625 33.5361364,14.1748002 32.8271484,15.0712891 C32.1181605,15.9677779 31.7636719,17.2597572 31.7636719,18.9472656 L28.6523438,18.9472656 C28.6523438,16.5917851 29.2968686,14.6875073 30.5859375,13.234375 C31.8750064,11.7812427 33.6269421,11.0546875 35.8417969,11.0546875 C37.8808696,11.0546875 39.4863223,11.6787047 40.6582031,12.9267578 C41.830084,14.1748109 42.4160156,15.8359271 42.4160156,17.9101562 C42.4160156,20.4414189 41.0976694,23.4355296 38.4609375,26.8925781 L32.765625,34.3457031 L43.3652344,34.3457031 L43.3652344,37 Z M52.8574219,27.4550781 L45.5976562,27.4550781 L45.5976562,24.8007812 L52.8574219,24.8007812 L52.8574219,27.4550781 Z M59.7304688,22.6210938 L61.7167969,22.6210938 C62.994147,22.6210938 63.9785122,22.2285196 64.6699219,21.4433594 C65.3613316,20.6581992 65.7070312,19.5859443 65.7070312,18.2265625 C65.7070312,15.2265475 64.5468866,13.7265625 62.2265625,13.7265625 C61.1132757,13.7265625 60.2402375,14.1308553 59.6074219,14.9394531 C58.9746062,15.7480509 58.6582031,16.8085872 58.6582031,18.1210938 L55.5644531,18.1210938 C55.5644531,16.0703022 56.1884703,14.3798895 57.4365234,13.0498047 C58.6845766,11.7197199 60.2812403,11.0546875 62.2265625,11.0546875 C64.2421976,11.0546875 65.841791,11.684564 67.0253906,12.9443359 C68.2089903,14.2041079 68.8007812,15.9882697 68.8007812,18.296875 C68.8007812,19.4804747 68.4931671,20.5849558 67.8779297,21.6103516 C67.2626922,22.6357473 66.4628955,23.3886695 65.4785156,23.8691406 C67.8925902,24.7597701 69.0996094,26.757797 69.0996094,29.8632812 C69.0996094,32.1484489 68.4638735,33.9677667 67.1923828,35.3212891 C65.9208921,36.6748115 64.2597759,37.3515625 62.2089844,37.3515625 C60.1816305,37.3515625 58.5439516,36.7099674 57.2958984,35.4267578 C56.0478453,34.1435483 55.4238281,32.4179796 55.4238281,30.25 L58.5351562,30.25 C58.5351562,31.6093818 58.863278,32.6904257 59.5195312,33.4931641 C60.1757845,34.2959025 61.0722599,34.6972656 62.2089844,34.6972656 C63.3691464,34.6972656 64.2919888,34.3046914 64.9775391,33.5195312 C65.6630894,32.7343711 66.0058594,31.5390705 66.0058594,29.9335938 C66.0058594,26.8281095 64.535171,25.2753906 61.59375,25.2753906 L59.7304688,25.2753906 L59.7304688,22.6210938 Z M86.1152344,13.375 L86.1152344,17.9804688 L88.9804688,17.9804688 L88.9804688,20.4941406 L86.1152344,20.4941406 L86.1152344,32.2890625 C86.1152344,33.0390662 86.23828,33.6074199 86.484375,33.9941406 C86.73047,34.3808613 87.1523408,34.5742188 87.75,34.5742188 C88.1601583,34.5742188 88.5761698,34.503907 88.9980469,34.3632812 L88.9628906,37 C88.2597621,37.2343762 87.5390662,37.3515625 86.8007812,37.3515625 C85.5703063,37.3515625 84.6328157,36.9121138 83.9882812,36.0332031 C83.3437468,35.1542925 83.0214844,33.9121174 83.0214844,32.3066406 L83.0214844,20.4941406 L80.1210938,20.4941406 L80.1210938,17.9804688 L83.0214844,17.9804688 L83.0214844,13.375 L86.1152344,13.375 Z M96.0292969,37 L92.9179688,37 L92.9179688,17.9804688 L96.0292969,17.9804688 L96.0292969,37 Z M96.2753906,12.9355469 C96.2753906,13.4628933 96.1289077,13.902342 95.8359375,14.2539062 C95.5429673,14.6054705 95.0976592,14.78125 94.5,14.78125 C93.9140596,14.78125 93.4746108,14.6054705 93.1816406,14.2539062 C92.8886704,13.902342 92.7421875,13.4628933 92.7421875,12.9355469 C92.7421875,12.4082005 92.8886704,11.9628924 93.1816406,11.5996094 C93.4746108,11.2363263 93.9140596,11.0546875 94.5,11.0546875 C95.0859404,11.0546875 95.5283188,11.239256 95.8271484,11.6083984 C96.1259781,11.9775409 96.2753906,12.4199193 96.2753906,12.9355469 Z M103.851562,17.9804688 L103.921875,19.7382812 C105.082037,18.3320242 106.611319,17.6289062 108.509766,17.6289062 C110.63087,17.6289062 112.113277,18.5488189 112.957031,20.3886719 C114.15235,18.5488189 115.816396,17.6289062 117.949219,17.6289062 C121.453143,17.6289062 123.246093,19.8144313 123.328125,24.1855469 L123.328125,37 L120.234375,37 L120.234375,24.484375 C120.234375,23.1015556 119.988284,22.0732456 119.496094,21.3994141 C119.003904,20.7255826 118.171881,20.3886719 117,20.3886719 C116.062495,20.3886719 115.300784,20.7519495 114.714844,21.4785156 C114.128903,22.2050818 113.789063,23.1308537 113.695312,24.2558594 L113.695312,37 L110.566406,37 L110.566406,24.34375 C110.53125,21.7070181 109.458995,20.3886719 107.349609,20.3886719 C105.779289,20.3886719 104.671878,21.1738203 104.027344,22.7441406 L104.027344,37 L100.933594,37 L100.933594,17.9804688 L103.851562,17.9804688 Z M134.806641,37.3515625 C132.439441,37.3515625 130.623053,36.6455149 129.357422,35.2333984 C128.091791,33.821282 127.447266,31.7500137 127.423828,29.0195312 L127.423828,26.7167969 C127.423828,23.8808452 128.041986,21.6572346 129.27832,20.0458984 C130.514655,18.4345623 132.240223,17.6289062 134.455078,17.6289062 C136.681652,17.6289062 138.345698,18.3378835 139.447266,19.7558594 C140.548834,21.1738352 141.111328,23.3827975 141.134766,26.3828125 L141.134766,28.421875 L130.517578,28.421875 L130.517578,28.8613281 C130.517578,30.9004008 130.901363,32.3828079 131.668945,33.3085938 C132.436527,34.2343796 133.541008,34.6972656 134.982422,34.6972656 C135.896489,34.6972656 136.702145,34.5244158 137.399414,34.1787109 C138.096683,33.8330061 138.749997,33.28516 139.359375,32.5351562 L140.976562,34.5039062 C139.6289,36.4023532 137.572279,37.3515625 134.806641,37.3515625 Z M134.455078,20.3007812 C133.166009,20.3007812 132.210941,20.7431596 131.589844,21.6279297 C130.968747,22.5126997 130.617188,23.8867094 130.535156,25.75 L138.023438,25.75 L138.023438,25.328125 C137.941406,23.5234285 137.616214,22.2343789 137.047852,21.4609375 C136.479489,20.6874961 135.61524,20.3007812 134.455078,20.3007812 Z M154.107422,32.1308594 C154.107422,31.4628873 153.855471,30.8886743 153.351562,30.4082031 C152.847654,29.927732 151.875007,29.3652376 150.433594,28.7207031 C148.757804,28.0292934 147.577152,27.4375025 146.891602,26.9453125 C146.206051,26.4531225 145.693361,25.8935578 145.353516,25.2666016 C145.01367,24.6396453 144.84375,23.8925825 144.84375,23.0253906 C144.84375,21.4785079 145.409174,20.1923879 146.540039,19.1669922 C147.670904,18.1415964 149.115226,17.6289062 150.873047,17.6289062 C152.724619,17.6289062 154.212885,18.1679634 155.337891,19.2460938 C156.462896,20.3242241 157.025391,21.7070228 157.025391,23.3945312 L153.931641,23.3945312 C153.931641,22.5390582 153.644534,21.8095733 153.070312,21.2060547 C152.496091,20.602536 151.763676,20.3007812 150.873047,20.3007812 C149.95898,20.3007812 149.241214,20.5380836 148.719727,21.0126953 C148.19824,21.4873071 147.9375,22.1230429 147.9375,22.9199219 C147.9375,23.5527375 148.127928,24.0624981 148.508789,24.4492188 C148.88965,24.8359394 149.806633,25.3457 151.259766,25.9785156 C153.568371,26.8808639 155.138668,27.762691 155.970703,28.6240234 C156.802739,29.4853559 157.21875,30.5781184 157.21875,31.9023438 C157.21875,33.5546958 156.650396,34.8759716 155.513672,35.8662109 C154.376947,36.8564503 152.853525,37.3515625 150.943359,37.3515625 C148.962881,37.3515625 147.357428,36.7832088 146.126953,35.6464844 C144.896478,34.5097599 144.28125,33.0683681 144.28125,31.3222656 L147.410156,31.3222656 C147.445313,32.3769584 147.767575,33.203122 148.376953,33.8007812 C148.986331,34.3984405 149.841791,34.6972656 150.943359,34.6972656 C151.974615,34.6972656 152.759763,34.4658226 153.298828,34.0029297 C153.837893,33.5400367 154.107422,32.9160196 154.107422,32.1308594 Z M179.296875,37 C179.109374,36.5898417 178.97461,35.8984424 178.892578,34.9257812 C177.79101,36.5429768 176.384774,37.3515625 174.673828,37.3515625 C172.951163,37.3515625 171.60645,36.8681689 170.639648,35.9013672 C169.672847,34.9345655 169.189453,33.5722744 169.189453,31.8144531 C169.189453,29.8808497 169.845697,28.3457088 171.158203,27.2089844 C172.47071,26.0722599 174.26952,25.4921876 176.554688,25.46875 L178.839844,25.46875 L178.839844,23.4472656 C178.839844,22.3105412 178.587893,21.5019555 178.083984,21.0214844 C177.580076,20.5410132 176.812505,20.3007812 175.78125,20.3007812 C174.843745,20.3007812 174.082034,20.5790988 173.496094,21.1357422 C172.910153,21.6923856 172.617188,22.3984332 172.617188,23.2539062 L169.505859,23.2539062 C169.505859,22.2812451 169.792966,21.3525435 170.367188,20.4677734 C170.941409,19.5830034 171.714839,18.8886744 172.6875,18.3847656 C173.660161,17.8808569 174.744135,17.6289062 175.939453,17.6289062 C177.884775,17.6289062 179.364253,18.1122999 180.37793,19.0791016 C181.391607,20.0459033 181.910156,21.4550689 181.933594,23.3066406 L181.933594,32.9042969 C181.945313,34.3691479 182.144529,35.6406196 182.53125,36.71875 L182.53125,37 L179.296875,37 Z M175.148438,34.5214844 C175.91016,34.5214844 176.636715,34.310549 177.328125,33.8886719 C178.019535,33.4667948 178.523436,32.9394563 178.839844,32.3066406 L178.839844,27.7714844 L177.082031,27.7714844 C175.605461,27.794922 174.439457,28.1259734 173.583984,28.7646484 C172.728511,29.4033235 172.300781,30.2968693 172.300781,31.4453125 C172.300781,32.5234429 172.517576,33.3056616 172.951172,33.7919922 C173.384768,34.2783227 174.117182,34.5214844 175.148438,34.5214844 Z M197.929688,17.9804688 L198,19.7382812 C199.160162,18.3320242 200.689444,17.6289062 202.587891,17.6289062 C204.708995,17.6289062 206.191402,18.5488189 207.035156,20.3886719 C208.230475,18.5488189 209.894521,17.6289062 212.027344,17.6289062 C215.531268,17.6289062 217.324218,19.8144313 217.40625,24.1855469 L217.40625,37 L214.3125,37 L214.3125,24.484375 C214.3125,23.1015556 214.066409,22.0732456 213.574219,21.3994141 C213.082029,20.7255826 212.250006,20.3886719 211.078125,20.3886719 C210.14062,20.3886719 209.378909,20.7519495 208.792969,21.4785156 C208.207028,22.2050818 207.867188,23.1308537 207.773438,24.2558594 L207.773438,37 L204.644531,37 L204.644531,24.34375 C204.609375,21.7070181 203.53712,20.3886719 201.427734,20.3886719 C199.857414,20.3886719 198.750003,21.1738203 198.105469,22.7441406 L198.105469,37 L195.011719,37 L195.011719,17.9804688 L197.929688,17.9804688 Z M221.431641,26.6113281 C221.431641,23.8456893 222.102532,21.6572346 223.444336,20.0458984 C224.78614,18.4345623 226.558583,17.6289062 228.761719,17.6289062 C230.964855,17.6289062 232.737298,18.4140546 234.079102,19.984375 C235.420905,21.5546954 236.109375,23.6933458 236.144531,26.4003906 L236.144531,28.4042969 C236.144531,31.1582169 235.476569,33.3378826 234.140625,34.9433594 C232.804681,36.5488362 231.023449,37.3515625 228.796875,37.3515625 C226.593739,37.3515625 224.827155,36.5722734 223.49707,35.0136719 C222.166986,33.4550703 221.478516,31.3457164 221.431641,28.6855469 L221.431641,26.6113281 Z M224.542969,28.4042969 C224.542969,30.3613379 224.926754,31.8994085 225.694336,33.0185547 C226.461918,34.1377009 227.496087,34.6972656 228.796875,34.6972656 C231.539076,34.6972656 232.951171,32.7168167 233.033203,28.7558594 L233.033203,26.6113281 C233.033203,24.6660059 232.646488,23.1279353 231.873047,21.9970703 C231.099606,20.8662053 230.062507,20.3007812 228.761719,20.3007812 C227.484369,20.3007812 226.461918,20.8662053 225.694336,21.9970703 C224.926754,23.1279353 224.542969,24.6601466 224.542969,26.59375 L224.542969,28.4042969 Z M243.087891,17.9804688 L243.175781,20.0371094 C244.382819,18.4316326 245.923819,17.6289062 247.798828,17.6289062 C251.162126,17.6289062 252.867187,19.8730244 252.914062,24.3613281 L252.914062,37 L249.820312,37 L249.820312,24.5019531 C249.820312,23.0136644 249.571292,21.9560578 249.073242,21.3291016 C248.575193,20.7021453 247.82813,20.3886719 246.832031,20.3886719 C246.05859,20.3886719 245.364261,20.6464818 244.749023,21.1621094 C244.133786,21.677737 243.638674,22.3515583 243.263672,23.1835938 L243.263672,37 L240.152344,37 L240.152344,17.9804688 L243.087891,17.9804688 Z M261.650391,13.375 L261.650391,17.9804688 L264.515625,17.9804688 L264.515625,20.4941406 L261.650391,20.4941406 L261.650391,32.2890625 C261.650391,33.0390662 261.773436,33.6074199 262.019531,33.9941406 C262.265626,34.3808613 262.687497,34.5742188 263.285156,34.5742188 C263.695315,34.5742188 264.111326,34.503907 264.533203,34.3632812 L264.498047,37 C263.794918,37.2343762 263.074222,37.3515625 262.335938,37.3515625 C261.105463,37.3515625 260.167972,36.9121138 259.523438,36.0332031 C258.878903,35.1542925 258.556641,33.9121174 258.556641,32.3066406 L258.556641,20.4941406 L255.65625,20.4941406 L255.65625,17.9804688 L258.556641,17.9804688 L258.556641,13.375 L261.650391,13.375 Z M271.318359,19.9316406 C272.501959,18.3964767 274.013663,17.6289062 275.853516,17.6289062 C279.216814,17.6289062 280.921875,19.8730244 280.96875,24.3613281 L280.96875,37 L277.875,37 L277.875,24.5019531 C277.875,23.0136644 277.625979,21.9560578 277.12793,21.3291016 C276.62988,20.7021453 275.882817,20.3886719 274.886719,20.3886719 C274.113277,20.3886719 273.418948,20.6464818 272.803711,21.1621094 C272.188473,21.677737 271.693361,22.3515583 271.318359,23.1835938 L271.318359,37 L268.207031,37 L268.207031,10 L271.318359,10 L271.318359,19.9316406 Z" id="2-3-times-a-month" fill="#FFFFFF"></path>
            </g>
            <g id="Once-a-month" transform="translate(70.000000, 355.000000)">
                <rect id="Rectangle-4" fill="#393E43" x="0" y="0" width="855" height="50"></rect>
                <path d="M45.40625,23.453125 C45.40625,26.94533 44.6621168,29.6347562 43.1738281,31.5214844 C41.6855394,33.4082126 39.5703262,34.3515625 36.828125,34.3515625 C34.1913931,34.3515625 32.1084061,33.4345795 30.5791016,31.6005859 C29.049797,29.7665924 28.2558597,27.1738449 28.1972656,23.8222656 L28.1972656,19.0058594 C28.1972656,15.5839673 28.9531174,12.90333 30.4648438,10.9638672 C31.9765701,9.02440437 34.085924,8.0546875 36.7929688,8.0546875 C39.4882947,8.0546875 41.5888597,8.98338915 43.0947266,10.8408203 C44.6005935,12.6982515 45.3710936,15.3495921 45.40625,18.7949219 L45.40625,23.453125 Z M42.1894531,18.9707031 C42.1894531,16.2636583 41.7470747,14.2509832 40.8623047,12.9326172 C39.9775346,11.6142512 38.6211029,10.9550781 36.7929688,10.9550781 C35.0234287,10.9550781 33.6845749,11.6230402 32.7763672,12.9589844 C31.8681595,14.2949286 31.4082032,16.2636589 31.3964844,18.8652344 L31.3964844,23.453125 C31.3964844,26.0664193 31.8505814,28.0585869 32.7587891,29.4296875 C33.6669967,30.8007881 35.0234285,31.4863281 36.828125,31.4863281 C38.6328215,31.4863281 39.9687457,30.853522 40.8359375,29.5878906 C41.7031293,28.3222593 42.1542967,26.3828256 42.1894531,23.7695312 L42.1894531,18.9707031 Z M52.8769531,14.9804688 L52.9648438,17.0371094 C54.171881,15.4316326 55.7128813,14.6289062 57.5878906,14.6289062 C60.9511887,14.6289062 62.6562498,16.8730244 62.703125,21.3613281 L62.703125,34 L59.609375,34 L59.609375,21.5019531 C59.609375,20.0136644 59.3603541,18.9560578 58.8623047,18.3291016 C58.3642553,17.7021453 57.6171925,17.3886719 56.6210938,17.3886719 C55.8476524,17.3886719 55.1533234,17.6464818 54.5380859,18.1621094 C53.9228485,18.677737 53.4277362,19.3515583 53.0527344,20.1835938 L53.0527344,34 L49.9414062,34 L49.9414062,14.9804688 L52.8769531,14.9804688 Z M73.9707031,31.6972656 C75.0019583,31.6972656 75.8281219,31.3779329 76.4492188,30.7392578 C77.0703156,30.1005827 77.410156,29.189459 77.46875,28.0058594 L80.4042969,28.0058594 C80.333984,29.8339935 79.6865296,31.3486268 78.4619141,32.5498047 C77.2372986,33.7509826 75.7402432,34.3515625 73.9707031,34.3515625 C71.6152226,34.3515625 69.8193421,33.610359 68.5830078,32.1279297 C67.3466735,30.6455004 66.7285156,28.4394678 66.7285156,25.5097656 L66.7285156,23.4179688 C66.7285156,20.5468606 67.3437438,18.3642653 68.5742188,16.8701172 C69.8046937,15.3759691 71.5976445,14.6289062 73.953125,14.6289062 C75.8984472,14.6289062 77.4423771,15.2441345 78.5849609,16.4746094 C79.7275448,17.7050843 80.333984,19.3867081 80.4042969,21.5195312 L77.46875,21.5195312 C77.3984371,20.1132742 77.0615265,19.0585973 76.4580078,18.3554688 C75.8544892,17.6523402 75.0195366,17.3007812 73.953125,17.3007812 C72.5703056,17.3007812 71.5449252,17.7548783 70.8769531,18.6630859 C70.208981,19.5712936 69.8632814,21.0624896 69.8398438,23.1367188 L69.8398438,25.5625 C69.8398438,27.8007924 70.1708951,29.3828079 70.8330078,30.3085938 C71.4951205,31.2343796 72.5410085,31.6972656 73.9707031,31.6972656 Z M90.7929688,34.3515625 C88.4257694,34.3515625 86.6093813,33.6455149 85.34375,32.2333984 C84.0781187,30.821282 83.4335939,28.7500137 83.4101562,26.0195312 L83.4101562,23.7167969 C83.4101562,20.8808452 84.0283141,18.6572346 85.2646484,17.0458984 C86.5009827,15.4345623 88.2265514,14.6289062 90.4414062,14.6289062 C92.6679799,14.6289062 94.3320257,15.3378835 95.4335938,16.7558594 C96.5351618,18.1738352 97.0976561,20.3827975 97.1210938,23.3828125 L97.1210938,25.421875 L86.5039062,25.421875 L86.5039062,25.8613281 C86.5039062,27.9004008 86.8876915,29.3828079 87.6552734,30.3085938 C88.4228554,31.2343796 89.5273365,31.6972656 90.96875,31.6972656 C91.8828171,31.6972656 92.6884731,31.5244158 93.3857422,31.1787109 C94.0830113,30.8330061 94.7363251,30.28516 95.3457031,29.5351562 L96.9628906,31.5039062 C95.6152276,33.4023532 93.5586076,34.3515625 90.7929688,34.3515625 Z M90.4414062,17.3007812 C89.1523373,17.3007812 88.1972687,17.7431596 87.5761719,18.6279297 C86.955075,19.5126997 86.603516,20.8867094 86.5214844,22.75 L94.0097656,22.75 L94.0097656,22.328125 C93.927734,20.5234285 93.6025419,19.2343789 93.0341797,18.4609375 C92.4658175,17.6874961 91.6015683,17.3007812 90.4414062,17.3007812 Z M118.882812,34 C118.695312,33.5898417 118.560547,32.8984424 118.478516,31.9257812 C117.376948,33.5429768 115.970712,34.3515625 114.259766,34.3515625 C112.537101,34.3515625 111.192388,33.8681689 110.225586,32.9013672 C109.258784,31.9345655 108.775391,30.5722744 108.775391,28.8144531 C108.775391,26.8808497 109.431634,25.3457088 110.744141,24.2089844 C112.056647,23.0722599 113.855457,22.4921876 116.140625,22.46875 L118.425781,22.46875 L118.425781,20.4472656 C118.425781,19.3105412 118.173831,18.5019555 117.669922,18.0214844 C117.166013,17.5410132 116.398443,17.3007812 115.367188,17.3007812 C114.429683,17.3007812 113.667972,17.5790988 113.082031,18.1357422 C112.496091,18.6923856 112.203125,19.3984332 112.203125,20.2539062 L109.091797,20.2539062 C109.091797,19.2812451 109.378903,18.3525435 109.953125,17.4677734 C110.527347,16.5830034 111.300776,15.8886744 112.273438,15.3847656 C113.246099,14.8808569 114.330072,14.6289062 115.525391,14.6289062 C117.470713,14.6289062 118.95019,15.1122999 119.963867,16.0791016 C120.977544,17.0459033 121.496094,18.4550689 121.519531,20.3066406 L121.519531,29.9042969 C121.53125,31.3691479 121.730467,32.6406196 122.117188,33.71875 L122.117188,34 L118.882812,34 Z M114.734375,31.5214844 C115.496098,31.5214844 116.222653,31.310549 116.914062,30.8886719 C117.605472,30.4667948 118.109373,29.9394563 118.425781,29.3066406 L118.425781,24.7714844 L116.667969,24.7714844 C115.191399,24.794922 114.025395,25.1259734 113.169922,25.7646484 C112.314449,26.4033235 111.886719,27.2968693 111.886719,28.4453125 C111.886719,29.5234429 112.103513,30.3056616 112.537109,30.7919922 C112.970705,31.2783227 113.70312,31.5214844 114.734375,31.5214844 Z M137.515625,14.9804688 L137.585938,16.7382812 C138.7461,15.3320242 140.275381,14.6289062 142.173828,14.6289062 C144.294932,14.6289062 145.77734,15.5488189 146.621094,17.3886719 C147.816412,15.5488189 149.480458,14.6289062 151.613281,14.6289062 C155.117205,14.6289062 156.910156,16.8144313 156.992188,21.1855469 L156.992188,34 L153.898438,34 L153.898438,21.484375 C153.898438,20.1015556 153.652346,19.0732456 153.160156,18.3994141 C152.667966,17.7255826 151.835943,17.3886719 150.664062,17.3886719 C149.726558,17.3886719 148.964847,17.7519495 148.378906,18.4785156 C147.792966,19.2050818 147.453125,20.1308537 147.359375,21.2558594 L147.359375,34 L144.230469,34 L144.230469,21.34375 C144.195312,18.7070181 143.123057,17.3886719 141.013672,17.3886719 C139.443352,17.3886719 138.335941,18.1738203 137.691406,19.7441406 L137.691406,34 L134.597656,34 L134.597656,14.9804688 L137.515625,14.9804688 Z M161.017578,23.6113281 C161.017578,20.8456893 161.68847,18.6572346 163.030273,17.0458984 C164.372077,15.4345623 166.14452,14.6289062 168.347656,14.6289062 C170.550792,14.6289062 172.323235,15.4140546 173.665039,16.984375 C175.006843,18.5546954 175.695312,20.6933458 175.730469,23.4003906 L175.730469,25.4042969 C175.730469,28.1582169 175.062507,30.3378826 173.726562,31.9433594 C172.390618,33.5488362 170.609386,34.3515625 168.382812,34.3515625 C166.179676,34.3515625 164.413093,33.5722734 163.083008,32.0136719 C161.752923,30.4550703 161.064453,28.3457164 161.017578,25.6855469 L161.017578,23.6113281 Z M164.128906,25.4042969 C164.128906,27.3613379 164.512691,28.8994085 165.280273,30.0185547 C166.047855,31.1377009 167.082025,31.6972656 168.382812,31.6972656 C171.125014,31.6972656 172.537109,29.7168167 172.619141,25.7558594 L172.619141,23.6113281 C172.619141,21.6660059 172.232426,20.1279353 171.458984,18.9970703 C170.685543,17.8662053 169.648444,17.3007812 168.347656,17.3007812 C167.070306,17.3007812 166.047855,17.8662053 165.280273,18.9970703 C164.512691,20.1279353 164.128906,21.6601466 164.128906,23.59375 L164.128906,25.4042969 Z M182.673828,14.9804688 L182.761719,17.0371094 C183.968756,15.4316326 185.509756,14.6289062 187.384766,14.6289062 C190.748064,14.6289062 192.453125,16.8730244 192.5,21.3613281 L192.5,34 L189.40625,34 L189.40625,21.5019531 C189.40625,20.0136644 189.157229,18.9560578 188.65918,18.3291016 C188.16113,17.7021453 187.414067,17.3886719 186.417969,17.3886719 C185.644527,17.3886719 184.950198,17.6464818 184.334961,18.1621094 C183.719723,18.677737 183.224611,19.3515583 182.849609,20.1835938 L182.849609,34 L179.738281,34 L179.738281,14.9804688 L182.673828,14.9804688 Z M201.236328,10.375 L201.236328,14.9804688 L204.101562,14.9804688 L204.101562,17.4941406 L201.236328,17.4941406 L201.236328,29.2890625 C201.236328,30.0390662 201.359374,30.6074199 201.605469,30.9941406 C201.851564,31.3808613 202.273435,31.5742188 202.871094,31.5742188 C203.281252,31.5742188 203.697264,31.503907 204.119141,31.3632812 L204.083984,34 C203.380856,34.2343762 202.66016,34.3515625 201.921875,34.3515625 C200.6914,34.3515625 199.753909,33.9121138 199.109375,33.0332031 C198.464841,32.1542925 198.142578,30.9121174 198.142578,29.3066406 L198.142578,17.4941406 L195.242188,17.4941406 L195.242188,14.9804688 L198.142578,14.9804688 L198.142578,10.375 L201.236328,10.375 Z M210.904297,16.9316406 C212.087897,15.3964767 213.5996,14.6289062 215.439453,14.6289062 C218.802751,14.6289062 220.507812,16.8730244 220.554688,21.3613281 L220.554688,34 L217.460938,34 L217.460938,21.5019531 C217.460938,20.0136644 217.211917,18.9560578 216.713867,18.3291016 C216.215818,17.7021453 215.468755,17.3886719 214.472656,17.3886719 C213.699215,17.3886719 213.004886,17.6464818 212.389648,18.1621094 C211.774411,18.677737 211.279299,19.3515583 210.904297,20.1835938 L210.904297,34 L207.792969,34 L207.792969,7 L210.904297,7 L210.904297,16.9316406 Z" fill="#FFFFFF"></path>
            </g>
            <g id="Once-a-week" transform="translate(70.000000, 205.000000)">
                <rect id="Rectangle-5" fill="#393E43" x="0" y="0" width="1300" height="50"></rect>
                <path d="M45.40625,27.453125 C45.40625,30.94533 44.6621168,33.6347562 43.1738281,35.5214844 C41.6855394,37.4082126 39.5703262,38.3515625 36.828125,38.3515625 C34.1913931,38.3515625 32.1084061,37.4345795 30.5791016,35.6005859 C29.049797,33.7665924 28.2558597,31.1738449 28.1972656,27.8222656 L28.1972656,23.0058594 C28.1972656,19.5839673 28.9531174,16.90333 30.4648438,14.9638672 C31.9765701,13.0244044 34.085924,12.0546875 36.7929688,12.0546875 C39.4882947,12.0546875 41.5888597,12.9833892 43.0947266,14.8408203 C44.6005935,16.6982515 45.3710936,19.3495921 45.40625,22.7949219 L45.40625,27.453125 Z M42.1894531,22.9707031 C42.1894531,20.2636583 41.7470747,18.2509832 40.8623047,16.9326172 C39.9775346,15.6142512 38.6211029,14.9550781 36.7929688,14.9550781 C35.0234287,14.9550781 33.6845749,15.6230402 32.7763672,16.9589844 C31.8681595,18.2949286 31.4082032,20.2636589 31.3964844,22.8652344 L31.3964844,27.453125 C31.3964844,30.0664193 31.8505814,32.0585869 32.7587891,33.4296875 C33.6669967,34.8007881 35.0234285,35.4863281 36.828125,35.4863281 C38.6328215,35.4863281 39.9687457,34.853522 40.8359375,33.5878906 C41.7031293,32.3222593 42.1542967,30.3828256 42.1894531,27.7695312 L42.1894531,22.9707031 Z M52.8769531,18.9804688 L52.9648438,21.0371094 C54.171881,19.4316326 55.7128813,18.6289062 57.5878906,18.6289062 C60.9511887,18.6289062 62.6562498,20.8730244 62.703125,25.3613281 L62.703125,38 L59.609375,38 L59.609375,25.5019531 C59.609375,24.0136644 59.3603541,22.9560578 58.8623047,22.3291016 C58.3642553,21.7021453 57.6171925,21.3886719 56.6210938,21.3886719 C55.8476524,21.3886719 55.1533234,21.6464818 54.5380859,22.1621094 C53.9228485,22.677737 53.4277362,23.3515583 53.0527344,24.1835938 L53.0527344,38 L49.9414062,38 L49.9414062,18.9804688 L52.8769531,18.9804688 Z M73.9707031,35.6972656 C75.0019583,35.6972656 75.8281219,35.3779329 76.4492188,34.7392578 C77.0703156,34.1005827 77.410156,33.189459 77.46875,32.0058594 L80.4042969,32.0058594 C80.333984,33.8339935 79.6865296,35.3486268 78.4619141,36.5498047 C77.2372986,37.7509826 75.7402432,38.3515625 73.9707031,38.3515625 C71.6152226,38.3515625 69.8193421,37.610359 68.5830078,36.1279297 C67.3466735,34.6455004 66.7285156,32.4394678 66.7285156,29.5097656 L66.7285156,27.4179688 C66.7285156,24.5468606 67.3437438,22.3642653 68.5742188,20.8701172 C69.8046937,19.3759691 71.5976445,18.6289062 73.953125,18.6289062 C75.8984472,18.6289062 77.4423771,19.2441345 78.5849609,20.4746094 C79.7275448,21.7050843 80.333984,23.3867081 80.4042969,25.5195312 L77.46875,25.5195312 C77.3984371,24.1132742 77.0615265,23.0585973 76.4580078,22.3554688 C75.8544892,21.6523402 75.0195366,21.3007812 73.953125,21.3007812 C72.5703056,21.3007812 71.5449252,21.7548783 70.8769531,22.6630859 C70.208981,23.5712936 69.8632814,25.0624896 69.8398438,27.1367188 L69.8398438,29.5625 C69.8398438,31.8007924 70.1708951,33.3828079 70.8330078,34.3085938 C71.4951205,35.2343796 72.5410085,35.6972656 73.9707031,35.6972656 Z M90.7929688,38.3515625 C88.4257694,38.3515625 86.6093813,37.6455149 85.34375,36.2333984 C84.0781187,34.821282 83.4335939,32.7500137 83.4101562,30.0195312 L83.4101562,27.7167969 C83.4101562,24.8808452 84.0283141,22.6572346 85.2646484,21.0458984 C86.5009827,19.4345623 88.2265514,18.6289062 90.4414062,18.6289062 C92.6679799,18.6289062 94.3320257,19.3378835 95.4335938,20.7558594 C96.5351618,22.1738352 97.0976561,24.3827975 97.1210938,27.3828125 L97.1210938,29.421875 L86.5039062,29.421875 L86.5039062,29.8613281 C86.5039062,31.9004008 86.8876915,33.3828079 87.6552734,34.3085938 C88.4228554,35.2343796 89.5273365,35.6972656 90.96875,35.6972656 C91.8828171,35.6972656 92.6884731,35.5244158 93.3857422,35.1787109 C94.0830113,34.8330061 94.7363251,34.28516 95.3457031,33.5351562 L96.9628906,35.5039062 C95.6152276,37.4023532 93.5586076,38.3515625 90.7929688,38.3515625 Z M90.4414062,21.3007812 C89.1523373,21.3007812 88.1972687,21.7431596 87.5761719,22.6279297 C86.955075,23.5126997 86.603516,24.8867094 86.5214844,26.75 L94.0097656,26.75 L94.0097656,26.328125 C93.927734,24.5234285 93.6025419,23.2343789 93.0341797,22.4609375 C92.4658175,21.6874961 91.6015683,21.3007812 90.4414062,21.3007812 Z M118.882812,38 C118.695312,37.5898417 118.560547,36.8984424 118.478516,35.9257812 C117.376948,37.5429768 115.970712,38.3515625 114.259766,38.3515625 C112.537101,38.3515625 111.192388,37.8681689 110.225586,36.9013672 C109.258784,35.9345655 108.775391,34.5722744 108.775391,32.8144531 C108.775391,30.8808497 109.431634,29.3457088 110.744141,28.2089844 C112.056647,27.0722599 113.855457,26.4921876 116.140625,26.46875 L118.425781,26.46875 L118.425781,24.4472656 C118.425781,23.3105412 118.173831,22.5019555 117.669922,22.0214844 C117.166013,21.5410132 116.398443,21.3007812 115.367188,21.3007812 C114.429683,21.3007812 113.667972,21.5790988 113.082031,22.1357422 C112.496091,22.6923856 112.203125,23.3984332 112.203125,24.2539062 L109.091797,24.2539062 C109.091797,23.2812451 109.378903,22.3525435 109.953125,21.4677734 C110.527347,20.5830034 111.300776,19.8886744 112.273438,19.3847656 C113.246099,18.8808569 114.330072,18.6289062 115.525391,18.6289062 C117.470713,18.6289062 118.95019,19.1122999 119.963867,20.0791016 C120.977544,21.0459033 121.496094,22.4550689 121.519531,24.3066406 L121.519531,33.9042969 C121.53125,35.3691479 121.730467,36.6406196 122.117188,37.71875 L122.117188,38 L118.882812,38 Z M114.734375,35.5214844 C115.496098,35.5214844 116.222653,35.310549 116.914062,34.8886719 C117.605472,34.4667948 118.109373,33.9394563 118.425781,33.3066406 L118.425781,28.7714844 L116.667969,28.7714844 C115.191399,28.794922 114.025395,29.1259734 113.169922,29.7646484 C112.314449,30.4033235 111.886719,31.2968693 111.886719,32.4453125 C111.886719,33.5234429 112.103513,34.3056616 112.537109,34.7919922 C112.970705,35.2783227 113.70312,35.5214844 114.734375,35.5214844 Z M148.765625,32.5332031 L151.648438,18.9804688 L154.724609,18.9804688 L150.066406,38 L147.587891,38 L143.878906,24.3945312 L140.257812,38 L137.761719,38 L133.138672,18.9804688 L136.197266,18.9804688 L139.150391,32.1992188 L142.683594,18.9804688 L145.144531,18.9804688 L148.765625,32.5332031 Z M164.779297,38.3515625 C162.412098,38.3515625 160.595709,37.6455149 159.330078,36.2333984 C158.064447,34.821282 157.419922,32.7500137 157.396484,30.0195312 L157.396484,27.7167969 C157.396484,24.8808452 158.014642,22.6572346 159.250977,21.0458984 C160.487311,19.4345623 162.21288,18.6289062 164.427734,18.6289062 C166.654308,18.6289062 168.318354,19.3378835 169.419922,20.7558594 C170.52149,22.1738352 171.083984,24.3827975 171.107422,27.3828125 L171.107422,29.421875 L160.490234,29.421875 L160.490234,29.8613281 C160.490234,31.9004008 160.87402,33.3828079 161.641602,34.3085938 C162.409184,35.2343796 163.513665,35.6972656 164.955078,35.6972656 C165.869145,35.6972656 166.674801,35.5244158 167.37207,35.1787109 C168.069339,34.8330061 168.722653,34.28516 169.332031,33.5351562 L170.949219,35.5039062 C169.601556,37.4023532 167.544936,38.3515625 164.779297,38.3515625 Z M164.427734,21.3007812 C163.138665,21.3007812 162.183597,21.7431596 161.5625,22.6279297 C160.941403,23.5126997 160.589844,24.8867094 160.507812,26.75 L167.996094,26.75 L167.996094,26.328125 C167.914062,24.5234285 167.58887,23.2343789 167.020508,22.4609375 C166.452146,21.6874961 165.587896,21.3007812 164.427734,21.3007812 Z M181.636719,38.3515625 C179.269519,38.3515625 177.453131,37.6455149 176.1875,36.2333984 C174.921869,34.821282 174.277344,32.7500137 174.253906,30.0195312 L174.253906,27.7167969 C174.253906,24.8808452 174.872064,22.6572346 176.108398,21.0458984 C177.344733,19.4345623 179.070301,18.6289062 181.285156,18.6289062 C183.51173,18.6289062 185.175776,19.3378835 186.277344,20.7558594 C187.378912,22.1738352 187.941406,24.3827975 187.964844,27.3828125 L187.964844,29.421875 L177.347656,29.421875 L177.347656,29.8613281 C177.347656,31.9004008 177.731441,33.3828079 178.499023,34.3085938 C179.266605,35.2343796 180.371087,35.6972656 181.8125,35.6972656 C182.726567,35.6972656 183.532223,35.5244158 184.229492,35.1787109 C184.926761,34.8330061 185.580075,34.28516 186.189453,33.5351562 L187.806641,35.5039062 C186.458978,37.4023532 184.402358,38.3515625 181.636719,38.3515625 Z M181.285156,21.3007812 C179.996087,21.3007812 179.041019,21.7431596 178.419922,22.6279297 C177.798825,23.5126997 177.447266,24.8867094 177.365234,26.75 L184.853516,26.75 L184.853516,26.328125 C184.771484,24.5234285 184.446292,23.2343789 183.87793,22.4609375 C183.309567,21.6874961 182.445318,21.3007812 181.285156,21.3007812 Z M196.472656,29.2988281 L194.820312,31.1972656 L194.820312,38 L191.708984,38 L191.708984,11 L194.820312,11 L194.820312,27.1542969 L200.744141,18.9804688 L204.470703,18.9804688 L198.423828,26.9257812 L205.261719,38 L201.640625,38 L196.472656,29.2988281 Z" fill="#FFFFFF"></path>
            </g>
            <path d="M105.640625,61 L102.248047,61 L102.248047,49.1699219 L89.3457031,49.1699219 L89.3457031,61 L85.9707031,61 L85.9707031,35.40625 L89.3457031,35.40625 L89.3457031,46.4101562 L102.248047,46.4101562 L102.248047,35.40625 L105.640625,35.40625 L105.640625,61 Z M110.263672,51.3144531 C110.263672,49.4511626 110.629879,47.7753981 111.362305,46.2871094 C112.09473,44.7988207 113.114251,43.6503947 114.420898,42.8417969 C115.727546,42.0331991 117.218742,41.6289062 118.894531,41.6289062 C121.484388,41.6289062 123.579094,42.5253817 125.178711,44.3183594 C126.778328,46.1113371 127.578125,48.4960789 127.578125,51.4726562 L127.578125,51.7011719 C127.578125,53.5527436 127.223636,55.2138598 126.514648,56.6845703 C125.805661,58.1552808 124.791999,59.3007771 123.473633,60.1210938 C122.155267,60.9414104 120.640634,61.3515625 118.929688,61.3515625 C116.35155,61.3515625 114.262703,60.4550871 112.663086,58.6621094 C111.063469,56.8691317 110.263672,54.4961085 110.263672,51.5429688 L110.263672,51.3144531 Z M113.533203,51.7011719 C113.533203,53.8105574 114.022456,55.5038999 115.000977,56.78125 C115.979497,58.0586001 117.289054,58.6972656 118.929688,58.6972656 C120.58204,58.6972656 121.894526,58.0498112 122.867188,56.7548828 C123.839849,55.4599545 124.326172,53.646496 124.326172,51.3144531 C124.326172,49.2285052 123.83106,47.5380924 122.84082,46.2431641 C121.850581,44.9482357 120.535164,44.3007812 118.894531,44.3007812 C117.289054,44.3007812 115.994146,44.9394467 115.009766,46.2167969 C114.025386,47.494147 113.533203,49.3222537 113.533203,51.7011719 Z M148.496094,56.5175781 L152.152344,41.9804688 L155.404297,41.9804688 L149.867188,61 L147.230469,61 L142.607422,46.5859375 L138.107422,61 L135.470703,61 L129.951172,41.9804688 L133.185547,41.9804688 L136.929688,56.21875 L141.359375,41.9804688 L143.978516,41.9804688 L148.496094,56.5175781 Z M166.759766,51.3144531 C166.759766,49.4511626 167.125973,47.7753981 167.858398,46.2871094 C168.590824,44.7988207 169.610345,43.6503947 170.916992,42.8417969 C172.223639,42.0331991 173.714835,41.6289062 175.390625,41.6289062 C177.980482,41.6289062 180.075187,42.5253817 181.674805,44.3183594 C183.274422,46.1113371 184.074219,48.4960789 184.074219,51.4726562 L184.074219,51.7011719 C184.074219,53.5527436 183.71973,55.2138598 183.010742,56.6845703 C182.301754,58.1552808 181.288093,59.3007771 179.969727,60.1210938 C178.651361,60.9414104 177.136727,61.3515625 175.425781,61.3515625 C172.847643,61.3515625 170.758797,60.4550871 169.15918,58.6621094 C167.559562,56.8691317 166.759766,54.4961085 166.759766,51.5429688 L166.759766,51.3144531 Z M170.029297,51.7011719 C170.029297,53.8105574 170.51855,55.5038999 171.49707,56.78125 C172.475591,58.0586001 173.785148,58.6972656 175.425781,58.6972656 C177.078133,58.6972656 178.39062,58.0498112 179.363281,56.7548828 C180.335942,55.4599545 180.822266,53.646496 180.822266,51.3144531 C180.822266,49.2285052 180.327153,47.5380924 179.336914,46.2431641 C178.346675,44.9482357 177.031258,44.3007812 175.390625,44.3007812 C173.785148,44.3007812 172.490239,44.9394467 171.505859,46.2167969 C170.521479,47.494147 170.029297,49.3222537 170.029297,51.7011719 Z M189.751953,61 L189.751953,44.4941406 L186.746094,44.4941406 L186.746094,41.9804688 L189.751953,41.9804688 L189.751953,40.0292969 C189.751953,37.9902242 190.29687,36.4140681 191.386719,35.3007812 C192.476568,34.1874944 194.017568,33.6308594 196.009766,33.6308594 C196.759769,33.6308594 197.503903,33.7304678 198.242188,33.9296875 L198.066406,36.5664062 C197.515622,36.460937 196.929691,36.4082031 196.308594,36.4082031 C195.253901,36.4082031 194.439456,36.7158172 193.865234,37.3310547 C193.291013,37.9462921 193.003906,38.8281193 193.003906,39.9765625 L193.003906,41.9804688 L197.064453,41.9804688 L197.064453,44.4941406 L193.003906,44.4941406 L193.003906,61 L189.751953,61 Z M205.0625,37.375 L205.0625,41.9804688 L208.613281,41.9804688 L208.613281,44.4941406 L205.0625,44.4941406 L205.0625,56.2890625 C205.0625,57.0507851 205.220702,57.6220684 205.537109,58.0029297 C205.853517,58.383791 206.392574,58.5742188 207.154297,58.5742188 C207.529299,58.5742188 208.044919,58.503907 208.701172,58.3632812 L208.701172,61 C207.845699,61.2343762 207.013676,61.3515625 206.205078,61.3515625 C204.751946,61.3515625 203.656254,60.9121138 202.917969,60.0332031 C202.179684,59.1542925 201.810547,57.9062581 201.810547,56.2890625 L201.810547,44.4941406 L198.347656,44.4941406 L198.347656,41.9804688 L201.810547,41.9804688 L201.810547,37.375 L205.0625,37.375 Z M220.302734,61.3515625 C217.724596,61.3515625 215.626961,60.5048913 214.009766,58.8115234 C212.39257,57.1181556 211.583984,54.8535298 211.583984,52.0175781 L211.583984,51.4199219 C211.583984,49.5331937 211.944332,47.8486402 212.665039,46.3662109 C213.385746,44.8837817 214.393548,43.723637 215.688477,42.8857422 C216.983405,42.0478474 218.386711,41.6289062 219.898438,41.6289062 C222.371106,41.6289062 224.292962,42.4433512 225.664062,44.0722656 C227.035163,45.70118 227.720703,48.0331879 227.720703,51.0683594 L227.720703,52.421875 L214.835938,52.421875 C214.882813,54.2968844 215.430659,55.8115177 216.479492,56.9658203 C217.528326,58.120123 218.86132,58.6972656 220.478516,58.6972656 C221.626959,58.6972656 222.599605,58.462893 223.396484,57.9941406 C224.193363,57.5253883 224.890622,56.9043007 225.488281,56.1308594 L227.474609,57.6777344 C225.880851,60.1269654 223.49025,61.3515625 220.302734,61.3515625 Z M219.898438,44.3007812 C218.585931,44.3007812 217.484379,44.7783155 216.59375,45.7333984 C215.703121,46.6884813 215.152345,48.0273351 214.941406,49.75 L224.46875,49.75 L224.46875,49.5039062 C224.375,47.8515542 223.929691,46.5712936 223.132812,45.6630859 C222.335934,44.7548783 221.257819,44.3007812 219.898438,44.3007812 Z M234.558594,41.9804688 L234.664062,44.3710938 C236.117195,42.5429596 238.015613,41.6289062 240.359375,41.6289062 C244.378926,41.6289062 246.40625,43.8964617 246.441406,48.4316406 L246.441406,61 L243.189453,61 L243.189453,48.4140625 C243.177734,47.0429619 242.864261,46.0293002 242.249023,45.3730469 C241.633786,44.7167936 240.675788,44.3886719 239.375,44.3886719 C238.320307,44.3886719 237.394535,44.6699191 236.597656,45.2324219 C235.800777,45.7949247 235.17969,46.5331986 234.734375,47.4472656 L234.734375,61 L231.482422,61 L231.482422,41.9804688 L234.558594,41.9804688 Z M261.857422,61 L261.857422,44.4941406 L258.851562,44.4941406 L258.851562,41.9804688 L261.857422,41.9804688 L261.857422,40.0292969 C261.857422,37.9902242 262.402338,36.4140681 263.492188,35.3007812 C264.582037,34.1874944 266.123037,33.6308594 268.115234,33.6308594 C268.865238,33.6308594 269.609371,33.7304678 270.347656,33.9296875 L270.171875,36.5664062 C269.621091,36.460937 269.035159,36.4082031 268.414062,36.4082031 C267.35937,36.4082031 266.544925,36.7158172 265.970703,37.3310547 C265.396482,37.9462921 265.109375,38.8281193 265.109375,39.9765625 L265.109375,41.9804688 L269.169922,41.9804688 L269.169922,44.4941406 L265.109375,44.4941406 L265.109375,61 L261.857422,61 Z M271.894531,51.3144531 C271.894531,49.4511626 272.260739,47.7753981 272.993164,46.2871094 C273.72559,44.7988207 274.745111,43.6503947 276.051758,42.8417969 C277.358405,42.0331991 278.849601,41.6289062 280.525391,41.6289062 C283.115247,41.6289062 285.209953,42.5253817 286.80957,44.3183594 C288.409188,46.1113371 289.208984,48.4960789 289.208984,51.4726562 L289.208984,51.7011719 C289.208984,53.5527436 288.854496,55.2138598 288.145508,56.6845703 C287.43652,58.1552808 286.422858,59.3007771 285.104492,60.1210938 C283.786126,60.9414104 282.271493,61.3515625 280.560547,61.3515625 C277.982409,61.3515625 275.893563,60.4550871 274.293945,58.6621094 C272.694328,56.8691317 271.894531,54.4961085 271.894531,51.5429688 L271.894531,51.3144531 Z M275.164062,51.7011719 C275.164062,53.8105574 275.653315,55.5038999 276.631836,56.78125 C277.610356,58.0586001 278.919914,58.6972656 280.560547,58.6972656 C282.212899,58.6972656 283.525386,58.0498112 284.498047,56.7548828 C285.470708,55.4599545 285.957031,53.646496 285.957031,51.3144531 C285.957031,49.2285052 285.461919,47.5380924 284.47168,46.2431641 C283.48144,44.9482357 282.166024,44.3007812 280.525391,44.3007812 C278.919914,44.3007812 277.625005,44.9394467 276.640625,46.2167969 C275.656245,47.494147 275.164062,49.3222537 275.164062,51.7011719 Z M292.425781,51.3144531 C292.425781,49.4511626 292.791989,47.7753981 293.524414,46.2871094 C294.25684,44.7988207 295.276361,43.6503947 296.583008,42.8417969 C297.889655,42.0331991 299.380851,41.6289062 301.056641,41.6289062 C303.646497,41.6289062 305.741203,42.5253817 307.34082,44.3183594 C308.940438,46.1113371 309.740234,48.4960789 309.740234,51.4726562 L309.740234,51.7011719 C309.740234,53.5527436 309.385746,55.2138598 308.676758,56.6845703 C307.96777,58.1552808 306.954108,59.3007771 305.635742,60.1210938 C304.317376,60.9414104 302.802743,61.3515625 301.091797,61.3515625 C298.513659,61.3515625 296.424813,60.4550871 294.825195,58.6621094 C293.225578,56.8691317 292.425781,54.4961085 292.425781,51.5429688 L292.425781,51.3144531 Z M295.695312,51.7011719 C295.695312,53.8105574 296.184565,55.5038999 297.163086,56.78125 C298.141606,58.0586001 299.451164,58.6972656 301.091797,58.6972656 C302.744149,58.6972656 304.056636,58.0498112 305.029297,56.7548828 C306.001958,55.4599545 306.488281,53.646496 306.488281,51.3144531 C306.488281,49.2285052 305.993169,47.5380924 305.00293,46.2431641 C304.01269,44.9482357 302.697274,44.3007812 301.056641,44.3007812 C299.451164,44.3007812 298.156255,44.9394467 297.171875,46.2167969 C296.187495,47.494147 295.695312,49.3222537 295.695312,51.7011719 Z M313.027344,51.3320312 C313.027344,48.4140479 313.718743,46.0673917 315.101562,44.2919922 C316.484382,42.5165927 318.294911,41.6289062 320.533203,41.6289062 C322.759777,41.6289062 324.523431,42.3906174 325.824219,43.9140625 L325.824219,34 L329.076172,34 L329.076172,61 L326.087891,61 L325.929688,58.9609375 C324.6289,60.5546955 322.818371,61.3515625 320.498047,61.3515625 C318.294911,61.3515625 316.49903,60.4492278 315.110352,58.6445312 C313.721673,56.8398347 313.027344,54.4843895 313.027344,51.578125 L313.027344,51.3320312 Z M316.279297,51.7011719 C316.279297,53.8574327 316.724605,55.5449158 317.615234,56.7636719 C318.505864,57.982428 319.73632,58.5917969 321.306641,58.5917969 C323.369151,58.5917969 324.874995,57.6660249 325.824219,55.8144531 L325.824219,47.078125 C324.851558,45.2851473 323.357432,44.3886719 321.341797,44.3886719 C319.748039,44.3886719 318.505864,45.0039001 317.615234,46.234375 C316.724605,47.4648499 316.279297,49.2870973 316.279297,51.7011719 Z M350.925781,61.3515625 C348.347643,61.3515625 346.250008,60.5048913 344.632812,58.8115234 C343.015617,57.1181556 342.207031,54.8535298 342.207031,52.0175781 L342.207031,51.4199219 C342.207031,49.5331937 342.567379,47.8486402 343.288086,46.3662109 C344.008793,44.8837817 345.016595,43.723637 346.311523,42.8857422 C347.606452,42.0478474 349.009758,41.6289062 350.521484,41.6289062 C352.994153,41.6289062 354.916009,42.4433512 356.287109,44.0722656 C357.65821,45.70118 358.34375,48.0331879 358.34375,51.0683594 L358.34375,52.421875 L345.458984,52.421875 C345.50586,54.2968844 346.053706,55.8115177 347.102539,56.9658203 C348.151372,58.120123 349.484367,58.6972656 351.101562,58.6972656 C352.250006,58.6972656 353.222652,58.462893 354.019531,57.9941406 C354.81641,57.5253883 355.513669,56.9043007 356.111328,56.1308594 L358.097656,57.6777344 C356.503898,60.1269654 354.113297,61.3515625 350.925781,61.3515625 Z M350.521484,44.3007812 C349.208978,44.3007812 348.107426,44.7783155 347.216797,45.7333984 C346.326167,46.6884813 345.775392,48.0273351 345.564453,49.75 L355.091797,49.75 L355.091797,49.5039062 C354.998046,47.8515542 354.552738,46.5712936 353.755859,45.6630859 C352.95898,44.7548783 351.880866,44.3007812 350.521484,44.3007812 Z M368.486328,48.9238281 L372.705078,41.9804688 L376.501953,41.9804688 L370.279297,51.3847656 L376.695312,61 L372.933594,61 L368.539062,53.8808594 L364.144531,61 L360.365234,61 L366.78125,51.3847656 L360.558594,41.9804688 L364.320312,41.9804688 L368.486328,48.9238281 Z M396.013672,51.7011719 C396.013672,54.5957176 395.351569,56.9277255 394.027344,58.6972656 C392.703118,60.4668057 390.910168,61.3515625 388.648438,61.3515625 C386.339832,61.3515625 384.523444,60.6191479 383.199219,59.1542969 L383.199219,68.3125 L379.947266,68.3125 L379.947266,41.9804688 L382.917969,41.9804688 L383.076172,44.0898438 C384.400397,42.4492105 386.240223,41.6289062 388.595703,41.6289062 C390.880871,41.6289062 392.68847,42.4902258 394.018555,44.2128906 C395.348639,45.9355555 396.013672,48.3320159 396.013672,51.4023438 L396.013672,51.7011719 Z M392.761719,51.3320312 C392.761719,49.1874893 392.304692,47.4941468 391.390625,46.2519531 C390.476558,45.0097594 389.222664,44.3886719 387.628906,44.3886719 C385.660146,44.3886719 384.183599,45.26171 383.199219,47.0078125 L383.199219,56.0957031 C384.17188,57.8300868 385.660146,58.6972656 387.664062,58.6972656 C389.222664,58.6972656 390.461909,58.0791077 391.381836,56.8427734 C392.301762,55.6064391 392.761719,53.7695434 392.761719,51.3320312 Z M403.677734,61 L400.425781,61 L400.425781,41.9804688 L403.677734,41.9804688 L403.677734,61 Z M400.162109,36.9355469 C400.162109,36.4082005 400.323241,35.9628924 400.645508,35.5996094 C400.967775,35.2363263 401.445309,35.0546875 402.078125,35.0546875 C402.710941,35.0546875 403.191405,35.2363263 403.519531,35.5996094 C403.847658,35.9628924 404.011719,36.4082005 404.011719,36.9355469 C404.011719,37.4628933 403.847658,37.902342 403.519531,38.2539062 C403.191405,38.6054705 402.710941,38.78125 402.078125,38.78125 C401.445309,38.78125 400.967775,38.6054705 400.645508,38.2539062 C400.323241,37.902342 400.162109,37.4628933 400.162109,36.9355469 Z M418.074219,44.8984375 C417.582029,44.8164058 417.048831,44.7753906 416.474609,44.7753906 C414.341786,44.7753906 412.894535,45.6835847 412.132812,47.5 L412.132812,61 L408.880859,61 L408.880859,41.9804688 L412.044922,41.9804688 L412.097656,44.1777344 C413.164068,42.4785071 414.675771,41.6289062 416.632812,41.6289062 C417.265628,41.6289062 417.746092,41.7109367 418.074219,41.875 L418.074219,44.8984375 Z M428.621094,61.3515625 C426.042956,61.3515625 423.945321,60.5048913 422.328125,58.8115234 C420.710929,57.1181556 419.902344,54.8535298 419.902344,52.0175781 L419.902344,51.4199219 C419.902344,49.5331937 420.262692,47.8486402 420.983398,46.3662109 C421.704105,44.8837817 422.711908,43.723637 424.006836,42.8857422 C425.301764,42.0478474 426.705071,41.6289062 428.216797,41.6289062 C430.689465,41.6289062 432.611321,42.4433512 433.982422,44.0722656 C435.353522,45.70118 436.039062,48.0331879 436.039062,51.0683594 L436.039062,52.421875 L423.154297,52.421875 C423.201172,54.2968844 423.749018,55.8115177 424.797852,56.9658203 C425.846685,58.120123 427.179679,58.6972656 428.796875,58.6972656 C429.945318,58.6972656 430.917965,58.462893 431.714844,57.9941406 C432.511723,57.5253883 433.208981,56.9043007 433.806641,56.1308594 L435.792969,57.6777344 C434.199211,60.1269654 431.80861,61.3515625 428.621094,61.3515625 Z M428.216797,44.3007812 C426.90429,44.3007812 425.802739,44.7783155 424.912109,45.7333984 C424.02148,46.6884813 423.470704,48.0273351 423.259766,49.75 L432.787109,49.75 L432.787109,49.5039062 C432.693359,47.8515542 432.248051,46.5712936 431.451172,45.6630859 C430.654293,44.7548783 429.576179,44.3007812 428.216797,44.3007812 Z M450.875,55.9550781 C450.875,55.0761675 450.543949,54.3935571 449.881836,53.9072266 C449.219723,53.420896 448.065438,53.0019549 446.418945,52.6503906 C444.772453,52.2988264 443.465825,51.8769556 442.499023,51.3847656 C441.532222,50.8925757 440.817385,50.306644 440.354492,49.6269531 C439.891599,48.9472622 439.660156,48.1386766 439.660156,47.2011719 C439.660156,45.6425703 440.319329,44.3242241 441.637695,43.2460938 C442.956061,42.1679634 444.640615,41.6289062 446.691406,41.6289062 C448.847667,41.6289062 450.596673,42.1855413 451.938477,43.2988281 C453.28028,44.4121149 453.951172,45.8359288 453.951172,47.5703125 L450.681641,47.5703125 C450.681641,46.679683 450.303715,45.9121126 449.547852,45.2675781 C448.791988,44.6230437 447.839849,44.3007812 446.691406,44.3007812 C445.507807,44.3007812 444.582035,44.5585912 443.914062,45.0742188 C443.24609,45.5898463 442.912109,46.2636677 442.912109,47.0957031 C442.912109,47.8808633 443.222653,48.4726543 443.84375,48.8710938 C444.464847,49.2695332 445.586906,49.6503888 447.209961,50.0136719 C448.833016,50.3769549 450.148432,50.8105444 451.15625,51.3144531 C452.164068,51.8183619 452.91113,52.4248011 453.397461,53.1337891 C453.883791,53.842777 454.126953,54.7070262 454.126953,55.7265625 C454.126953,57.4257897 453.447272,58.7880808 452.087891,59.8134766 C450.728509,60.8388723 448.964855,61.3515625 446.796875,61.3515625 C445.27343,61.3515625 443.925787,61.0820339 442.753906,60.5429688 C441.582025,60.0039036 440.665042,59.2509814 440.00293,58.2841797 C439.340817,57.317378 439.009766,56.27149 439.009766,55.1464844 L442.261719,55.1464844 C442.320313,56.2363336 442.756832,57.1005827 443.571289,57.7392578 C444.385746,58.3779329 445.460931,58.6972656 446.796875,58.6972656 C448.02735,58.6972656 449.014645,58.4482447 449.758789,57.9501953 C450.502933,57.4521459 450.875,56.7871135 450.875,55.9550781 Z" id="How-often-food-expir" fill="#000000"></path>
        </g>
    </g>
</svg>